<svg id="Layer_1" enable-background="new 0 0 150 150" viewBox="0 0 150 150" xmlns="http://www.w3.org/2000/svg"><g id="_x38_8"><g><path d="m97.0681915 87.7985687c2.0081406 7.8464813 1.6459885 16.3036728 6.0039444 23.1356659 1.4151382 2.2557907 5.5570602 2.8082352 8.5089417-1.1075592 2.8570328-3.7679749 2.7741394-9.0162125 1.6459808-13.6123047-1.8840485-7.7119064-6.4283905-14.7820282-12.8049774-19.5229874-.724556-.5382996-1.3870697-.6417923-2.1530685-.1760254-.7641602.4812241-1.2605133 1.2508392-1.5941772 2.1013947-1.1490098 2.8984223-.3830033 6.1591797.3933562 9.1818161z" fill="#fff"/></g><g><path d="m97.0681915 87.7985687c2.0081406 7.8464813 1.6459885 16.3036728 6.0039444 23.1356659.6623917 1.0558777 1.8839264 1.6562805 3.1365509 1.7494125.620903-4.7648773 2.3274155-10.8868942.8280487-18.1358566-1.3145447-6.3351364-4.451088-12.2666168-8.9333878-16.9248047-.1758957-.1759644-.3622742-.3519211-.5693817-.4761353-.3725128.4243851-.6520309.9419632-.8591309 1.469902-1.1490096 2.8984224-.3830031 6.1591798.3933564 9.1818162z" fill="#dde4ee"/></g><g><path d="m102.7648773 111.1257019c-4.398674-6.8843842-4.0569-15.4547272-6.0517578-23.2373047-.8808594-3.4375-1.5166016-6.5185547-.3769531-9.40625.4150391-1.0507813 1.0009766-1.8164063 1.7412109-2.2744141.8447266-.5224609 1.6816406-.4599609 2.5595703.1923828 6.3076172 4.6884766 11.0263672 11.8789063 12.9472656 19.7275391.9833984 4.0195313 1.4853516 9.6982422-1.7099609 13.921875-1.1865234 1.5703125-2.7109375 2.6074219-4.2919922 2.9228516-1.9425354.3827057-3.9008636-.4100647-4.8173828-1.8466797zm-4.305664-34.3007812c-.6035156.3740234-1.0908203 1.0214844-1.4472656 1.9248047-1.0605469 2.6845703-.4443359 5.6455078.4042969 8.9589844 2.0281296 7.912056 1.6405258 16.2659531 5.9599609 23.0263672.7792969 1.2177734 2.4472656 1.8457031 4.0644531 1.5244141 1.40625-.2792969 2.7753906-1.2197266 3.8554688-2.6474609 3.0224609-3.9970703 2.5292969-9.4453125 1.5830078-13.3125-1.8818359-7.6865234-6.5019531-14.7275391-12.6757813-19.3173828-.6041947-.4486467-1.1107788-.5471651-1.7441406-.1572267z" fill="#2a3134"/></g><g><path d="m109.7015381 111.6257019c.560463-1.8882904.6785507-3.9063644.3421326-5.8471375" fill="#fff"/><path d="m109.7014008 111.9889832c-.2404633 0-.4179382-.2321243-.3476563-.4667969.5439453-1.8330078.6591797-3.7978516.3320313-5.6806641-.0341797-.1982422.0976563-.3857422.2949219-.4199219.203125-.0351563.3867188.0986328.4199219.2949219.3466797 1.9931641.2246094 4.0722656-.3515625 6.0126953-.0468751.1572266-.1914063.2597657-.3476563.2597657z" fill="#2a3134"/></g><g><path d="m53.9929924 88.4180756c-2.0081367 7.8464813-1.6459846 16.3036728-6.0039444 23.1356659-.8886566 1.4165649-2.7612686 2.004425-4.4408493 1.6770096-3.8753738-.7556458-8.1686745-6.3968582-5.7140732-16.3968735 1.8840523-7.7119064 6.4283943-14.7820282 12.8049774-19.5229874.7245598-.5382996 1.3870735-.6417923 2.1530762-.1760254.7641563.4812317 1.2605095 1.2508392 1.5941772 2.1013947 1.1490059 2.8984222.3830033 6.1591796-.3933639 9.1818161z" fill="#fff"/></g><g><path d="m53.9929924 88.4180756c-2.0081367 7.8464813-1.6459846 16.3036728-6.0039444 23.1356659-.6623878 1.0558777-1.8839226 1.6562881-3.1365471 1.7494125-.6208992-4.7648773-2.3274155-10.8868942-.8280449-18.1358566 1.314537-6.3351364 4.4510841-12.2666168 8.9333839-16.9248047.1758957-.1759567.362278-.3519211.5693855-.4761353.3725128.4243851.6520233.9419632.8591309 1.469902 1.1490059 2.8984223.3830033 6.1591797-.3933639 9.1818162z" fill="#dde4ee"/></g><g><path d="m43.4797211 113.5915222c-1.5820313-.3154297-3.1064453-1.3525391-4.2929688-2.921875-3.1953125-4.2265625-2.6933594-9.9033203-1.7099609-13.921875 1.9208984-7.8496094 6.6396484-15.0400391 12.9472656-19.7275391.875-.6523438 1.7128906-.7167969 2.5585938-.1923828.7412109.4570313 1.3271484 1.2226563 1.7421875 2.2753906 1.140625 2.8876953.5039063 5.96875-.3769531 9.4052734-1.9952126 7.792511-1.655056 16.3568344-6.0517578 23.2373047-.9150849 1.4332124-2.8708344 2.2290116-4.8164063 1.8457032zm7.3779297-35.9892578c-6.1748047 4.5888672-10.7939453 11.6298828-12.6757813 19.3173828-.9462891 3.8662109-1.4394531 9.3134766 1.5839844 13.3125 1.0791016 1.4267578 2.4482422 2.3671875 3.8554688 2.6464844 1.6152344.3222656 3.2841797-.3046875 4.0634766-1.5234375 2.8730469-4.4970703 3.6523438-9.6289063 4.4765625-15.0615234.3994141-2.6279297.8115234-5.3447266 1.4833984-7.9648438.8496094-3.3125 1.4658203-6.2734375.4042969-8.9589844-.3564453-.9042969-.8427734-1.5517578-1.4472656-1.9248047-.6343766-.3905716-1.141018-.2906189-1.7441407.1572266z" fill="#2a3134"/></g><g><path d="m102.1955261 121.0172501c3.0971909-12.1608124 2.33535-25.3041229-2.2214127-36.9950714-.8783951-2.2758636-1.7004929-6.1822357-4.3948898-6.9372406-1.3467789-.377388-2.7596359.150528-4.0810089.6090393-6.3188934 2.1926193-13.1389923 2.92659-19.7797241 2.1286774-9.5485458-1.1473007-14.2255707-4.1812897-17.188591-2.0574265-1.557972 1.1167831-2.5370407 3.8947296-3.2203064 5.6375504-4.5069122 11.1853867-5.5179253 23.7449112-2.9619064 35.5283432" fill="#fff"/><path d="m102.1056976 121.368866c-.1943359-.0488281-.3115234-.2470703-.2617188-.4414063 3.0898438-12.1318359 2.3056641-25.1914063-2.2080078-36.7734375-.865921-2.2392654-1.6716156-6.024437-4.1542969-6.7197266-1.2486877-.347374-2.6212158.1696014-3.8642578.6025391-6.3623047 2.2070313-13.2587891 2.9472656-19.9423828 2.1464844-3.7766724-.4536362-7.6294785-1.4187622-11.6445313-2.375-5.1998444-1.2223358-6.233654.176918-8.2167969 5.2988281l-.1660156.4287109c-4.4472656 11.0361328-5.4921875 23.578125-2.9453125 35.3183594.0429688.1962891-.0820313.3896484-.2773438.4316406-.1982422.0458984-.3886719-.0820313-.4316406-.2773438-2.578125-11.8808594-1.5195313-24.5742188 2.9794922-35.7412109l.1640625-.421875c2.1002045-5.4294357 3.4623756-7.0609665 9.0595703-5.7441406 3.9333954.9369202 7.8311157 1.9127121 11.5644531 2.3613281 6.5791016.7910156 13.3603516.0605469 19.6181641-2.1113281 1.3978119-.4862137 2.8619156-1.0159149 4.2978516-.6162109 2.8837509.8077774 3.6969604 4.7264557 4.6357422 7.15625 4.5683594 11.7216797 5.3613281 24.9384766 2.234375 37.2158203-.0491943.1921997-.2451476.3123627-.4414062.2617188z" fill="#2a3134"/></g><g><path d="m41.3596497 112.2452087c-.560463-1.8882904-.6785469-3.9063644-.3421288-5.8471298" fill="#fff"/><path d="m41.0119476 112.3483582c-.5761719-1.9404297-.6982422-4.0185547-.3515625-6.0126953.0341797-.1962891.2207031-.3330078.4199219-.2949219.1972656.0341797.3291016.2216797.2949219.4199219-.3271484 1.8828125-.2119141 3.8476563.3320313 5.6806641.0576172.1923828-.0517578.3945313-.2441406.4511719-.1839562.0578154-.3925096-.0473863-.451172-.2441407z" fill="#2a3134"/></g><g><g><path d="m88.0582275 83.9309082-5.3066483 9.6220245c-.0673523-.10009-4.9049683-7.2896881-4.8368759-7.1890259 2.9949036-.2789764 6.6621934-1.096611 10.1435242-2.4329986z" fill="#fff"/></g><g><path d="m88.0582275 83.9309082-5.3066483 9.6220245-1.2615433-1.8895721c.7580109-1.280159 1.322525-2.6822968 1.635437-4.1108475.077919-.3726578.1063004-.8504791-.2191086-1.0035477-.132309-.0559158-.3113937-.0303497-.4783401.0059586-1.2286301.237709-2.4431839.6106186-3.6319199 1.1044083l-.8814011-1.2954254c3.0395052-.2831345 6.672928-1.1007309 10.1435243-2.4329987z" fill="#dde4ee"/></g><g><path d="m82.7512054 93.915741c-.1210938 0-.234375-.0605469-.3017578-.1621094l-4.8349609-7.1855469c-.1561432-.2299957-.0058517-.5405655.265625-.5654297 3.0296555-.2857056 6.6464386-1.1044083 10.0478516-2.4101563.3079376-.1227417.6131668.2155991.4472656.5146484l-5.3066406 9.6210938c-.0605469.1103516-.1757813.1816406-.3017578.1865234-.0058594.0009767-.0107422.0009767-.0156251.0009767zm-4.1972656-7.256836 4.1679688 6.1953125 4.546875-8.2441406c-2.8803788 1.0277557-5.6440735 1.6661758-8.7148438 2.0488281z" fill="#2a3134"/></g><g><path d="m73.0958176 86.5281296c-.0521774.104805-3.1900101 6.4074478-2.9935532 6.0128479l-1.9142532 3.8639221-6.8538361-12.2746048c.2974434.1333618.7960968.2996216.8306847.3302307.4393692.1414948.9132881.3337936 1.4553032.4904327 2.3549347.768631 5.6155396 1.4211349 8.6497345 1.5454636.0481796.0180817.1077805.0095749.1555786.0027542.2275085.0173645.4430237.0240402.6703415.0289536z" fill="#fff"/></g><g><path d="m65.6501846 87.0300293c-.2820511.3269958-.190712.8126907-.0653534 1.1936874.5009613 1.437088 1.4054947 2.6793594 2.5674133 3.5483246.4719315.3440781.9910736.6439819 1.5786896.7346649.1197815.0202637.2396545.0281067.3713303.0342712l-1.9142532 3.8639221-6.8538361-12.2746048c.2974434.1333618.7960968.2996216.8306847.3302307.4393692.1414948.9132881.3337936 1.4553032.4904327 1.9874039.6486664 4.5332794 1.2098694 7.4280548 1.4580917l-.0909729.3121948c-1.3339462.3773956-2.7331772.4151306-4.0177231.124733-.4323807-.1003645-.9602509-.1995695-1.2893372.1840517z" fill="#dde4ee"/></g><g><path d="m68.1926117 96.76828c-.1308594 0-.2529297-.0712891-.3173828-.1865234l-6.8535156-12.2753906c-.1668739-.2995224.1418114-.6523056.4658203-.5078125.2080078.0927734.421875.1728516.6328125.2509766.28228.0739365 4.4761047 1.8665314 10.3330078 2.0917969.5983505.0427399.8039322-.0376282.9482422.2021484.0644531.1064453.0693359.2382813.0146484.3486328l-4.8984375 9.8740234c-.0595703.1210938-.1816406.1982422-.3164063.2021484-.0029296 0-.0058593 0-.008789 0zm-6.0419922-11.930664 6.0224609 10.7880859 4.3427734-8.7529297c-.0371094-.0019531-.0751953-.0039063-.1132813-.0068359-.0214844.0087891-.1201172.0078125-.2128906-.0126953-5.551979-.2473069-9.8461799-1.9653321-10.0390624-2.015625z" fill="#2a3134"/></g><g><path d="m80.3757324 90.0022202-2.6048431 4.0746765-5.1570282.7361755-2.0010986-3.3049927c.0522461-.1047821 2.6466293-5.3080063 2.4830551-4.97995 1.6396027.0615692 3.1712875.0095062 4.8188858-.1642227z" fill="#3acc81"/></g><g><g><path d="m80.3757324 90.0022202-2.6048431 4.0746765-3.5334167.5044022c1.4291687-1.1889267 2.6005783-2.8024292 3.0631485-4.6014633.0788269-.3229446.1449432-.6939163.0088806-.9737015-.4426422-.95298-2.0450211-.0810394-4.6544571-1.592186l.440773-.8858185c1.6396027.0615692 3.1712875.0095062 4.8188858-.1642227z" fill="#1ebc66"/></g></g><g><path d="m72.3088226 94.9997253-2.0039063-3.2978516c-.0644531-.1064453-.0703125-.2382813-.0146484-.3496094l2.4755859-4.9824219c.0634766-.1289063.1992188-.2373047.3388672-.2011719 4.232811.1546936 4.8259583-.4344482 5.1123047-.0068359l2.4560547 3.6435547c.0810547.1201172.0830078.2763672.0048828.3984375-2.7593613 4.2371674-2.5545044 4.1901855-2.8515625 4.2314453l-5.15625.7353516c-.1587829.0186768-.2904128-.0541076-.3613281-.1708984zm-1.2792968-3.5039062 1.7753906 2.921875 4.7548828-.6777344 2.3779297-3.7255859-2.203125-3.2695313c-.2902985.0176163-2.0591202.2329636-4.421875.15625z" fill="#2a3134"/></g><g><path d="m81.840332 115.0648117c-.0770645.1004028-3.2849426 4.279892-3.0842972 4.0184708l-3.473587 5.5097656-7.1079941-8.1882935c.4559174-2.2187881-1.3338776 6.4915009 4.4392166-21.6041336l5.1570282-.7361832z" fill="#3acc81"/></g><g><path d="m81.840332 115.0648117-3.0255127 3.9477539-3.5323715 5.5804825s2.2080078-7.6605225 2.6055756-9.0263596c1.4319305-4.8797379.2905655-9.8284683-1.0243149-14.3908997-.3414383-1.1980133-.7073059-2.4174957-1.3689575-3.4326782-.6616058-1.0027008-1.6553726-1.8207855-2.8654938-1.934845l-.2269287.0199127.2113419-1.0275574 5.1570282-.7361832z" fill="#1ebc66"/></g><g><path d="m75.2824554 124.9567566c-.1044922 0-.2050781-.0458984-.2744141-.125-7.3646622-8.570343-7.257988-8.1662216-7.1894531-8.5029297l4.4394531-21.5957031c.0302734-.1503906.1523438-.2646484.3037109-.2861328l5.1572266-.7363281c.1953125-.0322266.3720703.1005859.4082031.2900391 4.2813721 22.3104019 4.1770859 21.0374985 4.0117188 21.2753906-6.9051666 9.9350128-6.4991989 9.662117-6.8359375 9.6796875-.0068359.0009765-.0136718.0009765-.0205078.0009765zm-6.7167968-8.6572266 6.6835938 7.7021484 6.2050781-9.0117188-3.9746094-20.5117186-4.5625.6513672z" fill="#2a3134"/></g></g><g><path d="m94.8083344 79.5009689c-.3917465-.8161621-.4570999-1.2840881-.1196899-1.3275909z" fill="#fff"/><path d="m94.4806976 79.6579285c-.3720703-.7744141-.4589844-1.2363281-.2910156-1.5439453.2162781-.3999939.8212662-.4113007.8603516.0273438l.1191406 1.3271484c.0359116.4017715-.5145721.5510635-.6884766.1894531z" fill="#2a3134"/></g><g><path d="m104.1561661 69.9737854c-.0207214.0413818-.0413208.0827637-.072403.1242065-9.0107727 16.2494736-30.4178848 22.5503082-47.2548103 13.0118942-9.067276-5.0876236-15.7217369-14.3174438-16.9660645-25.1335678-.0103607-.0207253-.0207214-.0517464-.0103607-.0828285-2.9010391-23.4083442 22.6723862-45.1068449 47.5238304-34.7811527 17.3778687 7.2105484 26.8910294 28.7818127 16.7798081 46.8614483z" fill="#fff"/></g><g><path d="m106.892746 53.9361916c4.3375015 12.0549583-9.4098434 27.4680824-21.4297256 31.7015648-18.8683777 6.5536118-39.397953-4.0428391-44.6303558-22.7106133-1.7901993-6.3869324-1.5338097-9.206089 3.6048584-13.621048 9.2098045-7.9127312 23.7069702-12.4005051 43.1626205-8.2356834 4.6194916.9888802 9.2430725 2.4201622 13.0938034 5.1568451 3.2104186 2.2816238 5.1917953 4.9102401 6.1987991 7.7089348z" fill="#dde4ee"/></g><g><path d="m75.0764008 70.1296082c-.1933594 0-.3544922-.1523438-.3623047-.3476563l-.3798828-8.7285156c-.0087891-.2001953.1464844-.3691406.3466797-.3779297.1992188-.046875.3691406.1464844.3779297.3466797l.3798828 8.7285156c.0087891.2001953-.1464844.3691406-.3466797.3779297-.0048829.0009766-.0107422.0009766-.015625.0009766z" fill="#2a3134"/></g><g><path d="m54.5119476 59.596405c-.1972656-.0332031-.3310547-.2207031-.296875-.4179688.0322266-.1962891.2167969-.3349609.4179688-.296875 3.6297989.6142731 7.4869347-.8824615 9.7392578-3.6591797.1279297-.1572266.3564453-.1787109.5107422-.0537109.15625.1269531.1796875.3554688.0537109.5107422-1.3798637 1.7005348-3.4068413 3.0579033-5.8203125 3.6933594-1.5805702.4175072-3.1845321.4667092-4.6044922.2236328z" fill="#2a3134"/></g><g><g><path d="m64.1579285 58.380043c-.0319443 3.2230225-2.5984344 4.7972755-4.275322 2.7017365-.4139595-.5279388-.724556-1.2525597-.859005-2.0599442 1.7700729-.4658318 3.4365311-1.3664131 4.7615585-2.6396332.2380639.590046.3727685 1.2732201.3727685 1.9978409z" fill="#2a3134"/></g></g><g><path d="m83.9904633 55.9548035c-.1650391-.1152344-.2041016-.3408203-.0888672-.5048828.1142578-.1660156.3427734-.2050781.5048828-.0888672 2.6930466 1.883976 6.1841049 2.7057953 9.5380859 2.0722656.1982422-.0400391.3867188.0917969.4238281.2890625.0371094.1962891-.0917969.3867188-.2890625.4238281-3.5976715.6829338-7.3008651-.2322731-10.0888671-2.1914062z" fill="#2a3134"/></g><g><g><path d="m91.5376968 58.0074043c-.0674744 1.4830132-.883316 3.2749939-2.3187332 3.405632-1.5428162.1801529-3.1419525-1.8336143-2.8155899-4.5236168 1.6147766.7246209 3.3746185 1.0972596 5.1343231 1.1179848z" fill="#2a3134"/></g></g><g><path d="m69.1302261 59.9372444c.0780487-.4371147.465416-.7607117 1.0708237-1.0347137 2.7432861-1.2415733 5.8862381-1.4685898 8.8433228-1.0667419.3756256.0510445.7628479.1181145 1.077919.3288918.9594345.6418495.5215225 1.8687744-.0027313 2.6334572-1.1981506 1.7476349-4.2005386 5.5639839-6.6407318 3.9019356-.9236145-.6290817-1.8393173-1.28125-2.6503067-2.0535431-.6360093-.6056634-1.8762131-1.7128831-1.6982957-2.7092859z" fill="#2a3134"/></g><g><path d="m74.8675995 58.952076c.8844376.1279755.8409958.7682686.1003189 1.242939-.7444763.4771118-1.6520615.7931099-2.5415421.8060265-.3966675.0057564-1.2908478-.0576172-1.1274338-.6664581.1480331-.551506.8662491-.8617744 1.3447189-1.0427284.6838914-.2586366 1.4945146-.4453203 2.2239381-.339779z" fill="#fff"/></g><g><path d="m56.6506195 83.4255066c-10.0942001-5.6638565-16.0018883-15.463768-17.1484375-25.4072266-.0039063-.0263672-.0068359-.0537109-.0078125-.0800781h-.0019531c-2.4498215-19.7967186 15.1164398-37.5190735 33.9033203-37.8388672 20.6656494-.2726326 34.9849701 16.5977383 35.2646484 33.3369141.4153824 26.3471527-28.8324432 43.1516876-52.0097656 29.9892578zm1.2724609-.1425781c19.3778305 10.3648834 44.5882339-.500885 49.2744141-22.421875 4.3423157-19.4923286-11.1835175-40.4030838-33.7900391-40.0351563-17.5843239.2977982-33.7262878 16.1158962-33.4199219 33.7597656.2345544 12.5273285 7.623829 23.5083542 17.9355469 28.6972657z" fill="#2a3134"/></g><g><path d="m108.6255112 47.911377h-.0094452c-.1509705.1132011-.3018875.2075157-.4622421.2830009-.0943756.0660439-.1981277.1320877-.3018875.1886864-.1415329-.5188446-.3018875-1.0471344-.4905777-1.5848656 0-.0188866-.0094376-.0283279-.0094376-.0377731-.972435-2.7876968-2.6408768-5.9326286-3.1980667-7.0469971-.0093842-.0094452-.0188293-.0283279-.0282669-.0377159-.3772125-.7714806-.5864563-1.1257515-.8396225-1.6320801l-13.72612-13.5091648c4.4192581-6.1700573 15.6008911-7.904459 22.1693573-1.075407 6.8992767 7.1051788 5.2716064 19.169342-3.1036911 24.4523163z" fill="#fff"/></g><g><path d="m108.6255112 47.911377h-.0094452c-.3029022.1603661-.5224686.339859-.7641296.4716873.0754318-.0377121-.3962631-1.3207512-.4905777-1.5848656 0-.0188866-.0094376-.0283279-.0094376-.0377731-.9995117-2.8653336-3.1263199-6.9853096-3.2263336-7.084713-.2107239-.3687248-.9857407-1.5793076-.5943375-1.735836.4528046-.1981316 1.1037369 1.0943489 1.2735367 1.3490219 1.6599045 2.3302956 2.3105164 3.5909042 3.518837 3.9810791 3.2138901 1.0543098 5.9183502-2.8956299 6.2923126-7.4715881.3212051-3.9081345-.4784775-6.2269993-1.6320267-9.1884823-.4056473-1.0565777-.8301773-2.1131554-1.2547073-3.1508465 6.8992767 7.1051788 5.2716064 19.169342-3.1036911 24.4523163z" fill="#dde4ee"/></g><g><path d="m107.5012054 48.4772644c-.9108963-3.3902054-2.8980179-7.1086617-4.5371094-10.2666016-.0917969-.1777344-.0224609-.3974609.1552734-.4892578.1767578-.0908203.3964844-.0244141.4892578.1552734 1.6048431 3.0920296 3.4947052 6.6409683 4.4658203 9.9580078 10.4188919-6.2498093 10.0345306-21.9701881-.7470703-27.0947285-5.2646484-2.4980469-13.5400391-1.484375-17.4726563 4.0058594-.1162109.1640625-.3447266.2001953-.5058594.0839844-.1630859-.1162109-.2011719-.34375-.0839844-.5058594 4.1425781-5.7861328 12.8447266-6.8632813 18.3740234-4.2402344 5.8925781 2.8017578 9.3798828 9.2001953 8.6777344 15.9228535-.5338058 5.076416-3.3814926 9.9339523-8.2871094 12.6933594-.2004773.1145592-.4650419.0114556-.5283201-.2226562z" fill="#2a3134"/></g><g><path d="m107.3467484 37.5848961c-.3820496.2868004-.8012009.5516624-1.2650757.615406-.4639053.0637474-.9807968-.1225624-1.1821823-.5482941-.5492706-1.1611519 1.4101486-3.7709694 1.2478409-5.8307953-.0537109-.6816616-.3815842-.8507614-1.0772018-.749155-.7232971.1056519-1.4399261.2725163-2.1401749.4983368-.4694824.1513996-1.1022186.2701302-1.3306961-.1655235-.3304214-.6300278.7064438-1.2112694.7814026-1.9344254-.5331726-.4891491-1.5425415-.4442863-1.7632828-1.1476803-.1908722-.6082058.4086914-1.1761074.9394531-1.5371056 1.1375504-.7737083 2.3226624-1.5136852 3.6282806-1.8879509s2.7619629-.3455658 3.8977661.358963c1.1941147.7406979 2.5111771 2.5828266 2.5690994 4.0780888.0609512 1.5736141-.9589233 3.162466-1.4552994 4.608305-.4908294 1.4296914-1.6609115 2.7492447-2.8499297 3.6418305z" fill="#dde4ee"/></g><g><path d="m109.720932 35.4489441c-.1757813-.0966797-.2412109-.3164063-.1455078-.4931641 1.1230469-2.0634766 1.6513672-3.7529316 1.6621094-5.3164082.0136719-1.9462891-.9238281-3.7197266-2.3330078-4.4121094-1.5146484-.7451172-3.6210938-.3496094-5.6298828 1.0625-.1640625.1162109-.3916016.0761719-.5058594-.0878906-.1152344-.1640625-.0761719-.390625.0878906-.5058594 2.2304688-1.5664063 4.609375-1.9833984 6.3681641-1.1210938 1.6796875.8261719 2.7548828 2.8164063 2.7392578 5.0703125-.015625 2.2158203-1.0068359 4.290041-1.75 5.658205-.0925141.1686975-.3059922.2440149-.4931641.145508z" fill="#2a3134"/></g><g><path d="m61.2679749 23.506218c-5.9416809 4.8654842-8.8613434 7.256319-14.8959007 12.1978569-1.9245262 2.9999313-4.2735252 6.5281525-5.4999619 9.8677444-6.6143227-4.5592575-8.6505051-13.2060356-5.4338608-20.0939751 0-.0093861.0094414-.0093861.0094414-.0093861 1.641468-3.4810638 4.5377007-6.3111935 8.3489799-7.7074318 5.8111191-2.1320409 14.0468407-.1132011 17.4713021 5.7451917z" fill="#fff"/></g><g><path d="m46.5229301 34.8739014c-.0094414.245285-.0283279.5000153-.0471001.7452469l-.103756.0849266c-1.9245262 2.9999313-4.2735252 6.5281525-5.4999619 9.8677444-6.6143227-4.5592575-8.6505051-13.2060356-5.4338608-20.0939751-.5282326 3.0188179-.7075348 6.113121.1887436 9.0281258.5282326 1.7263947 1.5754814 3.4716187 3.2923775 4.0565643 2.5960733.8992958 6.0224077-1.1130485 7.6035577-3.6886329z" fill="#dde4ee"/></g><g><path d="m40.6681976 45.8727722c-10.7230816-7.3882408-8.8846893-24.100256 3.0048828-28.4541035 5.7509766-2.1035147 14.3193359-.2353516 17.9121094 5.9023438.1005859.1728516.0429688.3955078-.1298828.4970703-.171875.0986328-.3955078.0439453-.4970703-.1298828-3.4082031-5.8232422-11.5585938-7.5908203-17.0351563-5.5878906-11.2133522 4.1051559-13.0143871 19.7449284-3.2216797 26.9062519 1.264164-3.2131233 3.4670448-6.5563316 5.3623047-9.5019531.1083984-.1679688.3349609-.2177734.5019531-.109375.1689453.1083984.2177734.3330078.109375.5019531-1.9198799 2.9838867-4.2522392 6.5145378-5.4599609 9.8017578-.080429.2171631-.3453407.3113785-.546875.1738281z" fill="#2a3134"/></g><g><path d="m42.3638954 34.8699303c.3541451.3206291.7472382.6228104 1.2033195.7288246.4561005.1060181.9878998-.0321083 1.2274742-.4375763.6534386-1.1058922-1.058403-3.8843956-.7078934-5.9206581.0370712-.2153568.1032066-.4402809.2669029-.5762901.2337189-.194191.5771408-.1427021.8744621-.0709267.7105598.1715317 1.4088707.4034119 2.0854607.6924934.4536171.1938133 1.0727997.3700676 1.3402672-.0428009.3868027-.5970726-.5923958-1.2709484-.6007195-1.9979286.575779-.4381962 1.5767784-.3009624 1.8610954-.9811497.245842-.5881405-.2991219-1.2086315-.7945404-1.6167793-1.0618095-.8747635-2.1740723-1.7202988-3.4398689-2.2127132-1.2657928-.4924164-2.7186317-.5973854-3.9142609.0000191-1.257.6280766-2.737442 2.3416672-2.9322357 3.8253174-.204998 1.5613956.664875 3.2370739 1.0265732 4.7223396.3576623 1.4686775 1.4018098 2.8899726 2.5039636 3.8878288z" fill="#dde4ee"/></g><g><path d="m39.7189789 32.3346863c-.6152344-1.430666-1.4121094-3.586916-1.2236328-5.7939472.1894531-2.2460938 1.4423828-4.1289063 3.1904297-4.7978516 1.8291016-.7001953 4.1621094-.0654297 6.2402344 1.7001953.1523438.1298828.1708984.3583984.0410156.5117188-.1289063.1523438-.3583984.1728516-.5117188.0410156-1.8710938-1.5898438-3.9306641-2.1787109-5.5097656-1.5751953-1.4677734.5615234-2.5634766 2.2412109-2.7275391 4.1806641-.1738281 2.0449219.5830078 4.0878906 1.1669922 5.446291.0800781.1845703-.0058594.3974609-.1894531.4765625-.1833573.0802192-.3979225-.004654-.4765625-.1894532z" fill="#2a3134"/></g><g><path d="m87.6179276 15.6627865c-2.0896149 2.8906212-4.190712 5.7811699-6.2687149 8.6717205-.0811996.1044388-.1625366.2089481-.2321167.3134575-3.9759903-.7342892-15.1709595-2.8017883-15.9039764-2.9370308 2.9021683-1.0679779 5.5373611-2.7861118 8.091217-4.5389614 2.4963074-1.7015285 5.2376862-3.6822386 7.0814056-6.175827-.708107 3.0646372-2.1591949 5.9552574-4.190712 8.3466434 4.0165558-.3714867 7.9402924-1.6368637 11.4228974-3.6800022z" fill="#fff"/></g><g><path d="m77.8532181 14.3618946c-.8536758 1.4136848-1.707901 2.8282261-2.6387482 4.192337-.6696243.9813118-1.4000854 1.9567642-2.3923416 2.6100655 1.4186935.2297211 2.8702011.1090183 4.2950897-.0784531 5.6762924-.7468243 6.7643738-2.2898769 7.2757645-2.4452839.0289612.1712551-.2383118.4090538-.3329926.5370655-1.1641769 1.5739326-2.2341385 3.2629547-3.183815 5.0560513 1.9023666-1.7815113 3.3770981-3.8613281 7.0950394-8.7204819-.0117416.0153513-.2723923.0219994-.3133163.0328875-.3183136.0846949-.6423492.3325548-.9570923.448987-3.1873322 1.1790981-6.0909882 2.9241219-9.9734497 3.0368977 1.3717957-2.4895611 1.4715652-1.3221722 3.2585983-5.5166035.2286224-.5366201.4481812-1.0894747.48909-1.6713324.0075073-.1066961-.0339127-.1672792-.1372833-.1114779-1.1324768.6113091-1.3546371.4481611-1.5365524.8010807-.31662.6142283-.5879823 1.2320815-.9479905 1.8282605z" fill="#dde4ee"/></g><g><path d="m80.9015961 24.9372234c-.1621094-.1171875-.1982422-.3447266-.0810547-.5068359l5.5556641-7.671875c-3.1542969 1.6083984-6.6308594 2.6230469-10.1474609 2.9511719-.3447571.0252266-.5112-.3602371-.3105469-.5957031 1.6347656-1.9287109 2.8847656-4.17871 3.6640625-6.5800772-1.7480469 1.9111328-3.8701172 3.4345703-6.0712891 4.9414053-2.5019531 1.7138672-5.1943359 3.4785156-8.1777344 4.5722656-.1855469.0644531-.3974609-.0283203-.4658203-.2158203-.0693359-.1884766.0273438-.3964844.2158203-.4658203 2.9052734-1.0644531 5.5537109-2.8017578 8.0175781-4.4902344 2.6308594-1.8007803 5.1455078-3.6230459 6.9921875-6.093749.2373428-.3134661.7327271-.0794287.6445313.2998047-.6523438 2.8291016-1.9267578 5.5117178-3.7050781 7.8095694 3.6494141-.4619141 7.2275391-1.6777344 10.3994141-3.538085.3424835-.1969843.7053299.212327.4775391.5263672l-6.5009766 8.9765615c-.1190492.1630859-.3448182.1988849-.506836.0810546z" fill="#2a3134"/></g><g><path d="m71.9133148 74.0602722c-.1630859-.1171875-.2001953-.3447266-.0830078-.5068359 2.9527817-4.0179977 2.8009186-4.0880432 3.1240234-4.1113281.0966797-.0009766.2138672.0341797.2871094.1123047l3.3291016 3.4960938c.1386719.1445313.1328125.375-.0126953.5126953-.1445313.140625-.3740234.1337891-.5126953-.0126953l-3.0273438-3.1787109-2.5976563 3.6054688c-.1185989.1640928-.3457794.1994627-.5068359.0830076z" fill="#2a3134"/></g><g><path d="m67.0617523 82.4538269c-.0800781-.1845703.0048828-.3974609.1884766-.4775391 2.8300781-1.2265625 5.1416016-3.6914063 6.1835938-6.5947266.0683594-.1884766.2763672-.2861328.4648438-.21875s.2861328.2753906.21875.4648438c-1.1083984 3.0878906-3.5673828 5.7099609-6.578125 7.0146484-.1824571.0798264-.396988-.0036086-.4775392-.1884765z" fill="#c5d0dd"/></g><g><path d="m82.2805023 81.9069519c-2.6533203-1.4990234-4.9667969-3.6201172-6.6904297-6.1337891-.1132813-.1650391-.0703125-.3916016.0947266-.5048828.1621094-.1132813.390625-.0722656.5048828.0947266 1.6601563 2.4228516 3.890625 4.4667969 6.4482422 5.9111328.1748047.0986328.2363281.3203125.1376953.4951172-.0966721.1695251-.3125992.2383957-.4951172.1376953z" fill="#c5d0dd"/></g><g><path d="m76.6838226 83.3630066c-.0996094 0-.2001953-.0410156-.2714844-.1220703-1.0419922-1.1738281-1.6943359-2.6806641-1.8369141-4.2451172-.0438004-.4726334.6796265-.5540924.7226563-.0664063.1289063 1.4111328.7177734 2.7714844 1.6572266 3.8291016.208786.2364121.0378265.6044922-.2714844.6044922z" fill="#c5d0dd"/></g><g><path d="m99.7360382 76.1639862c-2.3631973 2.5997772-5.0218964 4.8067627-8.1568909 6.645668.0103607-.0724716.0310822-.1345749.0518112-.2070465.7993317-2.9055023.9804382-4.299202-.8178177-6.3972397-1.211174-1.4181595-2.8259506-2.681015-2.9192047-4.4304276-.0725327-1.3974991.8488998-2.7742081 1.045517-4.1613388.2069778-1.5113525-1.3146667-2.4429474-1.0973206-4.0164032.1036148-.7660065.4762573-1.5837555.1657867-2.2773514-.2184448-.4699783-.8662109-1.012043-.4245758-1.5837555.0414429-.0517426.0828934-.1035538.1450577-.1449356.2484283-.1863213.6105804-.2380638.9315414-.196682 1.0863342.1334076 2.2812195 1.4538612 2.2048798 3.07444-.0516815.8384743.2381973 1.6148415.8178177 2.2669868.9568481 1.1162109 1.2707138 2.736496 1.3042984 4.213028.0309601.8488312-.1345749 1.7287521.2277069 2.5051193 1.0151596 2.1473236 5.2528 2.1013947 6.4283905 4.451149.0413209.0931245.0724107.1759569.0930024.2587892z" fill="#71cfff"/></g><g><path d="m90.8131409 76.205368c-1.211174-1.4181595-2.8259506-2.681015-2.9192047-4.4304276-.0725327-1.3974991.8488998-2.7742081 1.045517-4.1613388.2069778-1.5113525-1.3146667-2.4429474-1.0973206-4.0164032.1036148-.7660065.4762573-1.5837555.1657867-2.2773514-.2184448-.4699783-.8662109-1.012043-.4245758-1.5837555.2484207.0621071.5175781.2070427.8281708.4243851.4037247.289875.724556.7246208.7867279 1.2214737.0828934.7142601-.4139633 1.3767738-.4761276 2.1013947-.1449432 1.5527344 1.6251297 2.7224579 1.6665802 4.285553.0205994 1.2318344-1.0662384 2.2669907-1.0971985 3.5091248-.0514984 1.7492675 2.081047 3.1928024 1.5216446 4.9273452z" fill="#4cb1f7"/></g><g><path d="m99.7360382 76.1639862c-.9315338 1.0247879-1.9148788 1.9978333-2.9603958 2.9087753-.1158066-1.2723999.1847839-2.6777573-.6211929-3.6541214-.8487701-1.0351563-2.4739075-1.0040665-3.498703-1.8529053-.8488998-.7038956-1.1387711-1.9047089-1.0145569-2.9916077.0918732-.7862854.481781-2.7229538 1.2215347-2.9915466.3156128 1.9850693-.1186371 2.8630524.3519211 3.8714676 1.0151596 2.1473236 5.2528 2.1013947 6.4283905 4.451149.0413208.0931244.0724106.1759568.0930023.2587891z" fill="#4cb1f7"/></g><g><g><path d="m49.8756485 77.8488312c2.5326843 2.434967 5.3337822 4.458168 8.5853462 6.082077-.1137314-.5353851-1.2430077-2.840126-.7118721-4.714119.6653709-2.3786163 3.6810989-4.0914917 3.6466599-6.5434418-.0216141-1.3992157-1.0335388-2.7108383-1.322998-4.0816116-.3081474-1.4940033 1.1474037-2.5258255.8247375-4.0811005-.1548958-.7573051-.5816841-1.5481415-.3185616-2.2610512.1149063-.298214.3357277-.562088.4401665-.8596573.2333031-.6537743-.3421135-1.1914215-1.2201958-1.0175056-1.0749016.2061615-2.1782799 1.603981-1.9931374 3.2157555.1079521.8331032-.129055 1.6272011-.6635056 2.3168602-.8796196 1.1780243-1.0838089 2.8157501-1.0180283 4.2911911.0261955.848999.2505264 1.7157898-.0587196 2.5147629-.868454 2.2107315-5.0995903 2.4498901-6.114502 4.8733826-.0349654.0956955-.0604094.1804275-.0753897.2644577z" fill="#71cfff"/></g><g><path d="m58.7811279 77.2900543c1.1130638-1.4963913 2.6392555-2.8649826 2.6146545-4.6167068-.0216141-1.3992157-1.0335388-2.7108383-1.322998-4.0816116-.3081474-1.4940033 1.1474037-2.5258255.8247375-4.0811005-.1548958-.7573051-.5816841-1.5481415-.3185616-2.2610512.1863403-.4836044.7961884-1.0680008.3171082-1.6087189-.2436905.0786705-.5024834.2413826-.79776.4791183-.383316.3163681-.6741867.7717056-.7028008 1.2716179-.0346756.7182159.5056076 1.3458138.6163673 2.0646133.2490311 1.5394669-1.4383736 2.8255844-1.3746071 4.3879318.0622902 1.2304306 1.2162781 2.190155 1.3306999 3.4273911.1705019 1.7571259-1.8625334 3.3232194-1.1868399 5.0185166z" fill="#4cb1f7"/></g><g><path d="m49.8756485 77.8488312c.9983482.9598236 2.0449028 1.8645401 3.1493111 2.7031097.0299721-1.2773056-.3644447-2.6592712.3740501-3.6876297.7772369-1.0898895 2.4007835-1.1681671 3.3661728-2.083992.7996368-.7593918 1.0081024-1.9769821.8110771-3.0530701-.1445465-.7783279-.6638069-2.6843872-1.4199524-2.902626-.1814003 2.0018005.3109093 2.8485947-.0907669 3.8863678-.868454 2.2107315-5.0995903 2.4498901-6.114502 4.8733826-.0349655.0956955-.0604095.1804275-.0753898.2644577z" fill="#4cb1f7"/></g></g><g><g><g><path d="m37.4550247 131.0919342c-.440773-1.1814728.1565094-2.4938812 1.3379898-2.9346619 1.1550941-.4459763 2.4675026.1513062 2.9082718 1.3327789.9992294 2.6211243 4.4914207 1.9096527 4.7991867.1341248-.3829346-.1898499-1.0160522-.3970947-1.4912109-.5480347-2.3502693-.7450714-6.2839737-1.9992752-6.2721939-6.3176575.0105896-1.7664108 1.1017876-3.8792572 2.6907005-5.2495041 3.5993576-2.9999619 9.2620544-2.095871 12.0341721 4.1445007.4987602 1.1655121-.0435448 2.4887772-1.2068558 2.9879684-1.1395607.5061722-2.489212-.0413437-2.9667931-1.1752548-.3319702-.7372971-1.524456-2.7983551-2.9933472-3.03125-.7089424-.1125565-1.3327408.0727463-1.8991737.5229874-.7769356.6600189-1.0925789 1.5527802-1.0927696 1.8314972-.0384407 2.3137817 7.5269127 1.4711609 7.7786217 6.0827026.1984024 3.2654266-2.0302467 6.0242462-5.3968391 6.7350464-3.5974236.7645112-6.9860879-1.1558684-8.2297593-4.5152434z" fill="#fdbd4a"/></g></g><g><path d="m42.6603851 135.9967957c-2.5517578-.5039063-4.625-2.2900391-5.5458984-4.7792969-.2470703-.6611328-.2216797-1.3789063.0712891-2.0214844.9677238-2.1264038 4.0365143-2.0351563 4.8554688.1669922.6503906 1.7050781 2.1708984 1.5302734 2.6230469 1.4355469.0556641-.0097656 1.0771484-.2070313 1.4003906-.9716797-2.0879517-.8461456-7.7063446-1.7246552-7.6904297-7.0693359.0107422-1.859375 1.1425781-4.0791016 2.8164063-5.5234375 1.6728516-1.3945313 3.7519531-1.9824219 5.8505859-1.6523438 4.2050781.6347656 6.3632813 5.0458984 6.7529297 5.9238281.9191017 2.1466599-1.239418 4.3559799-3.3994141 3.5029297-.6582031-.2607422-1.1699219-.7587891-1.4414063-1.4013672-.3183594-.7080078-1.4355469-2.6113281-2.7148438-2.8134766-.59375-.0966797-1.1191406.0527344-1.6171875.4482422-.703125.5976563-.9550781 1.3984375-.9550781 1.5478516-.0087891.5039063.3994141.8544922 2.8369141 1.6113281 1.9042969.6005859 4.7802734 1.5078125 4.9404297 4.4511719.2099609 3.4345703-2.1279297 6.359375-5.6835938 7.1103516-1.0754852.2280121-2.1213798.2286224-3.0996094.0341797zm-4.8144531-6.4990235c-.2119141.4658203-.2304688.9863281-.0507813 1.4667969 1.4032211 3.7918243 4.9056931 4.2696838 5.0058594 4.3193359 4.0130119.7991638 8.1816177-2.0751801 7.9179688-6.3896484-.1337891-2.4443359-2.6181641-3.2285156-4.4326172-3.8007813-2.484375-.7714844-3.3632813-1.2363281-3.3466797-2.3095703 0-.3681641.3583984-1.3701172 1.2207031-2.1025391.6669922-.5302734 1.3974609-.7333984 2.1923828-.6044922 1.9238281.3046875 3.2128906 3.1210938 3.2666016 3.2402344.1982422.4697266.5664063.828125 1.0429688 1.0166016 1.5355568.6072998 3.1484833-.9430923 2.4658203-2.5380859-.3603516-.8125-2.3642578-4.9179688-6.1972656-5.4960938-1.8925781-.2978516-3.765625.2333984-5.2705078 1.4882813-1.5205078 1.3115234-2.5507813 3.3115234-2.5595703 4.9726563-.0157204 5.023468 5.6924438 5.615799 7.5605469 6.5380859l.2431641.1201172-.046875.2666016c-.3659668 2.1121216-4.3517036 2.9350433-5.4951172-.0664063-.6117441-1.6379013-2.8304826-1.6292878-3.5166017-.1210938z" fill="#2a3134"/></g></g><g><g><g><path d="m66.7628708 130.0033722c-.6833038 4.5903778-3.8994293 8.0926666-7.7173042 8.5262451-10.7129593 1.2166595-11.3694267-19.5308762.4846458-19.9199142 1.8693581-.0731277 3.5496597.6600494 4.8619537 2.1103287 1.9268418 2.1607665 2.8727112 5.8086624 2.3707047 9.2833404zm-5.8036461-6.203598c-.7181702-.8362885-1.3821411-.5701675-1.6323471-.5720673-5.2416115.5952759-4.8009605 10.6785278-1.1067162 10.7459869 1.6310539.0383606 3.562973-1.6936646 3.9849396-4.6276703.2976112-2.0802917-.2194671-4.4034347-1.2458763-5.5462493z" fill="#fdbd4a"/></g></g><g><path d="m53.1623383 121.2194519c1.6425781-1.8632813 3.8398438-2.890625 6.3564453-2.9726563 1.9560547-.0615234 3.7519531.6933594 5.1425781 2.2304688 2.0107422 2.2539063 2.9755859 6.0126953 2.4609375 9.578125v.0019531c-.7070313 4.7441406-4.0117188 8.3759766-8.0361328 8.8330078-8.3974953.9649353-11.2869225-11.5219879-5.9238281-17.6708984zm6.3828125-2.2470703c-11.348465.3734894-10.7373199 20.3188629-.5410156 19.1972656 3.6982422-.4199219 6.7412109-3.7998047 7.3994141-8.21875.7329711-5.0762176-1.7010728-11.1695328-6.8583985-10.9785156zm-1.3339844 15.3642578c-4.1397324-.0751343-4.6291389-10.8244553 1.0742188-11.4697266l.359375-.0400391c.4130859-.0136719.9980469.0488281 1.5869141.7333984 1.1015625 1.2285156 1.6494141 3.6279297 1.3330078 5.8378906-.3475724 2.4163057-2.0044137 4.9384767-4.3535157 4.9384767zm1.4853515-10.7861328-.3300781.0371094c-4.8627548.5528259-4.3310547 10.0234375-1.0927734 10.0234375 1.4609375 0 3.1816406-1.5996094 3.5722656-4.3164063.2832031-1.9814453-.203125-4.1904297-1.1572266-5.2529297l-.0048828-.0058594c-.2660103-.3096237-.5748062-.5096206-.9873047-.4853515z" fill="#2a3134"/></g></g><g><g><g><path d="m79.6083908 135.6328278c.5914917 1.1407623.1399231 2.5142212-.9736481 3.1069183-1.022728.5654297-2.4985199.2002258-3.1068192-.9759216-.7351456-1.3588867-1.1430969-1.8183136-1.922699-3.1519623-.6719589.0540314-1.3120499.0550232-1.89888.0833588-.138176-.0061646-.2786179-.0124207-.4180069.008606l.0181198 1.478363c-.002655 1.2822418-1.0250168 2.3238678-2.2779083 2.3247833-1.2835541.0267944-2.3238678-1.0250092-2.324791-2.2779083-.0167389-2.1206055-.1464767-6.6974945-.422287-13.6504059-.0404205-.9777527-.0784149-2.0098724 1.0672836-2.7123642l.2587967-.1541519c.6413651-.640976 1.542778-.8527527 2.3686371-.5912628 1.2111435-.1056671 1.3580856-.1346893 1.7324677-.1180115 1.6694336.074379 3.8320923.3364105 5.7997208 1.8176422 3.8448486 2.8760223 4.431366 9.3045807.542099 12.2349396.1048355.1431122.1811752.3144684.2860184.4575958.4176789.6609192.8601151 1.3774109 1.2718964 2.1197815zm-4.8554611-11.1424637c-.7556076-.5647659-1.6631088-.8276215-3.1377335-.8933182l-.0271759-.0012131c-.1002808.0276566-.5444336.0495529-.644783.0552521.0845108 2.4845047.156662 4.634819.2143097 6.4485855.454216-.0671082 2.8533936.1712952 4.0158234-.6290894 1.5279464-1.0733489 1.0128555-3.9136047-.4204407-4.9802169z" fill="#fdbd4a"/></g></g><g><path d="m75.205307 137.9303894c-.6863327-1.2712555-1.0990295-1.7611694-1.7978516-2.9404297-.3291473.0215759-1.6511154.069809-1.7519531.0654297l.0146484 1.1220703c-.0064392 2.4510193-2.8925858 3.538681-4.5292969 1.9394531-.5087891-.4970703-.7998047-1.1845703-.8007813-1.8876953-.0185547-2.3681641-.171875-7.3398438-.4208984-13.6357422-.0410156-.9892578-.0917969-2.2197266 1.2402344-3.0371094l.2636719-.15625c.6376953-.6533203 1.6503906-.9150391 2.5908203-.6474609 1.064003-.0920868 1.3016586-.1318207 1.7099609-.1123047 1.7275391.0761719 3.9697266.3603516 6.0019531 1.8896484 3.918541 2.9312286 4.6216125 9.4214172.8027344 12.609375.1124115.1907501.7478485 1.1472168 1.3974609 2.3173828l.0048828.0087891c.6708984 1.2949219.1660156 2.9072266-1.125 3.5947266-1.1657179.6454773-2.882614.2590485-3.6005858-1.1298828zm-1.4013672-3.6982422c.977623 1.6312561 1.4290237 2.2234039 2.0429688 3.3583984.3173828.6132813.9375 1.0097656 1.6220703 1.0410156 1.5585327.0521393 2.4901352-1.5262909 1.8193359-2.828125-.4987488-.8982086-1.4814987-2.4665222-1.53125-2.5332031l-.2119141-.2890625c.0989151-.1174469 2.7102966-1.5870209 2.7802734-5.3623047.0634766-2.5673828-1.0996094-5.0605469-3.0351563-6.5078125-1.8740234-1.4101563-3.9755859-1.6738281-5.5986328-1.7460938-.3410034-.0163116-.5310898.0162277-1.7558594.1240234l-.0693359-.0224609c-.7128906-.2246094-1.4609375-.0380859-2.0019531.5029297l-.3310547.2089844c-.9628906.5908203-.9287109 1.4228516-.8896484 2.3857422.25 6.3037109.4042969 11.2832031.4228516 13.6621094 0 .5107422.2119141 1.0097656.5810547 1.3710938 1.2296066 1.2037201 3.2927704.3151703 3.2958984-1.4160156l-.0224609-1.7880859.3115234-.0478516c.1611328-.0263672.3212891-.0214844.4765625-.0136719.1923828-.0097656.4121094-.0166016.6376953-.0234375.3925781-.0117188.8046875-.0244141 1.2294922-.0585938zm-2.9960937-3.7158203c-.0865555-2.6240005-.0149841-.5459137-.2392578-7.2089844.1374969-.0087662-.0644455.0087738.8212891-.0527344.0413971-.0030289.208107-.0199203.2236328-.0214844 1.5644531.0703125 2.53125.3496094 3.3564453.9658203 1.5995026 1.1911163 2.1763306 4.3319855.4111328 5.5683594-1.2797852.8821106-3.7420502.6295166-4.171875.6914063zm.7011718-.7910156c.9909134.0210876 2.6540451.0010376 3.4580078-.5537109 1.287735-.9022064.8251953-3.4550552-.4306641-4.390625-.6982422-.5214844-1.5498047-.7597656-2.9365234-.8212891.0420761.006012-.2390366.0243835-.28125.0292969.0732422 2.1757812.1376954 4.0888671.1904297 5.7363281z" fill="#2a3134"/></g></g><g><g><g><path d="m95.1367493 134.0271606c.7549438 1.0398254.513176 2.4652557-.4995956 3.2173462-.927002.7115784-2.4407425.5704651-3.2175827-.5018463-.3897552-.5174866-.8389816-1.0583191-1.3175125-1.5960846-.3481903-.382782-.6994629-.7948761-1.0535965-1.2340393-.656395.1536255-1.2891846.2500153-1.8652344.3655243-.1375504.0145111-.277359.0292511-.4120483.0708313l.2383041 1.459137c.18853 1.2682953-.6671219 2.4506989-1.9058762 2.6383972-1.265213.2178345-2.4506989-.6671295-2.6383972-1.9058838-.3326874-2.0944214-1.1432953-6.6008148-2.4525681-13.434906-.18573-.9608078-.3771667-1.9757309.651001-2.8411636l.2329254-.1910172c.5386429-.7294312 1.3984146-1.0732193 2.2540207-.937767 1.1818542-.2850418 1.3228378-.3356476 1.6955185-.3749695 1.6618652-.1753311 3.8394241-.2386398 6.0058823.9327087 4.2306366 2.2706985 5.7689667 8.5399704 2.3600159 12.0174026.0751113.0756379 1.2907943 1.4928285 1.9247436 2.31633zm-6.4623185-10.2941131c-.8313522-.4458008-1.7678986-.5704346-3.2358398-.4155579l-.0270615.0028534c-.1006622.0447998-.5291824.1297913-.6293335.1507568.453949 2.4441452.845871 4.5596771 1.1732635 6.344574.4391327-.1340637 2.8470459-.2559967 3.8771667-1.2207336 1.3508531-1.2891388.4180986-4.020874-1.1581954-4.8618927z" fill="#fdbd4a"/></g></g><g><path d="m82.1056976 136.5954285c-.3720703-2.3447266-1.265625-7.2382813-2.4492188-13.421875-.1875-.9716797-.421875-2.1816406.7734375-3.1865234l.203125-.1660156c.5947266-.7792969 1.5429688-1.1748047 2.5-1.0546875 1.0108414-.2425995 1.2526321-.3225784 1.6748047-.3671875 1.7246094-.1806641 3.9824219-.2324219 6.2167969.9746094 4.3133011 2.3165665 5.9715271 8.6286926 2.6728516 12.3486328.0007019.000885.9882202 1.1216278 1.7275391 2.0830078l.0058594.0087891c1.1616211 1.6000366.2343903 3.992218-1.8867188 4.21875-.9404297.1015625-1.8652344-.3134766-2.4189453-1.0771484-.3652344-.4853516-.8027344-1.0146484-1.2949219-1.5683594-.3027344-.3339844-.6113281-.6923828-.921875-1.0712891-.3088303.0677643-1.6200256.3159485-1.7216797.3251953l.1806641 1.1083984c.2197266 1.46875-.7714844 2.8378906-2.2089844 3.0556641-1.4522705.2500609-2.8335495-.7690583-3.0527344-2.209961zm-.9169922-16.3056641-.0625.0654297-.2333984.1904297c-.8642578.7275391-.7060547 1.5449219-.5234375 2.4902344 1.1855469 6.1923828 2.0800781 11.0927734 2.4541016 13.4482422.078125.5117188.3544922.9619141.7792969 1.2685547 1.3480148.971817 3.311615-.1230011 3.046875-1.890625l-.2880859-1.765625c.3163528-.082962-.1327972-.0173187 1.390625-.2949219 1.0956955-.1982117 1.2022629-.244278 1.4345703-.2939453l.1435547.1767578c.9570465 1.1869507 1.4355392 1.586853 2.3789063 2.8398438.4052734.5585938 1.0722656.8652344 1.7587891.7861328 1.5260315-.16185 2.2437439-1.8668671 1.3779297-3.0664063-.6281891-.8167572-1.5999908-1.9636078-2.1435547-2.53125.0687866-.1122284 2.4400558-1.9804993 1.9492188-5.7167969-.3203125-2.5478516-1.8427734-4.8398438-3.9716797-5.9833984-2.046875-1.1064453-4.0761719-1.0722656-5.7958984-.890625-.3469772.0353088-.5464706.1010361-1.71875.3837891l-.0712891-.0117188c-.7178957-.1130066-1.4393618.1637573-1.9052737.7958984zm4.4833985 9.9931641c-.4245071-2.2975006.041832.2035217-1.3115234-7.0947266l.6230469-.1289063c.0371094-.0136719.1113281-.03125.1796875-.0458984.0687714-.0154724.1351471-.0347443.2089844-.0546875 1.5712891-.1611328 2.5673828-.0322266 3.4736328.4550781 1.7573929.9365921 2.7981644 3.9571304 1.2363281 5.4433594-1.1298599 1.0606537-3.6061554 1.181366-4.0205078 1.3056641zm-.46875-6.5332032c.3974609 2.1396484.7460938 4.0214844 1.0439453 5.6435547.0458984-.0048828.0917969-.0107422.1386719-.015625 1.2910156-.2158203 2.53125-.4228516 3.1982422-1.0478516 1.1417313-1.0898361.2951889-3.542038-1.0810547-4.2763672-.7675781-.4121094-1.6435547-.5234375-3.0263672-.375.0068359.0068359-.0761719.0253906-.1572266.0439453-.0361328.0078126-.0761719.0166017-.1162109.0273438z" fill="#2a3134"/></g></g><g><g><g><path d="m104.6435699 136.5891418c-1.1142502.2819672-2.2730789-.2921906-2.7195358-1.3671722-.3205032-.8270721-1.4094162-4.540451-2.0312576-6.2012482-1.3403931.0775604-2.7036285-.2704468-4.0197754-1.0098419-1.8669281-1.0903015-2.6223755-3.0417023-3.1845474-4.4621735l-.0274658-.1085434c-.1635971-.4229431-.3355789-.8696899-.4460068-1.3060913-1.1123734-2.2212219.6561966-3.965538 2.4335251-3.6564331 1.0274506.1760559 1.7580566 1.0047073 1.8899994 1.9824982.0473251.0752335.074791.1837845.1022568.2923279.0829697.3278503.2014542.6749954.34375 1.0137634l.0274734.1085434c.3221207.8165283.7279816 1.8428574 1.2054138 2.127449.4080429.2432327 1.6637344.9672928 3.0824356-.4029007 1.1865997-1.1417465 1.9426422-3.4167175 1.0611267-5.0745773-.603981-1.1199722-.1785278-2.5310974.942009-3.1328583 1.1227493-.6023254 2.5310898-.1785278 3.1356277.9436646 1.7585297 3.2885818.9391861 7.8376312-1.9236832 10.58918-.1166.1167145-.2315445.2306595-.3526611.3202362.7729874 1.8870697 1.81633 5.6835022 2.0718536 6.2499084.4739227 1.1835327-.1146851 2.5180817-1.2914886 3.0185852z" fill="#fdbd4a"/></g></g><g><path d="m101.5890961 135.36203c-.3362885-.8681946-1.2755508-4.0961456-1.9462891-5.96875-1.3193359.0283203-2.6455078-.3339844-3.9472656-1.0664063-1.9619141-1.1445313-2.7509766-3.1425781-3.3271484-4.6005859l-.0585938-.1972656c-.1386719-.3486328-.328125-.8359375-.4462891-1.3056641-1.1929398-2.351532.7388992-4.4734039 2.8476563-4.1035156 1.1269531.1933594 1.9951172 1.0830078 2.1767578 2.2236328.1255722.2608032.090744.4738083.4316406 1.2822266l.0439453.1601563c.2578125.6435547.6679688 1.6835938 1.0400391 1.9052734.6054688.3613281 1.5390625.7138672 2.6445313-.3525391 1.1064453-1.0644531 1.7685547-3.1835938.9921875-4.6425781-.3369141-.625-.4091797-1.3486328-.203125-2.0351563.6879578-2.2812881 3.7962723-2.587677 4.9208984-.4970703 1.7968903 3.3594894 1.0802994 8.1658936-2.1621094 11.1884766.7952652 2.0449524 1.7447357 5.4953308 1.96875 5.9941406.5458984 1.359375-.1210938 2.9238281-1.4804688 3.5009766l-.3515625.09375c-1.310379.3304443-2.6290054-.3397217-3.1435546-1.5791016zm-1.4501953-6.7197265.09375.2509766c.6137695 1.6408691 1.7109299 5.372818 2.0302734 6.1982422.3740234.9013672 1.3388672 1.3867188 2.2919922 1.1464844l.2978516-.0761719c.9462891-.40625 1.4375-1.5498047 1.0439453-2.5322266-.1239319-.2732086-.4268417-1.3160858-.6669922-2.0585938-1.2773056-4.1065979-1.3733749-4.0687637-1.5097656-4.4492188 3.2357941-2.6031723 4.1613235-7.3191376 2.3984375-10.6152344-.5087891-.9453125-1.6953125-1.3017578-2.6435547-.7939453-.9455338.5071106-1.3029861 1.695343-.7949219 2.640625 1.5329742 2.8791885-1.3745728 7.9117126-4.6484375 5.9609375-.5839844-.3486328-.9951172-1.3886719-1.3574219-2.3066406l-.0410156-.1523438c-.3130493-.7181778-.3402023-1.1020279-.4023438-1.2021484l-.0517578-.1445313c-.1162109-.8574219-.7558594-1.5292969-1.5917969-1.6738281-1.5204544-.2608719-3.0131912 1.2086716-2.0478516 3.1376953.1357422.4990234.3154297.9638672.4609375 1.3369141l.0400391.1503906c.5410156 1.359375 1.2763672 3.2216797 3.015625 4.2373047 1.2626953.7099609 2.5527344 1.0302734 3.8154297.9609375z" fill="#2a3134"/></g></g></g></svg>