<svg id="Layer_1" enable-background="new 0 0 150 150" viewBox="0 0 150 150" xmlns="http://www.w3.org/2000/svg"><g id="_x38_3"><g opacity=".2"><g><path d="m54.2720451 81.4671555-18.7645836 6.489685 6.9396706-17.0300903-16.8121452-5.5710221 14.8271103-10.9476242-8.7939396-15.0082702 17.3244037 4.0981254-1.7461967-25.2292919 16.6979828 9.4091606 8.1509895-15.0397768 7.7606125 17.6417742 15.8226089-12.1678238-2.3760833 16.4019299 17.0153808-2.450306-8.1444244 14.7947159 15.9309463 1.8791924-11.8734283 9.367836 11.3338089 10.795166-15.5679169 2.6513595 1.9447937 17.8087006-16.6973495-9.4329147-8.0713577 12.0645752-7.8822022-13.3127137-9.6866341 18.347786z" fill="#fc5d59"/></g></g><g><path d="m138.9775848 29.9335041c-.2433929 2.7585812-2.352951 5.2534084-5.0302582 5.9431019 1.3283539.4221191 2.2741394 2.0089378 2.3224945 3.2352142.0809631.8721733-.1725769 1.7646484-.7101135 2.4644318-1.1966553 1.5313492-3.5597534 1.8153458-5.2939606.9431725-1.7341919-.8721733-2.8600311-2.677433-3.346817-4.553627-3.1437836 1.703804-6.4601517 2.4644318-9.9084854 3.4279099 1.8966217-3.2758217 4.1886597-6.3284912 6.7951584-9.0768585-1.3692322-.649086-2.7889786-1.5821075-3.6003647-2.8599758-.8215408-1.2880192-1.1763535-2.8904285-.7809372-4.3609295.9475327-3.4920311 5.3292313-4.7098656 8.4682007-.3549976 1.9067688-1.9978924 4.6348419-2.6672802 7.1499634-1.5212593 2.5252838 1.1358679 4.1683655 3.9552973 3.9351196 6.7138174z" fill="#fff"/></g><g><path d="m136.2698212 39.1118202c.0809631.8721733-.1725769 1.7646484-.7101135 2.4644318-1.1966553 1.5313492-3.5597534 1.8153458-5.2939606.9431725-1.7341919-.8721733-2.8600311-2.677433-3.346817-4.553627-3.1437836 1.703804-6.4601517 2.4644318-9.9084854 3.4279099 1.8966217-3.2758217 4.1886597-6.3284912 6.7951584-9.0768585-1.3692322-.649086-2.7889786-1.5821075-3.6003647-2.8599758-.8215408-1.2880192-1.1763535-2.8904285-.7809372-4.3609295.1926346-.7099342.5680008-1.379324 1.0852356-1.9168034.2230911 1.8458023.2738495 3.2453671 1.703743 4.715868 1.6024704 1.6531067 3.8336029 2.5050392 5.9936752 3.3062134-1.1661987 1.6024094-2.342804 3.1946678-3.5090027 4.7970772 1.6430817-.0203018 3.2859116-.0406036 4.9289856-.0507545-.0812073 1.7849541 1.1865082 3.5496025 2.910553 4.0466003 1.2778625.3650854 2.7181549-.0101511 3.7323303-.8823244z" fill="#dde4ee"/></g><g><path d="m98.6750565 136.981369c3.3476105-13.2037354 2.9408417-27.5694427-1.2204056-40.4375839-.8015747-2.5048294-1.5059052-6.7883148-4.1254501-7.6749573-1.3093719-.4431839-2.7068405.1003876-4.0129013.5703049-6.2457123 2.2471924-12.944664 2.890419-19.4283752 1.8655014-3.8293533-.6053314-7.5620461-1.7785873-11.3054047-2.8536148-1.8244934-.5239639-3.9152069-.9789352-5.4769478.209343-1.5548096 1.1830521-2.5855064 4.1929474-3.2997398 6.079689-4.703186 12.1062393-6.0177727 25.7935638-3.8185577 38.7163239" fill="#fff"/><path d="m98.6751251 137.3619537c-.2474976 0-.4292526-.2333221-.3681641-.4736328 3.3417969-13.1840897 2.9111328-27.4702225-1.2148438-40.2275467-.7790833-2.449707-1.4890823-6.6204605-3.8847656-7.4316406-1.1308594-.3823242-2.3847656.0703125-3.5996094.5092773l-.1621094.0585938c-6.2978516 2.2646484-13.0810547 2.9169922-19.6171875 1.8833008-3.6915894-.5837402-7.4163208-1.7192688-11.3515663-2.8637695-1.7392578-.5004883-3.7138672-.9404297-5.140625.1464844-1.4619827 1.1124039-2.4893684 4.0800095-3.1748047 5.9116211-4.6435547 11.9526367-5.9921875 25.6308594-3.7988281 38.5175858.0351563.2070313-.1044922.4038086-.3115234.4389648-.2089844.0385742-.4033203-.1044922-.4384766-.3110352-2.2158203-13.0205154-.8525391-26.8418045 3.8388672-38.9179764l.171875-.4589844c2.1027756-5.6162872 3.4023056-7.6812363 9.0644531-6.0581055 3.8156471 1.109993 7.6110573 2.2670059 11.2597694 2.8442383 6.40625 1.0126953 13.0634766.375 19.2402344-1.8481445 1.3900223-.5018234 2.8479614-1.0511551 4.2636719-.5727539 2.8310547.9585266 3.5322876 5.3194733 4.3652344 7.9194336 4.1679688 12.890625 4.6044922 27.3266602 1.2265625 40.6469803-.0429687.1723632-.1982421.2871093-.368164.2871093z" fill="#2a3134"/></g><g><g><path d="m86.888176 94.5769577-5.1445999 9.1319199c-.0671082-.1002502-4.6973267-7.0167007-4.6294708-6.9158783 2.9014281-.2361451 6.4321365-.982071 9.7740707-2.2160416z" fill="#fff"/></g><g><path d="m86.888176 94.5769577-5.1445999 9.1319199-1.2073975-1.8176727c.7345123-1.2144012 1.2832031-2.5473328 1.5897827-3.9081345.0764008-.3550262.1055145-.810997-.2071762-.9606018-.1271591-.0547943-.2996597-.0322723-.4605179.0006332-1.1836548.2140045-2.3542786.557251-3.5005035 1.0162048l-.8436584-1.2463074c2.877716-.2342147 6.3918456-.9671935 9.7740707-2.2160415z" fill="#dde4ee"/></g><g><path d="m81.7434845 104.0894852c-.1269531 0-.2460938-.0634766-.3164063-.1699219l-4.6279297-6.9135742c-.1627655-.2420273-.0032425-.5688858.2841797-.5917969 2.8890915-.2368088 6.3911209-.9816437 9.6728516-2.1943359.3338852-.1214142.6351852.2376328.4628906.543457l-5.1445313 9.1323242c-.0644531.1152344-.1845703.1884766-.3173828.1933594-.0048827.0004883-.008789.0004883-.0136718.0004883zm-3.9570313-6.9814453 3.9306641 5.8735352 4.3417969-7.7070313c-2.8092728.9542846-5.3950348 1.5018615-8.272461 1.8334961z" fill="#2a3134"/></g><g><path d="m72.4744415 96.8988724c-.4868698.9590378 1.7637177-3.4741669-4.7615967 9.3793945l-6.5521431-11.7933884c.2857513.1304474.7652893.2945404.7984505.3241196.3868828.1279831 1.4046097.5345612 2.8898315.9316101 1.9594193.5243912 4.2993088.9885712 6.8304749 1.1192627.0463181.0177765.1037292.0102844.149765.0042725.218956.0189819.4263993.0276336.6452179.034729z" fill="#fff"/></g><g><path d="m65.3048019 97.2994385c-.2727585.3092651-.1866379.7740097-.0673828 1.1391525.6288757 1.8165894 2.3982773 4.059227 4.332695 4.1702728l-1.8572693 3.6694031-6.5521431-11.7933884c.2857513.1304474.7652893.2945404.7984505.3241196.3868828.1279831 1.4046097.5345612 2.8898315.9316101 2.2597961.6047821 3.8468246.8492432 5.6547165 1.0229187l-.0887451.2971497c-1.2855759.3462753-2.6327286.3675156-3.8682556.0766373-.415863-.1004029-.9236603-.2007218-1.2418976.1621246z" fill="#dde4ee"/></g><g><path d="m67.3850861 106.462532-6.5517616-11.793457c-.1778297-.3187943.1559525-.6825027.4902344-.5307617.4546242.2087555 1.6549263.634407 2.1279297.7871094 2.8992195.9275284 5.7430229 1.4743729 9.0322304 1.5961914.2751312.0093155.4518509.3021011.3251953.5522461l-4.7529297 9.3759766c-.1387864.2743682-.5259858.276947-.6708985.0126952zm-5.370121-11.2314453 5.6865273 10.2358398 4.1640625-8.2143555c-.0214844-.0014648-.0419922-.0029297-.0634766-.0043945-.015625.0097656-.1113281.0058594-.2070313-.0141602-2.1909332-.1239166-4.4968109-.4879379-6.8505859-1.1254883-1.5356865-.4282149-2.6058884-.8365019-2.729496-.8774413z" fill="#2a3134"/></g><g><path d="m79.4696808 100.2932129-2.5228729 3.8633423-4.9673309.648468-1.9140472-3.1770706c.0531387-.1043243 2.5667725-5.0387802 2.4090118-4.7290802 1.5722504.0758438 3.046936.0431595 4.6396637-.1058731z" fill="#71cfff"/></g><g><g><path d="m79.4696808 100.2932129-2.5228729 3.8633423-3.4034424.4443054c1.3802795-1.1201935 2.5140076-2.6485291 2.9660416-4.3615341.2817078-1.1237183-.1758347-1.3946075-1.2954407-1.4848022-1.1183472-.1039124-2.2049484-.4498901-3.1671677-1.0144424l.4276428-.8412094c1.5722504.0758438 3.046936.0431595 4.6396637-.1058731z" fill="#4cb1f7"/></g></g><g><path d="m71.6595001 105.0001297-1.9160156-3.1704102c-.0683594-.1123047-.0732422-.2519531-.0136719-.3691406l2.4013672-4.7314453c.0673828-.1333008.1689453-.2270508.3574219-.2075195 4.1345139.1980057 4.6503143-.3761673 4.9423828.0600586l2.3515625 3.5058594c.0849609.1269531.0869141.2919922.0029297.4199219-2.6132355 3.9184189-2.4615021 3.9833755-2.7851563 4.0249023l-4.9667969.6479492c-.1374664.0202179-.2918472-.0441742-.3740234-.1801758zm-1.15625-3.3833008 1.6787109 2.7773438 4.546875-.5932617 2.2822266-3.4985352-2.0878906-3.112793c-.2317963.0112381-1.9061584.1959457-4.2246094.1025391z" fill="#2a3134"/></g><g><path d="m80.7858734 124.240799-2.9273605 3.737709-.0568542.0669022-3.364563 5.2245178-6.8121033-7.8940735c.447197-2.1138916-1.3083801 6.1845856 4.3543472-20.5827255l4.9673309-.6484604z" fill="#71cfff"/></g><g><path d="m80.7858734 124.240799-2.9273605 3.737709-3.4214172 5.29142s2.1542587-7.2916412 2.5420914-8.5916672c1.3967514-4.6444931.3164825-9.3820724-.9322586-13.7526016-.3242188-1.147583-.6718674-2.3159332-1.3050308-3.2923126-.6331635-.9644699-1.5867844-1.7561569-2.7513123-1.877861l-.218544.0166168.2072983-.9789734 4.9673309-.6484604z" fill="#4cb1f7"/></g><g><path d="m74.4368439 133.650528c-.1103516 0-.2158203-.0478516-.2880859-.1318359-7.0557556-8.2658997-6.9703064-7.8727417-6.8964844-8.2241287l4.3544922-20.574707c.0332031-.1582031.1630859-.277832.3232422-.2983398l4.9677734-.6484375c.2050781-.0322266.3847656.1088867.4228516.3056641 4.0244064 21.304657 3.9530182 20.1325455 3.7763672 20.3857422l-6.3486328 9.0244217c-.0683594.0957031-.1757813.1552734-.2929688.1611328-.0058594.0004881-.0126954.0004881-.0185547.0004881zm-6.4013672-8.3828202 6.3710938 7.3847733 5.9746094-8.49366-3.7412109-19.5854492-4.3447266.5673828z" fill="#2a3134"/></g></g><g><path d="m132.3548126 43.3873405c-2.7704468 0-4.8302307-2.1979027-5.6689453-4.8652344-3.0598145 1.5760231-6.2314529 2.3051186-9.5771484 3.2402344-.3253937.0925102-.6027679-.2603722-.4316406-.5571289 1.8339844-3.1542969 4.0195313-6.1035156 6.5009766-8.7734375-1.5175781-.7890644-2.6259766-1.7211933-3.2978516-2.774416-.9257813-1.449707-1.2265625-3.1469727-.8261719-4.65625.4375-1.6542969 1.7822266-2.9951172 3.34375-3.3369141 1.6778183-.36726 3.7763748.264986 5.5341797 2.4985352 2.046875-1.9106445 4.7939453-2.4116211 7.2685547-1.2915039 2.6601563 1.203125 4.4082031 4.1870117 4.1552734 7.0947266-.2246094 2.5986347-2.0332031 4.9829121-4.4326172 5.9799824.8085938.5800781 1.3339844 1.4995117 1.5800781 2.2919922.7852478 2.5346031-1.0509186 5.149414-4.1484375 5.149414zm-5.0644531-5.5161132c.515625 1.9868164 1.6630859 3.5566406 3.1494141 4.3061523 1.6826172.847168 3.796875.4780273 4.8154297-.8388672.6230469-.8027344.8222656-1.9042969.5214844-2.875-.2675781-.8618164-.9179688-1.8999023-1.9433594-2.2285156-.361496-.1161194-.3464508-.6362991.0214844-.7304688 2.5234375-.6508789 4.5185547-3.0078125 4.7431641-5.6040058.2255859-2.597168-1.3349609-5.2617188-3.7109375-6.3359375-2.2998047-1.0424805-4.8759766-.4912109-6.7226563 1.4375-.1597443.1688499-.4434052.1548538-.5830078-.0410156-.6650391-.9243164-1.4052734-1.6181641-2.1992188-2.0610352-.9072266-.5063477-1.9365234-.6870117-2.8222656-.4926758-1.2900391.2822266-2.4042969 1.402832-2.7714844 2.7885742-.3398438 1.2851563-.0664063 2.7998047.7324219 4.0522461.6611328 1.0356445 1.8212891 1.9536133 3.4472656 2.7280273.2304077.1090908.2933273.4144802.1123047.6049824-2.3701172 2.4975586-4.4746094 5.2514648-6.2646484 8.1967773 3.1238174-.8533363 6.0944214-1.6091232 8.9248047-3.1455078.2206954-.1179579.4887313.0026399.5498046.2387697z" fill="#2a3134"/></g><g><path d="m11.0226097 34.287571c.243391 2.7585793 2.3529501 5.2534065 5.0302582 5.9430962-1.9809647.629509-3.1804018 3.6583633-1.6123772 5.6996498 1.1966543 1.5313492 3.5597572 1.8153458 5.2939529.9431725s2.8600368-2.677433 3.3468189-4.553627c3.1437874 1.703804 6.4601536 2.4644318 9.9084873 3.4279099-1.8966198-3.2758217-4.1886616-6.3284912-6.7951546-9.0768585 1.3692322-.649086 2.7889748-1.5821075 3.6003628-2.8599777 3.4331989-5.3826065-3.1281452-11.041048-7.6872616-4.7159271-1.9067726-1.9978905-4.6348381-2.6672783-7.1499672-1.5212593-2.5252808 1.1358697-4.1683596 3.9552991-3.9351195 6.7138212z" fill="#fff"/></g><g><path d="m13.7303715 43.4658813c-.080965.8721733.1725779 1.7646523.7101192 2.4644356 1.1966543 1.5313492 3.5597572 1.8153458 5.2939529.9431725s2.8600368-2.677433 3.3468189-4.553627c3.1437874 1.703804 6.4601536 2.4644318 9.9084873 3.4279099-1.8966198-3.2758217-4.1886616-6.3284912-6.7951546-9.0768585 1.3692322-.649086 2.7889748-1.5821075 3.6003628-2.8599777 1.2727222-1.9953861 1.3376617-4.5715122-.3043003-6.2777309-.2230892 1.8458023-.2738476 3.2453651-1.7037411 4.715868-1.6024723 1.6531067-3.8336029 2.5050392-5.9936733 3.3062134 1.1662006 1.6024094 2.3427982 3.1946678 3.5089989 4.7970772-1.6430798-.0203018-3.2859097-.0406036-4.9289894-.0507584.081213 1.7849541-1.1865025 3.5496063-2.9105473 4.0466042-1.2778663.3650854-2.7181605-.0101549-3.732334-.8823283z" fill="#dde4ee"/></g><g><path d="m17.6458263 47.7408562c-3.0806065 0-4.9357042-2.6038322-4.1494141-5.1484375.2460938-.7929688.7714844-1.7124023 1.5810547-2.2924805-2.4003906-.9970703-4.2089844-3.3813477-4.4335938-5.9799805-.2509766-2.9077168 1.4960938-5.8911152 4.1542969-7.0947285 2.4775391-1.1196289 5.2236328-.6201172 7.2705078 1.2915039 1.7446404-2.2213879 3.8448257-2.8665504 5.5341797-2.4985352 1.5605469.3413086 2.9042969 1.6821289 3.34375 3.3369141.4003906 1.5097656.0996094 3.2065449-.8261719 4.6562519-.671875 1.0527344-1.7802734 1.9848633-3.2988281 2.7744141 2.484375 2.6723633 4.6699219 5.621582 6.5009747 8.7734375.1712379.2969513-.1065216.6500206-.4316406.5571289-3.3357773-.9337616-6.5091095-1.660553-9.5771465-3.2402344-.8370648 2.666256-2.8960362 4.8647462-5.6679688 4.8647462zm-2.5341796-19.8222676c-2.3740234 1.0742188-3.9345703 3.7392578-3.7099609 6.3359394.2246094 2.5961914 2.2197266 4.953125 4.7441406 5.6040039.3678074.0941391.3830643.6143227.0214844.7304688-1.6853752.539608-2.8787766 3.2247543-1.4228516 5.1035156 1.0205078 1.3164063 3.1337891 1.6860352 4.8164063.8383789 1.4863281-.7495117 2.6337891-2.3188477 3.1484375-4.3051758.0606632-.2345657.326683-.3581886.5498047-.2392578 2.8486977 1.5463753 5.8264732 2.295723 8.9248028 3.1455078-1.788084-2.9433594-3.8925762-5.6967773-6.2646465-8.1967773-.1813316-.1908188-.117775-.4960518.1123047-.6049805 1.6269531-.7749023 2.7871094-1.6928711 3.4482422-2.7280273 2.5722027-4.03125-.9317894-8.5384808-4.8613281-6.3476582-.7949219.4428711-1.5351563 1.1362305-2.1992188 2.0600586-.1355.1911163-.4166183.2151756-.5830078.0415039-1.8530866-1.9355754-4.4314977-2.4750671-6.7246095-1.4375z" fill="#2a3134"/></g><g><path d="m101.1463242 53.9171677c8.2000656 16.1729736.188179 36.0667343-17.5489578 42.1897507-.1394501.0506744-.278862.101387-.424614.1457596l-.00634.00634c-19.9608192 6.5591202-41.1060448-7.8712692-41.1060448-28.8553467 0-4.8673134 1.1724892-9.4684563 3.2575607-13.5499039-4.7849197-.8619118-8.3973885-4.8292885-8.3973885-9.5825272 0-5.3870049 4.6391678-9.7599602 10.3620872-9.7599602 4.6264763 0 8.5431404 2.8582458 9.8740311 6.8002853 9.9337807-5.8528328 22.5379906-5.8204117 32.4804726.2218056 1.2548752-4.056076 5.0084763-9.0549469 9.7236862-9.0549469 5.7229233 0 10.5821762 6.4058113 10.5821762 11.7928162.0000001 4.8863449-3.8152847 8.9361115-8.7966689 9.6459275z" fill="#fff"/></g><g><path d="m104.3658218 67.4036713c0 13.2520523-8.669899 24.5267181-20.7684555 28.7032471-.1394501.0506744-.278862.101387-.424614.1457596l-.00634.00634c-19.9608192 6.5591202-41.1060448-7.8712692-41.1060448-28.8553467 0-2.1674652.2345276-4.2905655.6781349-6.3313103.2217484 20.9056358 21.3116074 35.028141 41.0996933 28.5257759l.0063477-.00634c.145752-.0443649.2851639-.0950775.424614-.145752 10.1148682-3.4920578 17.8341599-11.9465027 20.0903625-22.3719025.0063019.1077271.0063019.2218018.0063019.3295289z" fill="#dde4ee"/></g><g><path d="m73.2659454 66.609993c-.0019531 0-.0029297 0-.0048828 0-.2099609-.0029297-.3779297-.175293-.375-.3852539l.0703125-5.3862267c.0073853-.5308609.76651-.4736519.7597656.0097656l-.0703125 5.3862267c-.0019531.2084961-.171875.3754883-.3798828.3754883z" fill="#2a3134"/></g><g><path d="m54.7581291 43.8790398c-.1669922-.1274414-.1992188-.3657227-.0722656-.5332031.7705078-1.0117188 1.7177734-1.8789063 3.0712891-2.8115234.1728516-.1176758.4082031-.0766602.5292969.097168.1191406.1728516.0751953.409668-.0976563.5288086-1.2841797.8852539-2.1777344 1.7011719-2.8974609 2.6464844-.1255417.1638602-.3614464.2016867-.5332032.0722655z" fill="#2a3134"/></g><g><path d="m91.9759064 43.851696c-.9511719-.9038086-2.5380859-1.9936523-2.5537109-2.0043945-.1738281-.1191406-.2177734-.3554688-.0986328-.5288086.1181641-.1733398.3554688-.2172852.5283203-.0991211.0673828.0458984 1.6523438 1.1352539 2.6474609 2.081543.1523438.1445313.1582031.3852539.0136719.5375977-.1436692.1521682-.3860703.158184-.5371094.0131835z" fill="#2a3134"/></g><g><path d="m75.4114532 52.6490593c-.1914063-.0869141-.2763672-.3125-.1884766-.5039063 1.1015625-2.4208984 2.7324219-4.6362305 4.7158203-6.40625.15625-.1411133.3974609-.1259766.5371094.0302734.1396484.1567383.1259766.3974609-.03125.5371094-1.9042969 1.7006836-3.4707031 3.8286133-4.5302734 6.1542969-.0887909.1960144-.3184967.2736016-.5029297.1884766z" fill="#dfe5ed"/></g><g><path d="m72.3997345 50.3663445c-.1347656-.9628906-.0009766-1.9428711.3867188-2.8330078.0839844-.1928711.3095703-.2802734.5-.1967773.1933594.0834961.28125.3076172.1972656.5004883-.3261719.7504883-.4443359 1.6113281-.3300781 2.4238281.0283203.2080078-.1162109.4003906-.3242188.4291992-.2106857.0292625-.400032-.1177293-.4296875-.3237305z" fill="#dfe5ed"/></g><g><path d="m69.4095001 53.5177116c-1.1015625-2.5361328-2.6103516-4.8540039-4.4833984-6.8891602-.1416016-.1542969-.1318359-.3950195.0224609-.5371094.1552734-.1430664.3955078-.1323242.5380859.0224609 1.9306641 2.097168 3.4853516 4.4863281 4.6201172 7.1010742.0839844.1923828-.0048828.4165039-.1972656.5-.1885757.0829698-.4147796-.0015105-.5-.1972655z" fill="#dfe5ed"/></g><g><g><path d="m85.353447 72.4233246c-1.2224274 1.7076874-3.7177429 3.0813751-6.874733 3.7934341-2.6775513.6110077-5.2294159.5408401-5.1293945.5355988-2.476387-.0189209-4.7763977-.4221802-6.710968-1.0964584-2.6197815-.9100418-7.7920074-4.1020126-4.0918121-7.1326447 2.2679138-1.8575287 5.5758438-.8947983 8.2523804-1.4365845 3.2390823-.6556625 5.9953613-3.4066582 9.291069-3.1621056 1.6213226.1203041 3.1386948 1.0034065 4.1783829 2.2532997 1.4726714 1.7704392 2.4366683 4.357338 1.0850753 6.2454606z" fill="#fff"/><path d="m66.5130157 76.0147781c-2.0332031-.7060547-5.2011757-2.5629883-5.5957069-4.78125-.1923828-1.081543.2744141-2.0927734 1.3876953-3.0048828 2.3840523-1.9519653 5.817173-.9891281 8.4189491-1.5146484 3.161232-.6407852 5.9473648-3.4096947 9.3945313-3.1689415 1.6630859.1240234 3.2822266.9946251 4.4414063 2.3896446 1.5931244 1.9139709 2.5596924 4.6734238 1.1035156 6.7099609-1.2705078 1.7744141-3.8583984 3.2119141-7.1005859 3.9433594-3.7526322.8549729-8.297371.7355423-12.0498048-.5732422zm4.3613282-8.555664c-2.6897125.5454941-5.9612885-.3831711-8.0869179 1.3583984-.8847656.7241211-1.2617188 1.4926758-1.1210938 2.2827148.3164063 1.7832031 3.1709023 3.5273438 5.0966835 4.1962891 3.3001938 1.1511383 7.707756 1.4442673 11.6308594.5498047 3.0634766-.6914063 5.4873047-2.0195313 6.6503906-3.644043.4335938-.605957.6240234-1.3266602.5664063-2.1416016-.0839844-1.1650391-.6796875-2.4916992-1.6347656-3.6396484-1.0283203-1.2373047-2.4550781-2.0087891-3.9140625-2.1171875-3.1212998-.232933-5.9306565 2.4959641-9.1875 3.1552735z" fill="#2a3134"/></g><g><path d="m85.220047 72.7794266c-7.4619141-2.8081055-15.7353516-2.9233398-23.2978554-.3203125-.1982422.0668945-.4160156-.0375977-.4833984-.2363281-.0683594-.1982422.0371094-.4150391.2353516-.4833984 7.7314491-2.6591797 16.1894569-2.5429688 23.8134804.328125.1972656.0742188.2958984.293457.2216797.4897461-.0732499.197647-.2944337.2957686-.4892579.2221679z" fill="#2a3134"/></g><g><path d="m66.2610626 75.7032547-1.0341797-8.2763672c-.0263672-.2084961.1210938-.3984375.3300781-.4243164.1982422-.0288086.3974609.1220703.4238281.3305664l1.0341797 8.2753906c.0263672.2084961-.1210938.3984375-.3300781.4248047-.206398.0258026-.3982849-.1203918-.4238281-.3300781z" fill="#2a3134"/></g><g><path d="m78.4134064 76.5914383c-.2070313-.0361328-.3457031-.2333984-.3095703-.4399414l2.0732422-11.8032227c0-.2099609.1679688-.3505821.3779297-.3505821s.3769531.2001915.3769531.4101524l-2.078125 11.8745117c-.0370713.206627-.2327805.3451996-.4404297.3090821z" fill="#2a3134"/></g><g><path d="m73.3489532 77.1329422c-.2099609 0-.3798828-.1699219-.3798828-.3793945l-.0126953-6.5546875-.0703125-3.9624023c-.0039063-.2099609.1630859-.3833008.3730469-.387207h.0068359c.2070313 0 .3769531.1660156.3798828.3735352l.0703125 3.9682617.0126953 6.5605469c.0009766.2104492-.1689453.3808594-.3789063.3813477h-.0009765z" fill="#2a3134"/></g></g><g><path d="m81.2659454 56.2589226c-.1806641-.1069336-.2402344-.340332-.1328125-.5209961.1083984-.1811523.3398438-.2402344.5214844-.1333008 2.8837051 1.7123947 7.1739197.2471352 8.4111328-2.8725586.078125-.1948242.2958984-.2880859.4941406-.2133789.1943359.0771484.2900391.2983398.2128906.4936523-1.409027 3.554348-6.2187042 5.1956788-9.5068359 3.2465821z" fill="#2a3134"/></g><g><g><path d="m93.5117798 39.3185616c-.3978119.302906-.7851105.6569061-.9873352 1.1486092-.2022247.4917221-.1735458 1.1517105.1861877 1.5626755.9860992 1.1265221 4.1437988.0625267 6.1299896 1.1425095.6721039.3654556.7164001.8186951.4159698 1.5326195-.3214874.7639465-.7013931 1.493763-1.1345673 2.1795578-.2904205.4597893-.5976181 1.1166267-.2362213 1.5622559.522644.644455 1.4077225-.2634773 2.1440201-.0324059.3227005.8101311-.0246887 1.9209099.603302 2.4745064.5430145.4786758 1.2836075.0546417 1.7993088-.3824692 1.1052856-.9368401 2.1915665-1.9416351 2.9530487-3.2406769.7614899-1.2990379 1.1704941-2.9423981.8161697-4.5212021-.3725128-1.6598473-1.7952728-3.9371643-3.2537689-4.6533585-1.5349274-.7537231-3.409462-.3037376-4.9856262-.3776855-1.5585708-.0731241-3.2124023.6623801-4.4504775 1.6050643z" fill="#dde4ee"/></g><g><path d="m103.3733673 49.4034538c-.1337891-.1621094-.109375-.4018555.0527344-.5351563 2.0039063-1.6396484 3.0292969-3.8442383 2.7441406-5.8964844-.265625-1.9165039-1.75-3.7685547-3.6933594-4.6083984-1.5380859-.6645508-3.3564453-.8095703-5.7197266-.4526367-.2128906.0307617-.4023438-.1123047-.4326172-.3193359-.03125-.2075195.1113281-.4013672.3193359-.4326172 1.5791016-.237793 3.9345703-.4453125 6.1357422.5063477 2.2119141.956543 3.8388672 2.9985352 4.1445313 5.2021484.3212891 2.3168945-.8056641 4.7802734-3.015625 6.5898438-.164421.1328849-.4017486.1091575-.5351562-.053711z" fill="#2a3134"/></g></g><g><g><path d="m53.0950012 39.4723396c.3978157.3029022.7851143.6569023.9873352 1.1486053.2022247.4917221.1735497 1.1517105-.1861877 1.5626755-.9860992 1.1265221-4.143795.0625267-6.1299858 1.1425095-.6721077.3654594-.716404.8186951-.4159737 1.5326195.3214874.7639465.7013931 1.493763 1.1345673 2.1795616.2904205.4597855.5976219 1.1166229.2362213 1.562252-.5226402.644455-1.4077225-.2634735-2.1440163-.0324059-.3227043.8101349.0246849 1.9209099-.6033096 2.4745064-.5430069.4786758-1.2835999.0546417-1.799305-.3824692-1.1052895-.9368401-2.1915627-1.9416351-2.9530525-3.2406731-.7614861-1.2990417-1.1704941-2.9424019-.8161659-4.5212021.3725166-1.6598511 1.7952728-3.9371681 3.2537727-4.6533623 1.5349274-.7537231 3.4094543-.3037376 4.9856262-.3776855 1.5585671-.0731238 3.2123986.6623803 4.4504738 1.6050683z" fill="#dde4ee"/></g><g><path d="m42.6975822 49.6104851c-2.2099609-1.8095703-3.3369141-4.2729492-3.015625-6.5893555.3066406-2.2036133 1.9335938-4.2456055 4.1445313-5.2021484 2.2011719-.9511719 4.5556641-.7446289 6.1357422-.5063477.2080078.03125.3505859.2250977.3193359.4326172s-.21875.3520508-.4326172.3193359c-2.3652344-.3554688-4.1816406-.2119141-5.7207031.4526367-1.6162109.6992188-3.3847656 2.3955078-3.6923828 4.6083984-.2851563 2.0517578.7412109 4.2558594 2.7441406 5.8959961.1621094.1333008.1865234.3730469.0527344.5351563-.132534.1617928-.3697701.187378-.5351563.053711z" fill="#2a3134"/></g></g><g><g><path d="m67.3852692 58.109539c.095993-.4375801.4993134-.7484703 1.120491-1.0007286 2.8147125-1.1430626 5.9921875-1.247509 8.9573822-.725338.3766556.06633.7643661.1492729 1.0736542.3742371.9418259.6850433.4517822 1.9045982-.1070023 2.6547394-1.2770691 1.7144012-4.4549103 5.4428978-6.8491364 3.6707497-.9062119-.6707573-1.8035355-1.3644714-2.590538-2.1751404-.6172027-.6357613-1.8236465-1.8010674-1.6048507-2.7985192z" fill="#2a3134"/></g><g><path d="m73.208252 57.3434868c.8865585.1640282.8174133.8078003.0519333 1.2570076-.7694168.4515152-1.6968765.7341537-2.594101.7119598-.400116-.0098953-1.2990494-.1091843-1.1102066-.7164993.1710663-.5501251.907402-.8344841 1.3969193-.9979668.6996841-.2336654 1.5242843-.3897781 2.255455-.2545013z" fill="#fff"/></g></g><g><g><g><path d="m84.0877914 59.8087273c.1861954 2.7956886 2.5102463 4.1128464 3.887207 2.16362 1.5255966-2.188736.2781601-5.9841919-1.8346252-5.7517662-1.2478714.1385231-2.1689758 1.7458-2.0525818 3.5881462z" fill="#2a3134"/></g></g><g><g><path d="m85.1582489 58.9372406c.0412064.6327744.4253235 1.1076164.8551483 1.0601158.4319611-.0477371.7492065-.6000862.7080002-1.2328644-.0411911-.6327362-.4253082-1.1075745-.8572769-1.0598373-.4298248.0475006-.7470627.5998497-.7058716 1.2325859z" fill="#fff"/></g></g></g><g><path d="m53.3919182 53.9771843c-.0771484-.1953125.0185547-.4165039.2128906-.4936523.1982422-.0771484.4160156.0170898.4941406.2133789 1.2371483 3.1195412 5.5234375 4.5830231 8.4111328 2.8725586.1816406-.1064453.4140625-.0483398.5214844.1333008.1074219.1806641.0478516.4140625-.1328125.5209961-3.2895813 1.9499549-8.0983352.3064422-9.5068359-3.2465821z" fill="#2a3134"/></g><g><g><g><path d="m60.0771141 60.7735519c-.1861954 2.7956886-2.5102425 4.1128464-3.8872032 2.16362-1.5255966-2.188736-.2781601-5.9841919 1.8346252-5.7517662 1.2478676.1385231 2.1689682 1.7458 2.052578 3.5881462z" fill="#2a3134"/></g></g><g><g><path d="m59.0066528 59.9020653c-.0411987.6327744-.4253159 1.1076164-.8551407 1.0601158-.4319649-.0477371-.7492065-.6000862-.7080078-1.2328644.0411987-.6327362.4253159-1.1075745.8572807-1.0598373.4298249.0475006.7470666.5998497.7058678 1.2325859z" fill="#fff"/></g></g></g><g><path d="m71.9007111 98.1978836c-16.6948662-.6622696-30.220707-14.0926132-30.220707-30.7944336 0-4.6528282 1.0341797-9.1166954 3.0751953-13.2758751-4.7900391-1.0859375-8.2148438-5.1567383-8.2148438-9.8564453 0-5.5913086 4.8183594-10.1401367 10.7421875-10.1401367 4.5322266 0 8.5224609 2.6430664 10.0761719 6.6240234 9.6599464-5.5030975 22.019886-5.6899071 32.0654335.2080078 1.5185547-4.3798828 5.4160156-8.8647461 9.9365234-8.8647461 6.0722656 0 10.9619141 6.6591797 10.9619141 12.1728516 0 4.8066406-3.6650391 8.9931641-8.6064453 9.9365234 2.0107422 4.1357422 3.0292969 8.5722656 3.0292969 13.195797 0 17.4047089-14.9093628 31.5987167-32.8447265 30.7944336zm-24.6181679-63.3061485c-5.5039063 0-9.9824219 4.2075195-9.9824219 9.3793945 0 4.4916992 3.4003906 8.3647461 8.0849609 9.2080078.2498283.0454216.3880348.3194695.2714844.5473633-2.1347656 4.1777344-3.2167969 8.6787109-3.2167969 13.3769493 0 16.4705963 13.3575134 29.3955841 29.4921913 30.034668 4.1185989.1779251 8.3099976-.5208359 11.5292969-1.6860352 17.4058762-6.0100403 25.4899902-25.5989914 17.3466797-41.6630821-.1187668-.2333679.0301056-.5123444.2851563-.5483398 4.828125-.6884766 8.4697266-4.6733398 8.4697266-9.2695313 0-5.137207-4.7080078-11.4121094-10.2021484-11.4121094-4.3144531 0-8.0419922 4.5273438-9.3603516 8.7866211-.0732346.2395744-.3572159.3397217-.5605469.2128906-9.7626495-5.9329262-22.2261734-6.0295982-32.0898476-.2192383-.2019806.1199875-.473381.0285873-.5537109-.2060547-1.3212891-3.9125976-5.1445313-6.5415038-9.5136719-6.5415038zm35.8837929 61.3671837h.0097656z" fill="#2a3134"/></g><g><g><g><path d="m76.2573166 37.2697144c-2.3376923-2.2955971-3.7321548-3.4138565-7.785881-3.901123-2.758934-.3316345-5.6458359-.193119-8.1772385.9530678 4.6895447.2121086 9.245224 2.5203819 12.189827 6.1763496-.3920288-.2261314-.8774872-.1865082-1.3262558-.1278954-1.7491684.228466-3.4740219.6426277-5.1362228 1.2332802 1.4617691.2622223 2.8195343.7629471 4.1759415 1.367672" fill="#fff"/></g></g><g><g><path d="m68.7345581 35.2675819c3.0620041 1.2867088 6.0109406 3.1714439 7.7503281 6.0009422.6279984-.9682312.5161285-2.2818718-.0282593-3.2994652-1.0029907-1.8748055-4.0456696-3.6933136-6.0772629-4.3186188-2.0571518-.6331711-4.7353821-.6633377-6.8648262-.411171-.2409172.0285301-.7815361-.0127106-.8893204.2510223-.215023.5261192 1.2668953.4169922 1.5618172.4561844.7419205.0985985 1.4740906.2635345 2.1921844.4733047.8014832.2341273 1.5858231.5244372 2.3553391.8478014z" fill="#dde4ee"/></g></g><g><g><path d="m74.9237213 43.6956596c-.8718185-1.3201256-1.513855-2.8724022-2.8093643-3.7803917-.1258926-.0882378-.1820984-.0991211-.3593903-.0380096-3.6150131 1.2459946-4.7851715.9895401-5.5872421 1.6877251-.2920074.2541885-.0839081.4409447.235611.4168587 2.8474731-.2146302 6.1620941.1222724 8.5203857 1.7138175z" fill="#dde4ee"/></g></g><g><g><path d="m70.0423126 43.3180046c-3.691124-1.6453285-4.3516617-1.0832558-4.3994141-1.6835938-.0146484-.171875.0888672-.3320313.2519531-.3896484 2.0902023-.7423477 4.4835434-1.2206726 5.6162109-1.2929688-2.8720703-3.1152344-6.9980469-5.0585938-11.2343788-5.2504883-.3965988-.0176277-.5019951-.5619583-.1396484-.7265625 2.3066406-1.0439453 5.1230507-1.3764648 8.3798866-.9833984 2.1259766.2553711 3.7275391.7402344 5.0400391 1.5268555 1.1318359.6777344 2.0644531 1.5942383 2.9667969 2.4799805.1494141.1474609.1523438.3881836.0048828.5380859s-.3876953.1518555-.5380859.0048828c-.8701172-.8549805-1.7705078-1.7392578-2.8242188-2.3706055-2.7391815-1.640873-7.8654251-2.0038223-11.1718788-1.0649414 4.1865273.6274414 8.1289101 2.8544922 10.7851601 6.1538086.2625351.325943-.1198196.7785988-.4863281.5683594-.2890625-.1674805-.6953125-.1313477-1.0869141-.0805664-1.2705078.1660156-2.53125.4326172-3.7626953.7944336.8916016.2509766 1.8310547.6015625 2.9091797 1.0820313.1914063.0854492.2773438.3100586.1923828.5019531-.0850601.1897507-.307312.2789078-.5029297.1923828z" fill="#2a3134"/></g></g></g><g><path d="m109.6319962 93.9299393c-5.6894989 10.7198105-7.6975403 22.0785599-7.7381439 33.7720032-4.9470444-2.5489349-10.1434555-3.5800552-15.6182861-3.5800552l2.2414017-2.4137421-12.7685242-6.6428146 18.2449646-3.5699081-10.810997-3.5191498 10.4155731-5.8112564-9.7767639-5.8111877 8.2148972-6.4602814c4.6647337 2.471443 10.8302763 4.0922698 17.5958785 4.0363921z" fill="#fdc528"/></g><g><path d="m86.0626297 116.9009781c1.7949829 1.2170181 3.5900879 2.4340363 5.3851929 3.651001-1.1357498.902626-1.7443466 2.3326416-2.4034653 3.6612091-.9129028-.0709991-1.8357086-.091301-2.7687912-.091301l2.2414017-2.4137421-12.7685242-6.6428146 18.2449646-3.5699081-10.810997-3.5191498 10.4155731-5.8112564-9.7767639-5.8111877 8.2148972-6.4602814c.1723328.0913086.3447876.1723938.5172424.2535477.3143311.3752365.4867783.8417816.405571 1.399559-.2332458 1.6531067-2.5860672 2.2920456-2.8599167 3.9146957-.1724548 1.0040207.8620224 1.7545013 1.7343216 2.292038 1.6732864 1.044632 3.2249985 2.3021927 4.6042633 3.7220001.3143234.3346939.6592331.740387.6084747 1.206871-.0406036.4665375-.4563293.8012314-.8316879 1.0851669-1.8152847 1.3387146-3.6204224 2.6672821-5.4256821 3.995842 2.1397705 1.6125641 4.2797852 3.2250671 6.409523 4.8274765-3.5800628 1.7342606-7.3122711 3.1743622-11.1355972 4.3102341z" fill="#f2ad00"/></g><g><path d="m70.4443436 120.4505844-.6084824 3.4887543c-8.3395042.2363968-15.1106834 2.9850922-21.490387 7.8496933-2.1499176-14.0260315-5.953064-26.1859512-12.778553-34.9585114 6.9317322-.3750916 13.5591927-3.4411392 19.4417381-7.1093597l-3.6206665 10.6285095 12.200531-.4766312-5.9936714 11.3282928 11.8048592-3.1540604-14.3605957 13.8840256z" fill="#fdc528"/></g><g><path d="m70.4443436 120.4505844-.6084824 3.4887543c-3.9349976.1115417-7.4439926.7910233-10.6387863 1.8863449-2.349144-2.3498535-5.7981644-.8478317-8.3669243-2.3528824 2.2312546-3.3264542 4.8072929-6.4196701 7.6672058-9.2289505-2.2514343-.1723938-4.5028687-.3549957-6.754303-.5375443 1.957283-3.2859039 3.6914825-6.7138138 5.1721344-10.2431183-3.3668747-.0304565-6.7340012-.0506973-10.1112747-.0811539.393055 0 2.6971703-10.0221939 2.7889748-10.6183548 1.8052597-.8924789 3.6105156-1.9168015 5.4157715-3.0425186l-3.6206665 10.6285095 12.200531-.4766312-5.9936714 11.3282928 11.8048592-3.1540604-14.3605957 13.8840256z" fill="#f2ad00"/></g><g><path d="m101.7210236 128.037735c-7.5574799-3.8829269-14.4502258-3.4287033-15.4453125-3.5361404-.333107 0-.503891-.3981247-.2783203-.6396484l1.9023438-2.0429688-12.3320313-6.4208984c-.3175049-.1652298-.2494431-.6420059.1025391-.7104492l16.8066406-3.2827148-9.4179688-3.065918c-.3134537-.1023483-.3580856-.5312653-.0673828-.6938477l9.8398438-5.487793-9.1992188-5.4765625c-.2281647-.1358566-.2518616-.4605637-.0410156-.6254883l8.2128906-6.4580078c.1162109-.0917969.2753906-.1074219.4082031-.0400391 5.2851563 2.699707 11.1005859 4.0317383 17.4169922 3.9887695h.0029297c.2856293 0 .4702454.3046646.3359375.5585938-5.1347656 9.6733398-7.6503906 20.6630859-7.6933594 33.5961914 0 .2804336-.2984467.466835-.5537109.3369217zm-14.5771485-4.290535c5.2099609.0957031 10.0390625 1.2167969 14.375 3.3378906.1162109-12.5478516 2.5673828-23.2832031 7.484375-32.777832-6.0722656-.0380859-11.7597656-1.3696289-16.9189453-3.9624023l-7.5869141 5.9658203 9.2900391 5.5307617c.251297.1486893.245697.5167236-.0087891.6586914l-9.6552734 5.3852539 9.9833984 3.25c.3722916.1218872.3379364.6600571-.0449219.7348633l-17.1787109 3.3554688 11.8115234 6.1494141c.2219467.1150894.274147.4126663.1025391.5966797z" fill="#2a3134"/></g><g><path d="m47.9739494 131.8463287c-2.3710937-15.4609451-6.5263672-26.8398513-12.7021484-34.7866287-.1876068-.2413559-.0278168-.5963364.2792969-.6132813 5.8740234-.3134766 12.1738281-2.6186523 19.2607422-7.0473633.2987366-.1888428.677021.1053696.5615234.4453125l-3.4472656 10.0991211 11.6484375-.4506836c.2502823-.0368576.4989433.276886.3505859.5576172l-5.5820313 10.5571289 10.9609413-2.9262695c.3797379-.0994034.6411591.3699493.3623047.6411133l-13.5781288 13.1259766c15.0371513-1.3829651 14.3950844-1.515274 14.6376991-1.2519531.0810547.0874023.1162109.2075195.0957031.3242188l-.6132813 3.4824219c-.03125.1777344-.1835938.3085938-.3632813.3144531-7.8945351.2382813-14.651371 2.7084961-21.2636757 7.7729568-.2279318.1750793-.5631559.0425109-.6074217-.2441407zm-11.6699218-34.6875076c5.9365234 7.9106445 9.9736328 19.0288086 12.3242188 33.9428787 6.4970703-4.8422928 13.1572266-7.24366 20.8837929-7.5341873l.4736328-2.6865234-14.9072304 1.4282227c-.1689453.0146484-.3144531-.0732422-.3818359-.2192383-.0673828-.1469727-.0351563-.3203125.0810547-.4326172l13.3056679-12.862793-10.385746 2.7724609c-.3225441.0860138-.5882874-.2550888-.4335938-.5454102l5.6806641-10.7431641c-12.1401596.4058151-11.6365204.5994568-11.8623047.293457-.0751953-.1005859-.0957031-.2314453-.0556641-.3500977l3.2851563-9.6225586c-6.5527345 3.9667971-12.4609376 6.1181643-18.0078126 6.5595705z" fill="#2a3134"/></g><g><path d="m42.6710472 121.3282547c1.6941109.98452 3.6251144.3053207 4.9377365-.9873581 1.3975105-1.369194 1.8040619-3.5413818 1.6635857-5.423378-.2872467-4.0463867-2.7575874-9.0982971-6.9595413-8.9572525l-.0081711.0043335c-1.4251137.0550613-2.7197914.8883972-3.4092178 2.1330414-1.1168556 2.036293-.5002518 4.9735794.0061226 7.1113434.5526695 2.3433456 1.6013603 4.8526153 3.7694854 6.1192703z" fill="#fff"/></g><g><path d="m42.6710472 121.3282547c1.6941109.98452 3.6251144.3053207 4.9377365-.9873581 1.3975105-1.369194 1.8040619-3.5413818 1.6635857-5.423378-.0501022-.7058105-.1679802-1.480278-.3772278-2.269043-.0611763.8903961-.1973724 1.7578278-.5248833 2.5802536-.5619545 1.3862152-1.7977066 2.6067581-3.2886505 2.6757965-1.1646347.0528946-2.2636337-.5986557-3.0816765-1.4306793-2.8632278-2.8989182-2.7093964-7.6351471.341404-10.3612671l-.0285072-.1523132-.0081711.0043335c-1.4251137.0550613-2.7197914.8883972-3.4092178 2.1330414-1.1168556 2.036293-.5002518 4.9735794.0061226 7.1113434.5526695 2.3433456 1.6013603 4.8526153 3.7694854 6.1192703z" fill="#dde4ee"/></g><g><path d="m42.4807854 121.6549149c-1.8896484-1.1044922-3.21875-3.2426758-3.9501953-6.3549805-.5830078-2.4794922-1.109375-5.2998047.0341797-7.387207.7499962-1.3686905 2.2026939-2.3330078 3.9316406-2.3330078 3.5888672 0 5.8193359 3.4765625 6.7177734 6.7788086.2304688.8510742.3828125 1.7260742.4404297 2.5307617.427227 5.8833389-4.2653389 8.4662323-7.1738281 6.765625zm-3.2480469-13.3769532c-1.015625 1.8515625-.5126953 4.5058594.0380859 6.8481445.6816406 2.9013672 1.890625 4.8769531 3.59375 5.8720703 1.6308594.953125 3.4306641.0976563 4.4746094-.9257813 1.625-1.5947266 1.6308594-4.1176758 1.5576172-5.128418-.0546875-.7568359-.1982422-1.581543-.4169922-2.3862305-1.9264908-7.0843657-7.4713287-7.524246-9.2470703-4.279785z" fill="#2a3134"/></g><g><path d="m43.5042229 111.231575c-.2021484-.0576172-.3183594-.2680664-.2617188-.4702148.0576172-.2011719.265625-.3168945.4707031-.2612305 1.2060547.34375 2.5439453.1318359 3.5849609-.5620117.1728516-.1152344.4101563-.0698242.5273438.1054688.1162109.1743164.0693359.4106445-.1054688.5273438-1.2283515.8198622-2.8045043 1.0634383-4.2158202.6606444z" fill="#2a3134"/></g><g><path d="m44.4973869 116.1085281c-.1757813-.1162109-.2226563-.3525391-.1064453-.5273438.1162109-.175293.3525391-.2231445.5263672-.1064453 1.1181641.7416992 2.7089844.7045898 3.7880859-.0849609.1708984-.1240234.4072266-.0869141.53125.0825195.1240234.1699219.0869141.4077148-.0820313.5317383-1.3308333.9722443-3.2901038 1.0135422-4.6572265.1044922z" fill="#2a3134"/></g><g><g><path d="m105.9234238 117.346283c-1.5882492 1.1474991-3.577034.6629333-5.0112534-.4933548-1.5262756-1.2240219-2.1460037-3.345253-2.1926575-5.2319031-.1150055-4.0549469 1.8427277-9.3267212 6.0379868-9.602623l.0085602.0035019c1.4235611-.08638 2.7944183.6146011 3.6037521 1.7848206 1.3130798 1.9156418.9904785 4.8995667.6983719 7.076973-.3178177 2.3865737-1.1127701 4.9873885-3.1447601 6.4625854z" fill="#fff"/></g><g><path d="m105.9234238 117.346283c-1.5882492 1.1474991-3.577034.6629333-5.0112534-.4933548-2.0681686-1.6585999-2.4738998-4.8527222-2.0420609-7.5271606.1490784.8799591.3705368 1.7296295.7779083 2.5155716.6965103 1.3237305 2.0470886 2.4158478 3.5375443 2.336853 1.1641464-.0627365 2.1931915-.8199539 2.9247894-1.72892 2.5619736-3.1682968 1.9397125-7.8659897-1.366127-10.2764816l.0132751-.1543884.0085602.0035019c1.4235611-.08638 2.7944183.6146011 3.6037521 1.7848206 1.3130798 1.9156418.9904785 4.8995667.6983719 7.076973-.3178176 2.3865736-1.11277 4.9873884-3.14476 6.4625853z" fill="#dde4ee"/></g><g><path d="m100.6770782 117.1519852c-2.2597809-1.8154221-2.6427765-5.160675-2.1523438-8.0834961 1.3404617-7.9894791 7.6924362-9.0688019 10.1552734-5.4785156 1.3457031 1.9638672 1.1015625 4.8222656.7666016 7.347168-.4189453 3.1694336-1.5302734 5.4287109-3.3007813 6.7148438-1.6630705 1.2084044-3.8348998.8127822-5.4687499-.5000001zm-1.4023437-7.9575196c-.4348984 2.5893402-.1526108 5.7322617 1.8789063 7.3647461 1.1386719.9150391 3.0117188 1.5898438 4.5449219.4775391 1.5957031-1.1591797 2.6035156-3.2446289 2.9941406-6.1992188.3164063-2.3852539.5527344-5.0761719-.6396484-6.8178711-2.0852738-3.0388259-7.5581056-2.0913162-8.7783204 5.1748047zm-.375-.0629882h.0097656z" fill="#2a3134"/></g><g><path d="m99.8343048 107.1417313c-.1855469-.0986328-.2558594-.3291016-.1572266-.5141602s.3310547-.2553711.5146484-.1567383c1.1054688.5883789 2.4570313.6645508 3.6220703.2036133.1933594-.0771484.4160156.0170898.4931641.2133789.0771484.1953125-.0185547.4165039-.2138672.4936523-1.3640517.5404511-2.9574737.4541245-4.258789-.239746z" fill="#2a3134"/></g><g><path d="m98.9446564 112.6900711c-.1806641-.1064453-.2412109-.3398438-.1347656-.5205078.1074219-.1821289.3417969-.2402344.5214844-.1347656 1.1523438.6782227 2.7431641.5546875 3.7763672-.2905273.1640625-.1323242.4023438-.1088867.5351563.0537109.1337891.1625977.109375.4023438-.0527344.5351563-1.2737123 1.0413512-3.2280503 1.1920623-4.6455079.3569335z" fill="#2a3134"/></g></g></g></svg>