<svg id="Layer_1" enable-background="new 0 0 150 150" viewBox="0 0 150 150" xmlns="http://www.w3.org/2000/svg"><g id="_x35_8"><g><path d="m64.5337296 137.2952118c-2.7916641-12.869751-1.6874428-32.2551956 3.2349625-44.4717636.5365677-1.3686371 1.1353073-2.7139206 1.7807541-4.0358963 10.4361038 9.0188828 24.7813797 11.6151733 37.528389 7.4263458l.007782-.0077362c.1788406-.0544357.3499451-.1166611.5210037-.1788864 4.2769547-1.4774704 8.2117615-3.6781693 11.6333466-6.4620972.6065292 1.2908936 1.1664429 2.6050873 1.679657 3.9347992 4.9768448 12.7687073 3.8343124 31.6982727.4515991 44.9801865" fill="#fff"/></g><g><path d="m64.7522888 137.6230621c-2.7916603-12.8697586-1.687439-32.2551956 3.2349701-44.4717712.5365601-1.3686371 1.1353073-2.7139206 1.7807541-4.0358963 10.4322815 9.0155792 24.7836609 11.6144257 37.528389 7.4263458l.007782-.0077362c.1788406-.0544357.3499451-.1166611.5209961-.1788864 4.2769623-1.4774628 8.2117615-3.6781693 11.6333542-6.4620972.6065216 1.2908936 1.1664429 2.6050873 1.679657 3.9348068 4.9768448 12.7686996 3.8343124 31.6982651.4515991 44.9801865" fill="#fff"/></g><g><path d="m64.0080643 132.2900848c.8929443-5.7756195 2.4734192-11.5825043 5.8615646-16.2215576-.2705841-.2135925-.7070694-.3243866-.9275894-.5820389-1.461319-1.70681-3.3053207-2.5208588-4.7666321-4.2276611-1.2630348 7.7375717-1.1312599 15.5866623-.1673431 21.0312576z" fill="#dde4ee"/></g><g><path d="m124.1359482 112.8289337c-1.9521103 1.8856125-4.0552902 4.2922745-5.2831421 5.2661057 2.0888596 4.8135071 3.1014633 10.3238449 3.38871 15.8031693.074707-.3946686.152359-.7767944.2337494-1.1249542 1.5128098-6.4685746 2.1087723-13.2786943 1.6606827-19.9443208z" fill="#dde4ee"/></g><g><path d="m121.4949188 139.180481c-.2050781-.0527344-.3291016-.2617188-.2773438-.4667969 3.3457031-13.1328125 4.5078125-32.0625-.4365234-44.7460938-.4541016-1.1767578-.9462891-2.3417969-1.4638672-3.46875-14.1993484 11.2503128-35.039093 11.3399353-49.4199219-.7695313-.5761719 1.2060547-1.0976563 2.4013672-1.5527344 3.5625-4.6728554 11.5957031-6.0849648 31.03125-3.2167969 44.25.0449219.2070313-.0869141.4111328-.2939453.4560547-.2089844.0458984-.4111328-.0878906-.4560547-.2939453-2.9433632-13.5693359-1.5449257-32.7851563 3.2539063-44.6962891.5175781-1.3183594 1.1210938-2.6865234 1.7919922-4.0605469.1123505-.2288666.4080658-.2852325.5957031-.1220703 14.0760574 12.1613312 34.9869614 12.3305435 49.1972656.7705078.1875763-.1516647.4807434-.0963211.5888672.1347656.6015625 1.2802734 1.1708984 2.6123047 1.6904297 3.9599609 5.0058594 12.8408203 3.8408203 31.9609375.4658203 45.2128906-.0515517.1994631-.2522353.3293612-.4667968.277344z" fill="#2a3134"/></g><g><g><path d="m106.3071213 97.0127945-5.0649643 8.7723846c-.0651703-.100174-2.305191-3.5433197-2.1625595-3.3240814-.0658951-.100174-2.3886337-3.6316299-2.2406311-3.4066238 2.7922516-.1975632 6.18293-.8679657 9.4681549-2.0416794z" fill="#fff"/></g><g><path d="m106.3071213 97.0127945-5.0649643 8.7723846-1.1482391-1.7689056c.722229-1.1660767 1.266098-2.4485931 1.5762711-3.7605286.0774612-.3423004.11026-.7826538-.1903992-.9304199-.1223221-.0542526-.2892532-.0342484-.4450378-.0040894-1.1460571.1947098-2.280838.5144577-3.393219.9462738l-.8025665-1.2130356c2.7922515-.1975631 6.1829299-.8679656 9.4681548-2.0416793z" fill="#dde4ee"/></g><g><path d="m101.2419891 106.1687622c-.1298828 0-.2509766-.0654297-.3212891-.1748047l-4.4013672-6.7275391c-.1617432-.2426147-.0023041-.573555.2919922-.5947266 2.7556152-.1942291 6.1150055-.8582993 9.3671875-2.0205078.3383408-.1186371.6383286.2455368.4609375.5527344l-5.0654297 8.7724609c-.0664063.1162109-.1884766.1884766-.3222656.1923828-.0029296.0000001-.0068359.0000001-.0097656.0000001zm-3.7285156-6.7900391 3.7089844 5.6728516 4.2412109-7.3457031c-2.9378357.9606399-5.457901 1.4130325-7.9501953 1.6728515z" fill="#2a3134"/></g><g><path d="m92.3541794 99.1093903c-.4803085.9218292 1.7399216-3.3393707-4.6973648 9.0154572l-6.2114029-11.4639053c.2748108.1289825.736557.2924576.7682953.3213806.3228989.1106186.6233902.2354202.9462891.3460388 1.7668762.6986847 5.3453903 1.543457 8.4263229 1.7352142.0445786.0176468.1001358.010994.1446838.0056534.2114029.0205917.4117889.0310668.6231766.0401611z" fill="#fff"/></g><g><path d="m85.4214478 99.423233c-.2667465.2960815-.1882706.7460938-.0767517 1.100174.446785 1.3361282 1.2715759 2.5005798 2.3407898 3.3257141.7663879.5768585 1.2635498.7119064 1.8036575.748642l-1.8323288 3.5270844-6.2114029-11.4639053c.2748108.1289825.736557.2924576.7682953.3213806.3228989.1106186.6233902.2354202.9462891.3460388 1.3619843.5385742 4.2233963 1.3026276 7.291069 1.6300964l-.0887909.2862549c-1.245903.3214951-2.5479889.3282623-3.7390137.0345383-.400856-.1012803-.890564-.203415-1.2018127.1439818z" fill="#dde4ee"/></g><g><path d="m87.6609344 108.508606c-.140625 0-.2705078-.0771484-.3369141-.2011719l-6.2109375-11.4638672c-.1759567-.3236618.1652603-.6880493.5-.5302734.34655.1638565 1.2591095.5071182 1.6699219.6484375 1.9475937.7603607 5.4966431 1.595108 9.0839844 1.7675781.2839813.0127182.4500656.31633.3222656.5595703l-4.6884766 9.0126953c-.0654297.1259766-.1943359.2050781-.3369141.2070313-.0009764 0-.001953 0-.0029296 0zm-5.3632812-11.0878907 5.3564453 9.8857422 4.0820313-7.8476563c-.0117188-.0009766-.0234375-.0019531-.0351563-.0029297-.0136719.0087891-.1064453.0048828-.1982422-.0146484-3.2815323-.2216186-6.221672-.919487-9.2050781-2.0205078z" fill="#2a3134"/></g><g><path d="m99.0795975 102.4610977-2.4775391 3.7077026-4.8069839.5759201-1.8172531-3.0898361c.052681-.1007614 2.533577-4.8462296 2.376358-4.5454941 1.5186234.0893555 2.9440689.0728378 4.484787-.0549164z" fill="#3acc81"/></g><g><g><path d="m99.0795975 102.4610977-2.4775391 3.7077026-3.2935791.3945999c1.3453293-1.0684357 2.4565582-2.5338135 2.9109039-4.1846161.2837143-1.0830688-.1556778-1.3495331-1.2367249-1.4481277-1.0796967-.1118469-2.126236-.4572983-3.0503387-1.0127106l.4218597-.8085556c1.5186234.0893555 2.9440689.0728378 4.484787-.0549164z" fill="#1ebc66"/></g></g><g><path d="m91.4705048 106.9382935-1.8203125-3.0830078c-.0673828-.1142578-.0712891-.2548828-.0097656-.3720703l2.3691406-4.5478516c.2174911-.4257965.4938965-.017189 3.859375-.2011719l.9472656-.0615234c.1357422.0029297.2705078.0576172.3447266.1728516l2.2363281 3.4111328c.0849609.1279297.0839844.2949219-.0009766.4228516-2.5378265 3.7163696-2.4132156 3.8284988-2.7441406 3.8691406l-4.8056641.5751953c-.1479492.0184936-.2973633-.052681-.3759765-.1855469zm-1.0517579-3.2900391 1.5849609 2.6845703 4.3818359-.5244141 2.2314453-3.34375-1.9746094-3.0117188c-.2804413.010643-1.8604279.1683426-4.0673828.0556641z" fill="#2a3134"/></g><g><path d="m100.1068726 125.6171494-2.8671494 3.5821609c-1.6707764 2.5249939-3.4279556 5.1805725-3.3604736 5.0785828l-6.5024643-7.6983109c.4537659-2.038269-1.3275833 5.9633255 4.4182816-19.8463593l4.8069763-.5759125z" fill="#3acc81"/></g><g><path d="m100.1068726 125.6171494-2.8671494 3.5821609-3.3604736 5.0785828s2.1563416-7.0245209 2.544426-8.2768784c1.3972473-4.4741058.4017029-9.0634689-.7604141-13.2998428-.30159-1.1123199-.625618-2.2449493-1.2275238-3.1949768-.6020279-.9385147-1.5155029-1.7133408-2.6396408-1.8428497l-.2113647.0138245.2103348-.9439468 4.8069763-.5759125z" fill="#1ebc66"/></g><g><path d="m93.8796844 134.6619263c-.338089 0 .0094376.1427765-6.7958984-7.8378906-.2337799-.2752075-.2748718.8085251 4.3369141-20.1689453.0351563-.1591797.1669922-.2783203.328125-.2978516l4.8066406-.5751953c.2148438-.0263672.3876953.1132813.4228516.3125 3.6714096 20.6301804 3.6192398 19.5015869 3.4394531 19.7509766-6.5193024 8.9683838-6.1678925 8.8036804-6.5234375 8.8154297-.0048828.0009765-.0097656.0009765-.0146485.0009765zm-6.086914-8.1875 6.0625 7.1806641 5.8447266-8.125-3.4121094-18.9433594-4.1777344.5z" fill="#2a3134"/></g></g><g opacity=".2"><g><path d="m36.8408699 60.6467628-13.5873241 4.6991463 5.0249748-12.3313942-12.1735764-4.0339432 10.7362232-7.9271125-6.3676395-10.8673973 12.5444965 2.9674301-1.26441-18.268384 12.0909138 6.8131189 5.9020805-10.8902149 5.6194191 12.7743054 11.4570542-8.8106509-1.7205048 11.8765421 12.3207321-1.7742519-5.8973312 10.7127666 11.5355072 1.360714-8.5974808 6.7831955 8.206749 7.8167152-11.2726364 1.9198342 1.4082107 12.8951759-12.0904541-6.8303185-5.8444214 8.7358818-5.7074546-9.6396522-7.0140343 13.2855186z" fill="#fc5d59"/></g></g><g><path d="m127.5773087 75.2809677c-1.4579391 4.8994751-4.0176926 9.3833008-7.1482925 12.9774094-.24543.2863693-.501091.5624466-.7362823.8488159-.051178.0306473-.0920639.0818253-.1125336.1227112-.8095474.8095474-2.7340698 2.880043-5.2870789 4.653038-.8818283.6339188-1.9610748 1.3193436-2.086174 1.3907852-.0204773 0-.040947.0204697-.0715942.0307083-.8069382.5475159-1.5671082.916069-1.9532928 1.1147156-.0101776.0408859-.0408859.0408859-.0613556.0511169-5.8679657 3.1067581-12.9711456 4.5833206-20.0949936 3.6712723-.040947.0102386-.0920715 0-.1329498-.0204086-3.297348-.4175186-6.0252838-1.1946259-8.9072876-2.4032593-.0102386-.0102386-.0306473 0-.0511246-.0204086-1.7694397-.7584839-2.7940598-1.3148117-4.3769608-2.2191925-2.2724762-1.3886032-3.4899826-2.4353027-3.6099167-2.4952621-.4302444-.4302521-8.6069489-6.2122879-11.9138718-17.3338394-.3830605-1.2450409-.377552-1.3844147-.6544495-2.4646149-.0102348-.0511169-.0102348-.0920029-.0102348-.1329498-.0983086-.2946243-.3736725-1.8942108-.4295578-2.3827896-.0306473-.0613556-.0306473-.1227112-.0306473-.1840668-.1461678-.8774643-.3067818-2.8460999-.3067818-4.0292358-.2308159-17.8698845 14.2260971-32.8412056 32.7656174-33.9109802 9.2754288-.5215607 19.0621796 2.5055008 25.5559692 9.2856636 2.8633957 2.9963493 5.4200211 6.2892456 7.4346695 9.9298706 4.1330109 7.4791716 4.5574646 15.6767768 2.2191239 23.5209006z" fill="#fff"/></g><g><path d="m88.1351471 92.0723953c-11.4295197-3.1082611-18.7814865-10.6740112-25.7395363-19.487793-.7070045-.073967-1.4120102.0104828-2.0676422.2726974.0102386.0613556.0204735.1329498.040947.1943054 0 .1420288.0934105.4255371.3067818 1.3499069 1.276123 4.7567825 3.1206436 8.3166351 6.1256485 12.3944855 3.1566772 4.0447311 5.7509537 5.791832 6.1461258 6.1870117.1268005.0633926 1.335022 1.1051788 3.6099167 2.4952621 1.9147263 1.0939713 2.78302 1.5359344 4.3769608 2.2191925.0204773.0204086.0408859.01017.0511246.0204086 2.9308548 1.229126 5.6626053 1.9924088 8.9072876 2.4032593.0408783.0204086.0920029.0306473.1329498.0204086 6.9194489.8858795 14.0448227-.4680481 20.0949936-3.6712723.0204697-.010231.051178-.010231.0613556-.0511169.428299-.220314 1.1310501-.5568161 1.9532928-1.1147156.0306473-.0102386.0511169-.0307083.0715942-.0307083.0791092-.0451736.9993439-.6401443 1.0942383-.7055664.8064651-.5133286 2.2026215-1.5391693 3.527153-2.6961899-9.2475892 2.8142245-19.112671 2.805855-28.6931916.2004244z" fill="#dde4ee"/></g><g><path d="m80.8396454 98.0828247c-.0488281-.0195313-.0927734-.0488281-.1298828-.0849609-.3126526-.0719757-2.0262756-.9197311-2.3867188-1.1064453-.0028076-.0005646-1.1636734-.6298676-1.2636719-.6914063-9.7551498-5.5040512-16.6761246-15.8416214-17.6962929-27.0634766-1.5880585-20.1154366 13.9111595-35.8676147 32.9873085-36.9667969 10.0058594-.578125 19.6621094 2.9384766 25.8457031 9.3925781 3.0849609 3.2304688 5.609375 6.5976563 7.5029297 10.0087891 8.3157501 15.0514984 1.8890076 34.2618713-12.7675781 43.6943359-9.3849716 6.0146714-20.9451827 7.3531953-32.0917968 2.8173829zm.5175781-.6191406c4.9655609 2.0124741 8.4914169 2.2229004 8.6748047 2.2998047 7.0370483.8467178 13.8226013-.4360428 19.9052734-3.6337891.0616379-.0637665.1842804-.0712585 1.109375-.6162109 15.1103745-8.6656036 22.4747925-28.2009201 13.9814453-43.5703125-1.8613281-3.3535156-4.3466797-6.6679688-7.3867188-9.8505859-6.0292969-6.2939453-15.4541016-9.7207031-25.2470703-9.1572266-18.7609406 1.0755119-33.7622337 16.5589409-32.2783241 36.0087891l-.3710937.1582031.3818359-.0351563c.0980721 1.0839615.1708984 1.328331.1708984 1.4160156.0068359.0224609.0136719.1074219.0166016.1298828.0556641.3984375.1044922.7431641.1708984 1.0966797l-.3564453.1943359.3769531-.0722656c.0712891.3769531.1523438.7626953.2333984 1.1484375l-.3574219.1914063.3730469-.0888672c1.9582367 8.6404648 7.2106972 15.9261932 13.6894569 20.5390625 2.1398239 1.4911652 2.6039734 1.683342 4.0742188 2.5009766l-.0732422.40625.1708984-.34375c1.6905062.8558654 2.6353456 1.2301941 2.7412111 1.2783203z" fill="#2a3134"/></g><g><path d="m87.8918228 29.3154144c1.8454056 2.6087322 3.7011032 5.2175064 5.5361023 7.8260689.0717773.0943069.143692.1886787.2050629.2829399 19.2633438-3.3535194 12.9896698-2.2613487 14.2744064-2.4850044-2.5900726-.9834023-4.9349976-2.5467834-7.2067413-4.1405201-2.220665-1.5472298-4.6583023-3.3468151-6.2870789-5.5976105.6062012 2.7519321 1.8795853 5.3547974 3.677536 7.5157604-3.5947799-.3696899-7.0982055-1.5393142-10.1992874-3.4016342z" fill="#fff"/></g><g><path d="m96.6513977 28.2397289c.75177 1.2742786 1.5040283 2.5493298 2.3253784 3.7799091.5908661.8852501 1.2362747 1.7658081 2.1191788 2.3601799-1.2730331.1927567-2.5722427.0712929-3.8469925-.1097412-1.7391129-.2469788-3.4944839-.6159592-5.0777893-1.4026146-1.0846481-.5389023-1.1000519-.7547188-1.4176712-.8548088-.0275192.1531525.2097321.3686371.2933731.4841843 1.0472717 1.4466705 1.9860535 2.9718704 2.805748 4.5586662-1.6275864-1.5558128-2.780777-3.2109985-6.2759171-7.8773441.0103836.0138588.2438202.0222092.2803802.0323391.0998764.0276737.1944427.0715656.2865906.118309.1894302.0960903.3674393.2166653.5666809.2927055.2059097.0785789.4072113.1370239.6127853.223793 2.3542786.9937077 5.0548935 2.4610672 8.2939453 2.5884056-1.2317429-2.2906437-1.2993317-1.1815243-2.8685074-4.9719334-.1998825-.4828262-.3914948-.9801121-.4227982-1.5017395-.0058289-.0971889.0319366-.1495361.1240158-.0986061 1.0089035.5580406 1.2094193.4139252 1.3691483.7317562.2779924.5531599.5154115 1.109152.832451 1.6465398z" fill="#dde4ee"/></g><g><path d="m93.3230438 37.642395-5.7412109-8.1015625c-.2375107-.3320694.1480942-.7632637.5097656-.5507813 2.7773438 1.6679688 5.9140625 2.7783203 9.1230469 3.2373047-1.5322266-2.0546875-2.6230469-4.4355469-3.1748047-6.9414063-.0878143-.407547.444458-.638195.6845703-.3085938 1.8499222 2.5265636 4.3533249 4.1805096 6.6679688 5.84375 2.1367188 1.5 4.3466797 3.0517578 6.7207031 3.9492188.1982422.0742188.2978516.2958984.2226563.4941406-.0742188.1982422-.2919922.3017578-.4941406.2226563-2.6291733-.9941444-5.0379486-2.7385254-7.3623047-4.3701172-1.8857422-1.3212891-3.7060547-2.6542969-5.2226563-4.2939453.6796875 2.0576172 1.7451172 3.9873047 3.1298828 5.6533203.2183456.2633057.0085602.6596794-.3339844.6269531-3.0761719-.3193359-6.1113281-1.2226563-8.8720703-2.6328125l4.7675781 6.7285156c.1230469.1728516.0820313.4121094-.0908203.5341797-.1761475.1250879-.4140854.0798456-.5341797-.0908202z" fill="#2a3134"/></g><g><g><path d="m96.6990204 66.5623169-.7109375-5.1035156c-.0292969-.2099609.1171875-.4033203.3271484-.4326172.1992188-.0205078.4042969.1162109.4326172.3271484l.7109375 5.1035156c.0292969.2099609-.1171875.4033203-.3271484.4326172-.2326737.0258484-.405983-.1327896-.4326172-.3271484z" fill="#2a3134"/></g><g><path d="m90.2986908 56.5413666c.1179199-.4399185.5420532-.7368126 1.1846924-.9639931 2.9119873-1.0294075 6.1438751-.9870605 9.1309052-.3182449.3794327.0849571.7693176.1873055 1.0729141.4302216.9245071.7397156.3698654 1.9553909-.232666 2.6911278-1.3770599 1.6814766-4.7786102 5.3196602-7.1273727 3.4080544-.8890152-.7235451-1.7679214-1.469986-2.5293274-2.3300552-.5971299-.6744997-1.7679521-1.9143297-1.4991456-2.9171106z" fill="#2a3134"/></g><g><path d="m94.968399 55.7925644c.9116898-.0950737 1.0294418.5525742.4122162 1.2107925-.6203918.6616058-1.4434814 1.2039909-2.3247681 1.4404373-.3930054.1054382-1.2981415.2671967-1.288681-.3793297.0085678-.5856476.644783-1.0747375 1.0751038-1.374958.6150589-.4291153 1.3742447-.8185386 2.1261291-.8969421z" fill="#fff"/></g><g><g><g><path d="m104.8368225 52.4809113c.339119 1.9336777 1.6802673 3.2720985 2.9871445 2.9830627.4765854-.0992584 1.0021591-.4546432 1.3796082-1.1327553 1.3676071-2.4937782-.3871307-6.3745537-2.6000595-5.8874283-1.3068696.2890358-2.1000138 2.0976143-1.7666932 4.0371209z" fill="#2a3134"/></g></g><g><g><path d="m105.8721313 51.4351997c.1157761.6660042.577034 1.1255302 1.0272064 1.0261993.4524155-.0998268.7257233-.7214317.6099396-1.3874397-.1157761-.6659622-.5770264-1.1254883-1.0294418-1.0256653-.4501724.099331-.7234802.7209397-.6077042 1.3869057z" fill="#fff"/></g></g></g><g><g><g><path d="m85.6759567 53.9362373c.0822372 2.976223-2.2448807 4.6017876-3.8962784 2.6771774-1.8325653-2.1631508-.8919373-6.3030434 1.3664474-6.2681694 1.3339845.0219193 2.4689637 1.6303025 2.529831 3.590992z" fill="#2a3134"/></g></g><g><g><path d="m84.4564514 53.1211777c.0196152.6735458-.3393326 1.2142563-.7987976 1.2069321-.4617538-.0073624-.8525314-.5600204-.8721466-1.2335663-.0196075-.6735001.3393326-1.2142105.8010864-1.2068481.4594651.0073203.8502503.5599822.8698578 1.2334823z" fill="#fff"/></g></g></g><g><path d="m87.3503876 52.6384888c-2.7041016-1.3408203-5.5498047-2.4267578-8.4589844-3.2285156-.2041016-.0566406-.3242188-.2675781-.2685547-.4716797s.2626953-.3212891.4716797-.2685547c2.9570313.8154297 5.8486328 1.9189453 8.5957031 3.28125.1904297.0947266.2675781.3242188.1738281.5136719-.0955352.1924514-.3268585.2672347-.5136718.1738281z" fill="#2a3134"/></g><g><path d="m102.9626923 51.3562622c-.1386719-.1601563-.1210938-.4023438.0390625-.5410156 2.0146484-1.7451172 4.1191406-3.453125 6.2539063-5.0761719.1679688-.1279297.4082031-.0947266.5380859.0732422.1279297.1689453.0947266.4091797-.0732422.5380859-2.1230469 1.6123047-4.2138672 3.3105469-6.2167969 5.0449219-.1599121.138298-.4012756.1221809-.5410156-.0390625z" fill="#2a3134"/></g><g><path d="m98.0220795 86.990593c-2.6842422 1.1527176-5.9698181.2272797-8.0873337-1.7933426-2.1175232-2.0206146-3.1758728-4.9490204-3.4842606-7.8614883-.3557587-3.4541931-.4162521-8.5888672 1.1316681-11.6721573.7558212-1.5021591 2.3392487-2.7239532 4.0004883-2.4967842 2.2351379.3054314 3.8676147 2.9977837 6.0917511 2.6081123 1.7529831-.3217392 2.9737167-2.533165 4.7291107-2.2357063 1.7236481.2983398 2.0681152 2.6031837 1.9735413 4.3462181-.3634644 6.3180007.478363 16.1464004-6.3549652 19.1051483z" fill="#2a3134"/></g><g><path d="m97.53228 85.7753601c-3.0592117 1.313736-7.6021271-.2926788-9.294548-5.416832-.257515-.779686-.4496689-1.5744553-.5601654-2.388649-.1061783-.7824326-.4539795-1.5206146.1194153-2.1872253.5010452-.582489 1.4082794-1.027832 2.1319351-1.2418594 1.6969376-.5018845 3.1607361.3172531 3.9003983 1.8804245.8824997-2.5878677 3.9976273-4.4424438 7.5828629-3.6249619 1.8304214.4173584 1.4028397 2.0420532 1.2456741 3.5788727-.3915178 3.9574203-1.5116502 7.8303375-5.1255723 9.4002304z" fill="#fc5d59"/></g><g><path d="m97.53228 85.7753601c-3.0592117 1.313736-7.6022568-.2928162-9.2946014-5.4169922.1094894-1.0801086.455719-2.798111 1.6980057-2.6309128.5186234.0662689.9630127.3794785 1.4428406.6045685 1.2238617.5566711 2.7397156.4112549 3.836998-.3717728.9744873-.7032166 1.5993958-1.825737 2.6141968-2.4540405 1.5197296-.9341583 3.6443939-.4476242 4.8281326.8689194-.3915178 3.9574203-1.5116502 7.8303375-5.1255723 9.4002304z" fill="#e4403d"/></g></g><g><path d="m91.0466766 48.40802c-.7763672-1.7998047-1.9785156-3.4179688-3.4755859-4.6816406-.1621094-.1367188-.1826172-.3779297-.0458984-.5400391.1376953-.1621094.3798828-.1816406.5400391-.0458984 1.5878906 1.3398438 2.8623047 3.0556641 3.6865234 4.9628906.0830078.1943359-.0058594.4208984-.2001953.5048828-.2086793.0859223-.4235383-.0149765-.5048829-.2001953z" fill="#dfe5ed"/></g><g><path d="m97.1257782 49.3220825c-.2070313-.0458984-.3369141-.2509766-.2900391-.4580078.6386719-2.84375 1.9697266-5.5244141 3.8486328-7.75.1376953-.1630859.3798828-.1806641.5400391-.0458984.1621094.1367188.1826172.3789063.0458984.5400391-1.7998047 2.1328125-3.0742188 4.6992188-3.6865234 7.4238281-.047966.2140808-.2621765.3373069-.4580078.290039z" fill="#dfe5ed"/></g><g><path d="m93.6804657 48.2351685c-.2373047-1.2177734-.2949219-2.4638672-.1728516-3.7041016.0510101-.522316.8118057-.4189415.7636719.0761719-.1152344 1.1660156-.0605469 2.3369141.1611328 3.4814453.0410156.2080078-.0947266.4091797-.3027344.4492188-.2085952.0417175-.4094619-.0951081-.4492187-.3027344z" fill="#dfe5ed"/></g><g><g><path d="m78.0253448 41.4395676c-1.1863098 5.5427322-2.8122864 11.0036392-4.8678131 16.2907753-1.207489 3.112484-2.7571106 6.4011879-5.6450424 8.0584679-3.2724228 1.9021149-7.8641624 1.0328217-10.2264786-1.9123459-2.5246048-3.1586494-1.7093315-7.8081284-1.1146507-11.8116341.9715271-6.5756187 4.9598198-13.386425 10.79916-15.9941673 2.7529221-1.2340775 8.9365692-1.5272789 10.4719086 1.3498421z" fill="#fff"/></g><g><path d="m64.8741074 54.8668785c-.1864471-.0219727-.3796234-.0391388-.5746155-.0554924-.5401268.1165924-1.1423912.0986481-1.995491-.2280083-1.9302025-.4001846-2.4918098-1.6872292-2.1052132-2.992981-.2739525-4.5322571 5.3150978-12.373394 9.0578346-15.4185524-.0051804-.2468643-.0103607-.4924126-.0158539-.7556915-.8896942.1635971-1.6770935.3886108-2.2702484.6545105-5.8393402 2.6077423-9.8276329 9.4185486-10.79916 15.9941673-.5934143 3.9949989-1.4114075 8.6511688 1.1146507 11.8116341 2.3623161 2.9451675 6.9540558 3.8144608 10.2264786 1.9123459 1.7998734-1.0328827 3.0679474-2.6691551 4.0497131-4.5201454-.5420379-3.1701851-2.8531646-5.9722328-6.688095-6.4017868z" fill="#dde4ee"/></g><g><path d="m56.9841728 64.1121216c-2.8981705-3.6191216-1.7962799-7.654171-1.2236328-11.8994141 1.0060234-7.4961243 6.373867-15.5949593 13.4072304-17.3310547 3.3847656-.8330078 6.9892578.0361328 9.1875 2.2158203.1503906.1494141.1523438.3916016.0029297.5419922-.1494141.1513672-.3925781.1523438-.5419922.0029297-2.0146484-1.9970703-5.3378906-2.7890625-8.4648438-2.0166016-3.4130859.8427734-6.0087929 3.2001953-7.5869179 5.0292969-2.8105469 3.2617188-4.6728516 7.4023438-5.2441406 11.6591797-.5500526 4.1143913-1.6537819 7.9255829 1.0634766 11.3193359 2.2509766 2.8115234 6.620121 3.6337891 9.7392616 1.828125 2.7460938-1.5888672 4.2548828-4.7207031 5.4775391-7.8681641.4326172-1.1132813.8457031-2.234375 1.2392578-3.3623047.0703125-.1992188.2871094-.3066406.4892578-.2353516.1992188.0703125.3046875.2890625.2353516.4892578-.3974609 1.1357422-.8125 2.2646484-1.2490234 3.3857422-1.2724609 3.2783203-2.8574219 6.5478516-5.8076172 8.2548828-3.4487687 1.9944994-8.2532235 1.0716859-10.7236367-2.0136717z" fill="#2a3134"/></g></g><g><g><path d="m112.5470428 42.8294868c.6609802 5.6295967 1.7673569 11.2189789 3.3177109 16.675663.9101028 3.2120552 2.1442947 6.6316605 4.8639679 8.5526123 3.0795059 2.2007828 7.7325516 1.7661972 10.3608017-.944313.0910034-.0941772.1820679-.1882858.2639008-.2936096 2.5243225-2.9154739 2.1625519-7.4691887 1.9541626-11.3613167-.3502197-6.6377716-3.6818237-13.7927666-9.2507095-16.9369316-2.6249771-1.4869499-8.7538223-2.3590927-10.5523605.3612633z" fill="#fff"/></g><g><path d="m124.3803177 57.431591c10.9703751-.2559929.900589-15.5729599-2.6089478-19.0237808.0283203-.245285.0565186-.4892654.0866928-.7508659.8704224.246357 1.6332321.5442657 2.1988144.8646469 5.5688858 3.144165 8.9004898 10.29916 9.2507095 16.9369316.2083893 3.892128.5701599 8.4458427-1.9541626 11.3613167-.0818329.1053238-.1728973.1994324-.2639008.2936096-2.6282501 2.7105103-7.2812958 3.1450958-10.3608017.944313-1.6950073-1.1972122-2.8039474-2.9452591-3.6076965-4.8802032.8371125-3.1053352 3.4009782-5.678154 7.2592927-5.7459679z" fill="#dde4ee"/></g><g><path d="m120.5027313 68.3748169c-2.7773438-1.9765625-4.0478516-5.3798828-5.0078125-8.7636719-.328125-1.15625-.6367188-2.3193359-.9257813-3.4882813-.0507813-.2050781.0742188-.4130859.2802734-.4638672.2011719-.0556641.4130859.0742188.4638672.2802734.2871094 1.1591797.59375 2.3144531.9199219 3.4628906.9208984 3.2480469 2.1298828 6.5078125 4.7148438 8.3476563 2.9335938 2.0888672 7.3623047 1.6826172 9.8691406-.90625 3.027771-3.1273079 2.2796478-7.0582733 2.1201172-11.1699219-.1689453-4.2890625-1.6357422-8.5859375-4.1279297-12.0986328-1.3984375-1.9697266-3.7626953-4.5605469-7.0810547-5.71875-3.0439453-1.0634766-6.4248047-.5859375-8.6171875 1.2128906-.1621094.1347656-.4042969.1123047-.5400391-.0537109-.1337891-.1640625-.1103516-.4052734.0537109-.5400391 2.3935547-1.9628906 6.0664063-2.4912109 9.3554688-1.34375 6.8534546 2.392086 11.4247284 10.9495621 11.7226563 18.5126953.1750641 4.2699776.8981476 8.3940125-2.3349609 11.7324219-2.7578278 2.84861-7.6320419 3.2980653-10.8652344.998047z" fill="#2a3134"/></g></g><g><path d="m132.266571 91.8765106c.0102386.0204697 0 .0511856-.0102386.0715942-.9336548 6.2249756-3.0522156 12.0910568-5.726799 16.638504-.0102386.0408783-.0408859.0715942-.0715942.1022415-2.3381577 4.1569824-6.1702728 7.9837265-6.2994843 8.048233-.2863693.2761307-.5726852.552269-.8692856.8181686l-10.1855392-16.8225708c2.4418564-3.7774887 5.4534912-12.6177673 6.2994843-16.638504 1.7765198-7.9259491-.5632629-12.271759-.3170166-16.6180344.2454224-5.1848297 5.0110016-8.4163704 10.0424118-7.1994171 3.4156036.8181038 5.0518799 3.6610947 5.9620514 6.8108063 2.1274566 8.9836961 2.3369292 18.1564332 1.17601 24.7889787z" fill="#fff"/></g><g><path d="m132.266571 91.8765106c.0102386.0204697 0 .0511856-.0102386.0715942-.8711853 5.8085251-2.8107758 11.3884964-5.1438828 15.6056213-.0920639.1738281-.1943054.3477249-.286377.521553-.1840668-.9510498.0715942-1.9634628.3068466-2.9247513 2.5975037-10.5128555 4.0394135-21.5063248 2.2497711-32.1930084-.3681335-2.1577682-.8794556-4.3462524-2.0452881-6.2074127-3.6564102-5.8376884-10.7036209-3.9656143-12.230835 2.3623123-.0409393-.5420303-.051178-1.0942383-.0204697-1.6362762.2454224-5.1848297 5.0110016-8.4163704 10.0424118-7.1994171 3.4156036.8181038 5.0518799 3.6610947 5.9620514 6.8108063 2.1274569 8.983696 2.3369295 18.1564331 1.1760103 24.7889786z" fill="#dde4ee"/></g><g><path d="m119.005661 117.8113403c-.1416016-.1572266-.1289063-.3994141.0292969-.5410156.2929688-.2636719.5751953-.5361328.8583984-.8105469.0263672-.0253906.0556641-.046875.0888672-.0644531.3076172-.3212891.6005859-.6152344.8828125-.9199219 1.6150589-1.6255188 3.8981705-4.5511398 5.2607422-6.9726563l.3369141.1855469-.2705078-.2724609c-.0029297.0029297-.0283203.0351563-.0400391.0908203.1481323-.7077484 8.7466888-12.414917 5.8222656-34.5488281-.0504913-.4113617-.0827789-.6679459-.1181641-.8935547-.2978516-1.9863281-.6806641-3.9658203-1.1367188-5.8837891-1.0986328-3.7822266-2.90625-5.8642578-5.6826172-6.5332031-4.7797165-1.1521149-9.3343124 1.8858109-9.5722656 6.8447266-.209671 4.4429092 2.0857468 8.7290573.3164063 16.6845703-.9509354 4.2998657-3.8690491 12.9150238-6.3564453 16.7666016-.1142578.1777344-.3515625.2285156-.5302734.1142578-.1777344-.1152344-.2294922-.3525391-.1142578-.5302734 2.4185104-3.7434692 5.2718964-12.169838 6.2529297-16.5175781 1.7285843-7.7461548-.5471725-12.0981064-.3339844-16.5546875.2624969-5.4890099 5.3222656-8.8045425 10.5175781-7.5537109 3.0302734.7304688 5.0722656 3.0478516 6.2441406 7.0839844 2.1785583 9.1335297 2.2878113 18.1068649 1.1845703 24.9501953h-.0009766c-.0009766.0244141-.0039063.0478516-.0078125.0703125l.0009766.0009766c-.0807495.3657608-.4700165 3.7437897-2.0419922 8.4873047-.7662506 2.300087-1.6770325 4.4089813-2.3779297 5.7705078-.1357574.2810593-1.2688751 2.4619293-1.4716797 2.6816406-1.2078323 2.3042908-4.2077179 6.2052002-7.1992188 8.8945313-.1596144.1447142-.4033202.1262815-.5410155-.0292971z" fill="#2a3134"/></g><g><path d="m77.0435791 97.0613403-10.0628204 16.883934c-.3068466-.255661-.5931549-.5317993-.8795242-.807869-.0765839-.038353-.8950729-.8881912-.9919434-.9920044-2.6258278-2.6258316-5.3568268-6.8243256-5.4302559-7.1175919-2.8759422-4.6005707-5.0407295-11.2047348-5.8495789-16.5976181-.0101738-.0204086-.0204086-.0511169-.0101738-.0715942-1.1810608-6.7475967-1.0807037-15.6305084.9919395-24.7889748.8999329-3.1599464 2.5055008-6.013176 5.9211082-6.861927 4.9830627-1.2345848 9.7736206 1.8971977 10.0935287 7.1278267.1125412 2.0555305-.2965469 4.1008263-.5828552 6.1358833-.3988419 2.7918091-.4704361 6.0643005.0306473 8.8561707.8707658 4.739296 4.1700059 14.2737046 6.7699281 18.2337647z" fill="#fff"/></g><g><path d="m70.611145 62.4038506c-1.012413-.9920006-2.1475983-1.7896347-3.5792694-2.1578369-2.4236679-.6237984-5.1439476.0920677-6.9642296 1.8203468-2.2600746 2.1577682-2.9247589 5.4813766-3.262249 8.5902023-.9612923 8.6720963-.3681374 17.5179672 1.7589264 25.9752884.629406 2.5030594 1.4142151 5.1416245.6647453 7.6289749-.0630302-.1008987-.4971619-.8715439-.9204102-1.7180405-1.8016167-3.4034653-3.703743-8.9423523-4.4792023-14.1125946-.0101738-.0204086-.0204086-.0511169-.0101738-.0715942-1.1856194-6.7736282-1.0797081-15.6349106.9919395-24.7889748.8999329-3.1599464 2.5055008-6.013176 5.9211082-6.861927 4.5405581-1.1249504 8.8868105 1.3805466 9.8788149 5.6961556z" fill="#dde4ee"/></g><g><path d="m69.7449188 116.6482544c-.125-.1103516-.7783203-.6455078-1.5146484-1.2490234-2.345787-1.923172-2.4449921-1.9770126-3.4013672-2.9931641-1.6513023-1.6348953-3.9801025-4.5768433-5.4179726-7.0800781.0468941.2032013-2.7464027-4.544014-4.1923828-9.3730469-1.1706123-3.6003723-1.6659241-6.9461441-1.7705078-7.4560547h.0009766c-.0048828-.0234375-.0078125-.046875-.0087891-.0722656-1.2167778-7.2161713-1.0369339-16.0978241 1.0019531-24.9404297 1.1464844-4.0615234 3.1728516-6.3925781 6.1982422-7.1455078 5.1752205-1.2884941 10.2697945 1.9831772 10.5712929 7.4785156.1153183 2.1094818-.3068161 4.2073059-.5878906 6.2060547-.4335938 3.0556641-.4238281 6.2392578.0253906 8.7324219 1.17939 6.0399323 4.5598907 14.8099365 6.7158203 18.0898438.1162109.1777344.0673828.4150391-.109375.53125-.1777344.1171875-.4150391.0673828-.53125-.109375-2.5808258-3.9339447-5.8086624-13.1163635-6.8291016-18.3701172-.4648438-2.5761719-.4755859-5.8476563-.03125-8.9814453.282547-1.9881439.691124-4.0497437.5820313-6.0566406-.2743073-4.9974174-4.8966446-7.951458-9.620121-6.7763672-2.7734375.6894531-4.5654297 2.7841797-5.640625 6.5917969-3.0899696 13.3944626-2.3763733 29.3888016 4.8173828 41.1572266.0214844.0341797.0361328.0722656.0458984.1113281.680336 1.0331039 1.30439 2.165184 2.8271484 4.0703125 1.1256447 1.4460068 2.2371559 2.6108932 3.3955116 3.765625.0501022.0258636-.3138428-.23703 2.4453125 2.0273438.7480469.6123047 1.4101563 1.1552734 1.5361328 1.2675781.1591797.140625.1738281.3828125.0332031.5410156-.1425703.1608428-.3846205.1726912-.5410155.033203z" fill="#2a3134"/></g><g><path d="m120.1501923 65.9636841c-.2060547 0-.3759766-.1630859-.3828125-.3710938-.0498047-1.4404297-.7441406-2.8476563-1.8574219-3.7636719-.1640625-.1337891-.1875-.3759766-.0527344-.5390625.1337891-.1640625.3759766-.1875.5390625-.0527344 1.2822266 1.0537109 2.0810547 2.671875 2.1367188 4.3300781.0078125.2109375-.1582031.3886719-.3701172.3955078-.0039063.0009767-.0087891.0009767-.0126953.0009767z" fill="#2a3134"/></g><g><path d="m124.990036 66.3630981c-.203125-.0585938-.3203125-.2714844-.2617188-.4746094.5546875-1.9199219-.1992188-4.1894531-1.7939453-5.3964844-.1689453-.1279297-.2021484-.3681641-.0742188-.5371094.1289063-.1689453.3691406-.2021484.5371094-.0742188 1.8681641 1.4130859 2.7177734 3.9716797 2.0673828 6.2207031-.0594558.2086947-.2795867.3213121-.4746093.2617189z" fill="#2a3134"/></g><g><path d="m65.3132782 64.1248169c-.0097656 0-.0195313-.0009766-.0292969-.0009766-.2109375-.0166016-.3691406-.2011719-.3535156-.4121094.1689453-2.1767578 1.0292969-4.2998047 2.4248047-5.9785156.1367188-.1630859.3798828-.1835938.5400391-.0498047.1630859.1357422.1855469.3769531.0498047.5400391-1.2949219 1.5576172-2.09375 3.5273438-2.2490234 5.546875-.0156251.2011719-.1835939.3544922-.3828126.3544922z" fill="#2a3134"/></g><g><path d="m59.0955009 64.352356c-.5771484-2.8583984.3447266-5.9160156 2.40625-7.9804688.1494141-.1474609.3916016-.1494141.5429688 0 .1494141.1494141.1494141.3925781 0 .5429688-1.8535156 1.8554688-2.7167969 4.7148438-2.1972656 7.2851563.0419922.2080078-.0927734.4101563-.2998047.4521484-.2184982.042015-.411499-.1008378-.4521485-.2998047z" fill="#2a3134"/></g><g><g><path d="m47.0881615 47.4923477c-1.6907921 0-3.0997887-1.2877541-3.2996674-2.9785461-.5242767-4.6693382-.604557-6.5993347-.604557-11.8715897.1212387-2.7360706.1605606-5.5540581.8863564-7.4840527 0 0 1.2058334-2.0938301 3.7813454-1.5695534 2.3756294.5209999 2.8179855 2.3330326 2.6574287 3.2996674-1.1020393 5.1898289-.7043839 11.607626-.1212387 16.9013729.2015152 1.808754-1.0862389 3.4602242-2.9375916 3.6601067-.1212387 0-.2424774.0425949-.3620758.0425949zm.3211174 8.2901268c-.201519 0-.4013977 0-.6029167-.0425987-2.728775-.6310272-3.4165115-3.5068321-2.0119133-5.3115768 1.1768494-1.5121155 3.2867699-1.7128105 4.7070236-.5635986 2.4574966 1.9659995 1.0166778 5.9177741-2.0921936 5.9177741z" fill="#fc5d59"/><path d="m43.7312431 52.9500122c-.4077263-3.2779846 3.4050064-5.495327 6.0117188-3.3828125 1.5644531 1.2509766 1.8417969 3.4980469.6289063 5.1152344-1.8849984 2.600647-6.2218209 1.6213493-6.6406251-1.7324219zm.7617188-.0947266c.1512527 1.2115364.9550209 2.1782799 2.3994141 2.5107422.1552734.0322266.3300781.0322266.5166016.0322266 2.7736626 0 4.0028992-3.515583 1.8535156-5.2333984-1.2543908-1.0148964-5.0929871.1123848-4.7695313 2.6904296zm2.5947265-4.9794921c-1.875 0-3.4570313-1.4267578-3.6796875-3.3173828-.5361328-4.7695313-.6074219-6.7138672-.6074219-11.9160156.097641-2.3719444.1452713-5.5831585.9101563-7.6191406.0410156-.0800781 1.4042969-2.3867188 4.2167969-1.8105469 2.5371094.5556641 3.1591797 2.5400391 2.9589844 3.7392578-1.0993843 5.1875229-.6899948 11.605442-.1181641 16.7958984.2245636 2.0051575-1.1995735 3.8592148-3.2773438 4.0830078-.1508102.005516-.2428703.0449219-.4033203.0449219zm-.046875-23.9882813c-1.7587891 0-2.5996094 1.3964844-2.6386719 1.4628906-.6682281 1.7917175-.7278481 4.7044315-.8349609 7.3085938.0009766 5.1503906.0712891 7.0820313.6025391 11.8115234.1777344 1.5029297 1.4316406 2.6376953 2.9179688 2.6376953.0342255 0 .2496872-.0419922.3623047-.0419922 1.5403061-.1700211 2.7394257-1.5903931 2.5566406-3.2333984-.5821266-5.276947-.9865112-11.7752228.1269531-17.0244141.1269531-.765625-.1982422-2.3710938-2.3642578-2.8447266-.2587891-.0527343-.5009766-.0761718-.7285157-.0761718z" fill="#2a3134"/></g></g><g><g><path d="m110.3770218 87.9238663c-1.179245.0095139-2.0865479-1.1399841-2.2502518-2.3067932-.0949631-.8082428.0686951-1.6096878.3144989-2.4052277.4626694-1.4123917 1.1203613-2.1382828 1.8096313-3.0402298 1.0164337.7802582 2.0336914 3.3519592 2.1982269 4.177002.5020295 1.8854217-.7170943 3.5432205-2.0721053 3.5752487z" fill="#4cb1f7"/></g><g><path d="m112.5263977 85.7330704c-1.4515533 1.4660416-3.3920898.2580566-3.6408844-1.6524811-.1066971-.809082.0568085-1.6105423.3144989-2.4052277.0688934-.2494888.0473785-.1905899 1.0508881-1.503746 1.0164337.7802582 2.0336914 3.3519592 2.1982269 4.177002.1335068.5013961.1391678 1.0466766.0772705 1.3844528z" fill="#71cfff"/></g></g><g><g><path d="m79.0385284 76.4350357c-1.179245.0095139-2.0865555-1.1399765-2.2502518-2.3067932-.1870117-1.5916977.6520691-3.6102524 1.5516663-4.6969299l.572464-.7485275c1.0164337.7802658 2.0336838 3.3519592 2.1982269 4.177002.5020295 1.8854216-.7170944 3.5432204-2.0721054 3.5752486z" fill="#4cb1f7"/></g><g><path d="m81.1879044 74.2442398c-1.4515533 1.4660416-3.3920898.2580566-3.6408844-1.6524811-.1067047-.809082.0568085-1.6105423.3144989-2.4052277.0688934-.2494888.0473785-.1905899 1.0508881-1.503746 1.0164337.7802658 2.0336838 3.3519592 2.1982269 4.177002.1335067.5013962.1391677 1.0466766.0772705 1.3844528z" fill="#71cfff"/></g></g><g><g><path d="m75.986084 90.0820999c-1.1792526.0095215-2.0865555-1.1399765-2.2502594-2.3067932-.0949631-.8082428.0686951-1.6096878.3145065-2.4052277.5241165-1.5999756 1.4371262-2.4953995 1.8096237-3.0402298 1.0164337.7802658 2.0336914 3.3519592 2.1982269 4.177002.5020295 1.8854294-.7170944 3.5432205-2.0720977 3.5752487z" fill="#4cb1f7"/></g><g><path d="m78.1354523 87.8913116c-1.4515533 1.4660416-3.3920822.258049-3.6408844-1.6524811-.1066971-.8090897.0568161-1.6105423.3145065-2.4052277.0677795-.2454758.0406952-.1864853 1.0508804-1.5037537 1.0164337.7802658 2.0336914 3.3519592 2.1982269 4.177002.1335068.5014039.1391678 1.0466844.0772706 1.3844605z" fill="#71cfff"/></g></g></g></svg>