<svg id="Layer_1" enable-background="new 0 0 150 150" viewBox="0 0 150 150" xmlns="http://www.w3.org/2000/svg"><g id="_x37_3"><g opacity=".3"><path d="m124.8973541 107.8541946c3.0336075 1.591568 4.5805206 4.4420776 1.4555435 7.684166-3.2417603 3.363266-7.2857285 5.948082-11.6993408 7.4779816-3.8532944 1.3356705-7.9313583 1.8657761-11.975975 2.3881836-18.7953339 2.4276428-38.2460175 4.8091888-56.4126091-.588295-2.9307289-.8707504-5.8978844-1.9975433-8.0803375-4.1386261-6.2848206-6.165657-1.2624626-11.7455368-.9830742-14.032547.6873627-5.6265717-7.0466518-6.0707016-10.8480091-8.051796-3.1557617-1.6415863-5.4269753-4.8797913-5.8992157-8.4103012-.479744-3.5305557.8619938-7.2485046 3.4705734-9.6696396 2.0538502-1.9114304 4.7448273-2.9683685 7.0685635-4.5424728 2.0530128-1.3952866 4.0884056-3.5486221 4.2201309-6.164032.0936127-1.8587418-.624752-5.2009201-1.6738091-6.7062378-.8464928-1.214653-1.9992447-2.1823502-2.9255047-3.3373299-1.8986206-2.3674431-2.7625561-5.6754532-1.7598343-8.5397301 2.4605045-7.0284309 14.589365-6.8297768 20.3388691-6.1129913 3.5755272.4497337 7.4433556 1.3567467 10.621624-.3523254 2.4286423-1.3117714 3.8678284-3.8603249 5.569397-6.0416374 4.1826401-5.3745003 11.0638046-8.9650307 17.7950974-7.9230995 6.7312393 1.0419312 12.5704727 7.5333023 11.6859741 14.2870522-.307312 2.3162308-1.2742615 4.8722878.0074997 6.8286896 1.3192749 2.0163803 4.1676788 2.0913658 6.5738602 2.2112808 4.4000473.2174072 8.7476196 1.2968063 12.7279053 3.1707649 3.0208435 1.4241829 6.2515411 4.4300156 5.0521774 7.5482635-1.169342 3.0508041-6.0416336 3.8903351-5.7567902 7.623291.2922897 3.7696152 5.8894501 5.5536652 8.348877 7.7268829 5.2314224 4.6226196 2.2870255 8.6911316-2.0461044 12.2594376-3.880249 3.1953659-6.2956161 9.0914307-.6932373 12.8204117 1.7703094 1.1783294 3.9345778 1.5966568 5.8177489 2.5846557z" fill="#bcc1cb"/></g><g><path d="m92.7147141 138.8927765c4.5055618-10.682312 5.6212387-22.7940826 3.0699463-34.1021576-.488739-2.2001343-.7013016-5.8820267-3.0586395-6.9431305-1.178299-.5303802-2.541748-.2428665-3.8120499-.0061417-6.0746994 1.1320419-12.4062042.8624878-18.362709-.7817612-8.5647087-2.3642273-12.4190979-5.7805176-15.4186401-4.2487259-1.577179.8054657-2.8544884 3.2082443-3.718895 4.7061768-5.6589355 9.5969238-9.8588104 27.1947937-9.1480026 38.3115768" fill="#fff"/></g><g><path d="m43.9209213 118.9529648c1.1347885 1.4004822 2.0609245 2.9697342 2.7384644 4.6400757.1299973.3204803-1.1700134 2.3324738-1.3490829 2.7314224-2.1501541 4.7902374-1.944725 6.4401245-2.9518547 9.2743835-.4051285-1.0613098-.0814323-2.8352509-.0388184-3.9832306.1583061-4.2645492.6957779-8.5085907 1.6012916-12.662651z" fill="#dde4ee"/></g><g><path d="m95.9742508 127.605484c-.7240982 3.8885498-1.8113022 7.7094116-3.2428513 11.3966675-.2112961-1.1481018-.4225922-2.2961884-.6338882-3.4442902-.1809692-.9833069-.7180252-2.2049103-.1167603-3.0152893.6283493-.8468628 1.4826889-1.5700226 2.150177-2.3975372.3970032-.4921875 1.8433228-1.9035797 1.8433228-2.5395508z" fill="#dde4ee"/></g><g><path d="m92.5662384 139.2445526c-.1933594-.0820313-.2851563-.3056641-.203125-.4995117 4.4921875-10.6489258 5.5751953-22.677742 3.0498047-33.8706131-.4831543-2.1853104-.7011185-5.7153931-2.8427734-6.6791992-1.0809631-.4853516-2.4008636-.2015152-3.5859375.0209961-6.125 1.1411133-12.5322266.8686523-18.5341797-.7890625-3.4051056-.9399414-6.7976685-2.3566589-10.3154297-3.7758789-4.7473335-1.9015808-5.7485962-.5650558-8.390625 4.0561523-5.6416016 9.5673828-9.8066406 27.012207-9.0976563 38.0966873.0298615.4949799-.7255249.566391-.7617188.0488281-.7167969-11.2119217 3.4970703-28.8559647 9.2011719-38.5297928l.2089844-.3657227c2.6797905-4.6896362 4.1660881-5.9949875 9.1230469-4.0141602 3.4615211 1.3964081 6.8893585 2.8250504 10.2353516 3.7485352 5.8916016 1.6269531 12.1835938 1.8945313 18.1904297.7744141 1.3544006-.253952 2.7725449-.535347 4.0390625.0336914 2.5440063 1.1446304 2.748703 4.8391953 3.2744141 7.2080078 2.5595703 11.3457031 1.4619141 23.5395584-3.0908203 34.3330154-.0796281.188965-.2979737.2864381-.5000001.2036134z" fill="#2a3134"/></g><g><path d="m103.0739441 89.0364151c-1.6757507 2.406105-2.9797897 3.667717-4.1657333 4.9008636-.1703796.1022263.0698547.0051041-.8625565.7939377-.7243347.6987457-2.8681335 2.4353638-4.4793396 3.4110489-.6323242.4147949-1.9329071 1.1546631-2.0290298 1.1957779-.0239716 0-.2754135.1574631-.9409256.4900894-.3333435.1764221-.6762619.3332825-1.0194168.4802704-.0196228.0294342-.049057.0294342-.0685654.0392456-6.1652908 2.8181458-13.0193176 3.5287781-19.103569 2.3818207-.0392456 0-.0881805-.0098114-.1274261-.0294342-2.9694595-.539711-5.583725-1.4460373-8.2531013-2.7346649-.0098114-.0098114-.0293159-.0098114-.0489388-.0294342-4.0865746-1.9343643-7.1529999-4.8111649-7.2533035-4.861618-.1132126-.1133118-2.7140045-2.3607559-4.5774536-4.9498672-3.4335785-4.4298553-6.1473274-10.9647675-6.46912-16.7511902-.0601044-.1801224-.159771-2.3246689-.0881844-3.9696884.6451073-14.467968 11.3555641-26.2752647 25.3276443-29.356205 12.2245102-2.648716 24.2507401 1.5566063 30.865654 9.3116455 3.5156479 4.1129951 7.2061157 9.8218002 8.3609085 14.8986473 2.1465224 8.4589004-.1078034 17.7117385-5.0675431 24.7787551z" fill="#fff"/></g><g><path d="m103.0739441 89.0364151c-1.6757507 2.406105-2.9797897 3.667717-4.1657333 4.9008636-.1703796.1022263.0698547.0051041-.8625565.7939377-.7243347.6987457-2.8681335 2.4353638-4.4793396 3.4110489-.6323242.4147949-1.9329071 1.1546631-2.0290298 1.1957779-.0239716 0-.2754135.1574631-.9409256.4900894-.3333435.1764221-.6762619.3332825-1.0194168.4802704-.0196228.0294342-.049057.0294342-.0685654.0392456-6.1652908 2.8181458-13.0193176 3.5287781-19.103569 2.3818207-.0392456 0-.0881805-.0098114-.1274261-.0294342-2.9694595-.539711-5.583725-1.4460373-8.2531013-2.7346649-.0098114-.0098114-.0293159-.0098114-.0489388-.0294342-4.1562881-1.9673615-7.1487045-4.8089981-7.2533035-4.861618-.1132126-.1133118-2.7140045-2.3607559-4.5774536-4.9498672-3.4335785-4.4298553-6.1473274-10.9647675-6.46912-16.7511902-.055748-.1670685-.1619339-2.2749786-.0881844-3.9696884 3.7540207 10.4682465 10.1838989 20.4953995 20.0739326 25.5236893 10.1349602 5.165535 23.1615028 4.0579376 32.2868538-2.7346573 8.5372696-6.3417511 13.281395-17.3784561 12.1934204-27.9349442 2.1465224 8.4589004-.1078034 17.7117385-5.0675431 24.7787551z" fill="#dde4ee"/></g><g><path d="m70.3347931 103.0995255c-.0117188.0063477-.0986328-.0068359-.1806641-.034668-6.4278412-1.1620255-12.4448967-4.5319214-16.5810547-8.5332031-.0009766 0-.1113281-.0957031-.1113281-.0961914-3.5782204-3.4742889-6.0002174-7.0657654-7.8564453-11.4838867l.3076172-.2583008-.3505859.1494141c-1.1236916-2.6310883-2.0725746-6.4306564-2.2685547-9.4438477-.0146484-.0361328-.0146484-.1230469-.0146484-.1928711-1.4711151-14.7724457 9.0542259-29.8870239 25.5556641-33.5317383 12.2193451-2.6645699 24.4777908 1.5196152 31.2373047 9.4350586 3.4945221 4.0929947 6.8175964 9.2352371 8.2734375 14.4165039 2.3417969 8.3374023.4892578 17.956543-4.9550781 25.730957-7.3311922 10.4633026-20.2043382 16.2849426-33.0556642 13.8427735zm-25.9980469-27.3969727c.3916702 2.3032455 1.0230446 4.7160492 1.9267578 6.8413086 0 .0004883.0449219.1113281.0449219.1118164 1.2121696 2.8827133 2.6758461 5.3583298 4.1396484 7.2363281 2.2507782 3.0948181 5.4603958 5.701088 5.1386719 5.4223633.0664063.0512695.1328125.1030273.1982422.1611328 1.4867134 1.280632 3.19627 2.3136215 3.3085938 2.4072266.5229721.1718369 6.9972382 5.2198181 18.0849609 4.9746094 4.3181534-.134201 8.8256989-1.2633209 12.1630859-2.8530273.0351563-.0361328.0419922-.0249023.0888672-.0444336.9235992-.3919907 1.8895035-.9553375 1.9902344-.9868164.3860092-.2573395 2.6090622-1.3165436 5.5292969-3.7885742 9.7118912-8.2164612 13.6205063-20.914856 10.6611328-31.4526367-1.4170227-5.0489807-4.6872559-10.1086044-8.1191406-14.1274414-6.6249084-7.7586021-18.6245193-11.7733345-30.4941406-9.1850586-16.1869507 3.5747375-26.8178635 18.5061302-24.8417969 33.9633789l-.3642578.1616211.3759766-.0625c.046875.3833008.0966797.7456055.1552734 1.1074219l-.3623047.1772461z" fill="#2a3134"/></g><g><path d="m94.6570358 97.420105v.0073471c-.5777283.4008408-1.4228821.9551697-2.0545349 1.306076 0 0 0-.0073471.0073471-.0073471.6970367-.4182053 1.3794785-.8658371 2.0325012-1.3354111.0073395.0073014.0073395.021988.0146866.0293351z" fill="#fff"/><path d="m92.2215118 98.7333145c0-.1396484.078125-.2651367.1923828-.3339844v-.0004883c.6933594-.4160156 1.3681641-.859375 2.0058594-1.3178711.2682877-.1924667.6181641.0223389.6181641.3393555v.0073242c0 .125-.0605469.2421875-.1640625.3134766-.6253204.4342041-1.4719772.9844437-2.0869141 1.3256836-.1201858.0662003-.5654297-.0439911-.5654297-.3334961z" fill="#2a3134"/></g><g><path d="m76.8553009 76.2245255c-.2089844-.0244141-.359375-.2133789-.3349609-.4228516l.2636719-2.2822266c.0244141-.2084961.2021484-.3579102.4228516-.3349609.2089844.0244141.359375.2133789.3349609.4228516l-.2636719 2.2822266c-.0230332.1992721-.2000656.3572387-.4228516.3349609z" fill="#2a3134"/></g><g><path d="m95.9775009 36.2932854c-1.7643585 2.4406815-3.538414 4.8813057-5.2929611 7.3219261-.0685577.0881844-.1372375.1764259-.1959839.2646675-18.121727-3.3465881-12.2198486-2.2566719-13.4284515-2.479866 2.4504318-.9017448 4.6754456-2.3524399 6.8317795-3.8324547 2.1077499-1.436676 4.4224167-3.1090775 5.9791565-5.2145271-.5978928 2.5876122-1.8231125 5.0282936-3.538414 7.0474472 3.391365-.3136635 6.7043533-1.3820763 9.6448745-3.107193z" fill="#fff"/></g><g><path d="m87.7327118 35.1948853c-.7208023 1.1936378-1.4420624 2.3880005-2.2280121 3.5397797-.5653992.8285675-1.1821518 1.6521835-2.0199585 2.2037964 1.1978607.1939621 2.423439.0920486 3.6265335-.0662422 4.8195724-.6341057 5.6863632-1.9258156 6.1432571-2.0646629.0244522.1445999-.2012177.3453827-.2811661.4534683-.9809418 1.3262138-1.8848419 2.7521515-2.6882401 4.2690544 1.5489044-1.4504967 2.6516876-2.9992294 5.9906693-7.3630981-.0099182.0129623-.2299957.0185738-.2645493.0277672-.2687683.0715141-.542366.2807922-.8081131.3791008-2.7563324 1.0196571-5.160675 2.4694862-8.4210358 2.5641899 1.2303009-2.2327728 1.185524-.9826279 2.7513809-4.657917.1930389-.4530945.378418-.9198952.4129639-1.4111824.0064392-.0915337-.0286484-.1412354-.115921-.0941238-.9561996.5161552-1.1437759.3784027-1.2973785.6763878-.2673339.5186193-.4964599 1.040302-.8004302 1.5436819z" fill="#dde4ee"/></g><g><path d="m90.2625275 44.1844864c-.1708984-.1235352-.2089844-.3618164-.0849609-.5322266l4.5107422-6.2290039c-2.5966797 1.2822266-5.4423828 2.0922852-8.3212891 2.3618164-.3479614.0240364-.5426025-.3697128-.3261719-.6264648 1.3017578-1.5351563 2.3134766-3.3120117 2.9736328-5.2109375-1.4570313 1.5219727-3.2070313 2.7739258-4.9052734 3.9375-2.1152344 1.4492188-4.3925781 2.9418945-6.9228516 3.8691406-.1972656.0717773-.4169922-.0288086-.4892578-.2265625s.0292969-.4169922.2275391-.4892578c2.4472656-.8969727 4.6777344-2.3603516 6.7529297-3.7822266 2.2158203-1.5180664 4.3339844-3.0522461 5.8867188-5.1289063.247757-.3273888.7701111-.0856133.6767578.3144531-.5400391 2.3408203-1.5820313 4.5629883-3.0332031 6.4794922 3.0117188-.4052734 5.9580078-1.418457 8.5742188-2.9536133.3584747-.2083626.7424622.2228622.5019531.5527344l-5.4892578 7.5791016c-.1239015.1719933-.3640825.2080193-.5322267.084961z" fill="#2a3134"/></g><g><path d="m105.7244492 58.4554291c1.1609726 3.0282631 2.5969467 6.6041641 3.0636139 9.8223343 10.8136673-4.673996 12.4207687-19.6678505 2.7085419-25.5122986-4.838501-2.9116287-12.6654968-2.5128593-16.8850327 2.1610603" fill="#fff"/><path d="m108.410965 68.3324356c-.4591293-3.1630783-1.8814621-6.7230606-3.0429688-9.7402344-.0751953-.1967773.0234375-.4174805.2197266-.4926758.1943359-.0732422.4169922.0224609.4931641.2192383 1.1371994 2.9550743 2.4740829 6.3239822 3.0048828 9.40625 10.065239-4.7296753 11.5754471-18.9985466 2.2148438-24.6328125-4.5429688-2.7338867-12.2197266-2.5463867-16.40625 2.0898438-.1416016.1572266-.3828125.1674805-.5390625.027832-.15625-.1411133-.1679688-.3823242-.0273438-.5385742 4.4375-4.9160156 12.5644531-5.1235352 17.3652344-2.2324219 6.5185318 3.9224777 8.8065262 12.8495712 4.2529297 20.1572266-1.6992188 2.7275391-4.0576172 4.7568359-7.0068359 6.0317383-.231476.0995407-.4934236-.0480729-.5283204-.2954102z" fill="#2a3134"/></g><g><path d="m109.5012894 58.3967857c-.381485.2274055-.7945938.43153-1.22686.4484329-.4322891.0169067-.8859863-.1987305-1.0243607-.6045036-.3787231-1.1105385 1.7027283-3.3070564 1.7779465-5.2019272.0251999-.6349182-.2690353-.8084869-.9062729-.7782021-.6746902.0320625-1.3499146.120491-2.0165329.2640915-.4469299.0962753-1.0399933.1482925-1.2021408-.2689323-.2344818-.6033707.7794113-1.0409317.9267426-1.6931763-.4356995-.4930115-1.3660812-.541729-1.4920273-1.2022133-.1089096-.571106.5025711-1.0353279 1.0284729-1.3171349 1.1271362-.6039886 2.29422-1.1730232 3.5320435-1.3981438 1.2378159-.2251205 2.5700455-.069706 3.5349045.6730347 1.0143814.7808723 2.0217896 2.5762177 1.9123688 3.9437561-.1151581 1.4392014-1.2229919 2.7963448-1.8352814 4.0696526-.6054536 1.2590867-1.8217546 2.3575326-3.0090028 3.0652657z" fill="#dde4ee"/></g><g><path d="m111.8845978 56.6971817c-.171875-.1210938-.2128906-.3588867-.0917969-.53125 1.25-1.7749023 1.9150391-3.2607422 2.0947266-4.6757813.1835938-1.4575195-.2490234-3.3129883-1.6328125-4.1738281-1.2958984-.8056641-3.2509766-.6298828-5.2333984.472168-.1845703.1015625-.4169922.0356445-.5185547-.1484375-.1025391-.184082-.0361328-.4160156.1474609-.5185547 2.2265625-1.2373047 4.4726563-1.40625 6.0068359-.4526367 1.46875.9135742 2.2490234 2.84375 1.9863281 4.9169922-.2558594 2.027832-1.3935547 3.8354492-2.2275391 5.0195313-.1198348.1702956-.3566436.2145232-.5312499.0917968z" fill="#2a3134"/></g><g><path d="m50.7102356 52.8873367c-1.9022636 2.7281837-4.2123184 5.9385986-5.48172 8.9692459-9.4180984-6.365921-7.2221794-21.135643 3.7801781-25.1231995 5.4786606-1.9856186 13.0524368-.259697 16.0106239 4.9806099" fill="#fff"/><path d="m45.0144806 62.1722794c-9.707634-6.5618439-7.3835564-21.7208748 3.8642578-25.7973633 5.4365234-1.9707031 13.3554688-.371582 16.4726563 5.1513672.1035156.1835938.0390625.4160156-.1445313.5195313-.1845703.1049805-.4160156.0385742-.5195313-.1445313-2.9277344-5.1865234-10.4033203-6.6728516-15.5488281-4.8095703-10.5189819 3.8125648-12.8169212 17.8519363-4.0742188 24.1845703 1.3021736-2.9097214 3.4711418-5.9425812 5.3330078-8.6069336.1201172-.1733398.3574219-.2148438.5302734-.0952148.1728516.1206055.2158203.3583984.0947266.5307617l-.423828.6083984c-5.6231155 8.0445213-4.7045517 8.3419418-5.2607422 8.5083008-.0361328.0107422-.230381.0125923-.3232422-.0493164z" fill="#2a3134"/></g><g><path d="m47.0218391 52.183815c.3166771.2851372.6702423.5531883 1.089817.6435585.41959.0903778.9188385-.0403481 1.1568832-.4088554.6533127-1.0113716-.8363266-3.4832916-.4310112-5.3325081.1353722-.6176071.4672356-.7354927 1.084919-.5969734.6534424.1465416 1.2931938.3476563 1.9105873.6006241.4139252.1695976.9823112.3214493 1.2465439-.0540543.382122-.5430412-.5016251-1.1396179-.4815407-1.7952881.5515785-.4019051 1.4761047-.2896538 1.7662163-.9064865.2508507-.5333595-.2315979-1.0867844-.6761513-1.4492416-.9527931-.7768326-1.9535713-1.5267181-3.110466-1.9563103-1.1568909-.4295883-2.502346-.5075302-3.6357613.0451317-1.1915932.5810356-2.6322632 2.1438255-2.869957 3.4843826-.2501526 1.4108009.493721 2.9123039.7728577 4.2479057.276024 1.3206825 1.1915056 2.5907097 2.1770631 3.4781151z" fill="#dde4ee"/></g><g><path d="m44.622879 49.9364395c-.5195313-1.2910156-1.1806641-3.2392578-.9199219-5.2470703.2646484-2.0415039 1.5068359-3.7651367 3.1640625-4.3916016 1.7373047-.65625 3.8974609-.105957 5.7753906 1.4750977.1601563.1352539.1816406.3759766.0458984.5371094-.1367188.1611328-.3759766.1816406-.5380859.0458984-1.6621094-1.3999023-3.5371094-1.9023438-5.0136719-1.3447266-1.3759766.5200195-2.4521484 2.0375977-2.6777344 3.7758789-.1806641 1.3935547.0966797 2.9389648.8710938 4.8642578.0791016.1953125-.015625.4174805-.2109375.4960938-.1932906.0785256-.4170875-.0140724-.4960937-.2109375z" fill="#2a3134"/></g><g><path d="m73.4898682 66.1836624c3.0574646-.6633911 6.2998352-.2089996 9.2163162.8437347 1.8797379.6785126 1.7199554 2.0372162.4466171 3.2437592-1.5980911 1.5142593-5.4799652 4.7368546-7.5966797 2.5165558-.801178-.8403854-1.5892868-1.7024918-2.2448349-2.6638107-1.2814636-1.8791962-2.0379486-3.4593125.1785813-3.940239z" fill="#2a3134"/></g><g><path d="m78.050766 68.5356293c-.8602982.3224335-1.8511658.4456406-2.7575989.2648926-.4042282-.0806046-1.2987976-.3398743-1.0000839-.9227676.2705841-.5280075 1.0678329-.6866684 1.5933456-.7662125 2.6699143-.4041215 3.7653809.8240356 2.1643372 1.4240875z" fill="#fff"/></g><g><g><g><path d="m64.9552002 57.9831657c-.5856628 2.893631-2.7038879 3.9637566-3.9772949 3.3114624-1.5471992-.6945305-1.9778633-2.9632301-1.6290512-4.701107.4611626-2.2834129 2.0892105-3.8255005 3.6408119-3.441246 1.5372505.3823089 2.4197807 2.5465431 1.9655342 4.8308906z" fill="#2a3134"/></g></g><g><g><path d="m63.7626152 56.7140121c-.1575432.7843819-.7174454 1.3138084-1.2469826 1.1823883-.5321732-.1320724-.8363342-.8759384-.6787872-1.6603203.1575317-.7843323.7174339-1.3137589 1.2496071-1.1816864.5295372.1314164.8336983.8752862.6761627 1.6596184z" fill="#fff"/></g></g></g><g><g><g><path d="m89.2946243 62.1632652c-.4135742 3.5107841 2.1655807 5.6804314 4.3229904 3.579998 2.3970032-2.3632507 1.7246704-7.3588448-.9496765-7.5576363-1.579834-.1158599-3.0929489 1.6654969-3.3733139 3.9776383z" fill="#2a3134"/></g></g><g><g><path d="m90.8233719 61.3290329c-.09478.7944145.2722168 1.4719772.8163376 1.5121536.5468292.0403709 1.067688-.57164 1.162468-1.3660545.0947723-.7943649-.2722244-1.4719276-.8190536-1.5123024-.5441209-.0401726-1.0649797.5718422-1.159752 1.3662033z" fill="#fff"/></g></g></g><g><g><g><path d="m36.1328773 32.2166443c2.4242172 5.50457 1.3183937 11.5717239-2.5656471 14.6854515-10.9077301 8.7444344-25.9738464-13.5545273-13.2469311-22.175972 5.7567902-3.9483471 12.9705983 1.1127052 15.8125782 7.4905205zm-10.6543598-2.7898159c-.9213772-.2801609-1.4608364-.0322437-1.8231506.211134-.1759949.1911545-1.7757607 1.0906181-2.1650677 3.355217-.718462 5.0495949 4.7767982 11.4465714 8.0181541 9.4849815 1.8149166-1.085865 2.7354622-4.3209457 1.1714916-7.8316116-1.1136226-2.4837914-3.2848033-4.6753083-5.2014274-5.2197209z" fill="#8c71de"/></g></g><g><path d="m15.2342081 32.0038223c.5058594-3.1508789 2.1904306-5.7763672 4.8720713-7.5932617 5.935854-4.0704975 13.4091053.9979248 16.3749981 7.6508789v.0014648c2.4902344 5.652832 1.3896484 11.8774414-2.6757813 15.1367188-8.3834324 6.7420197-20.2056999-4.7297478-18.5712881-15.1958008zm5.3017588-6.9633789c-2.5048828 1.6972656-4.0771484 4.1459961-4.5478525 7.0830078-1.518548 9.7116966 9.4421721 20.8111839 17.3408203 14.4814453 3.7958984-3.0439453 4.8056641-8.8969727 2.4550781-14.2338867-2.7596216-6.1934356-9.7232485-11.1188183-15.2480459-7.3305664zm2.5166015 4.5922852.3642578-.2919922c.4257813-.2880859 1.0839844-.6088867 2.1689453-.2797852 2.0302734.578125 4.2675781 2.8105469 5.4414063 5.4296875 1.6572247 3.7182617.6289063 7.1469727-1.3232422 8.3144531-4.5249653 2.7432595-12.3516636-8.6074485-6.6513672-13.1723632zm.8154297.3217773-.3388672.2729492c-.9189453.7368164-1.4628906 1.6621094-1.6630859 2.8300781-.3242188 2.2797852.7480469 4.8833008 1.9550781 6.4482422 1.9892578 2.5341797 4.0419922 3.5209961 5.4902344 2.6459961 1.6679688-.9980469 2.5039063-4.019043 1.0195313-7.3500977-1.0712891-2.3901367-3.15625-4.496582-4.9570313-5.0083008-.0019531-.0004883-.0039063-.0009766-.0068359-.0019531-.6737557-.2044849-1.1073742-.1001376-1.4990235.163086z" fill="#2a3134"/></g></g><g><g><g><path d="m54.2348442 33.9346123c-1.2361679.5892029-2.7489777.2701721-3.6490746-.8601379-1.6382828-2.0985126-2.9487953-4.431385-4.2149506-6.7463341-3.5023422 1.7084103-5.577652 3.0572987-6.2514687 3.6584282l-.1664009.3202114c1.2953377 2.3010387 2.4076881 4.1293736 2.8012962 4.620512 1.076004 1.246666.9263382 3.1182251-.3202667 4.1909447-1.2486267 1.0753098-3.1513901.9421463-4.2241096-.3044624-.2846451-.3444939-1.1855965-1.3946381-5.6296158-9.5504246-4.4940872-8.2539997-4.5189896-8.640913-4.5702858-9.3359032-.0661716-1.6482353 1.1858768-3.0442028 2.8341122-3.1103725 1.3733196-.0555859 2.5695744.7740459 2.9639645 2.0249424.3729935.7825527 1.6666222 3.2439213 3.1476021 6.0164032 1.4253922-1.039114 3.4971962-2.3065739 6.6592407-3.8137245-.8426514-1.5971622-2.4209251-4.4030247-2.8575859-5.1552334-1.3636398-1.7015314-.5249748-4.1567888 1.527256-4.766243 2.7519226-.765336 3.8294334 2.179903 4.8002625 3.8695641 3.4626312 6.0487137 5.4170036 10.8248196 8.2210121 14.3930588 1.0248604 1.310112.795723 3.1788559-.516346 4.203022-.1778412.1254576-.3583412.2521819-.5546417.3457488z" fill="#8c71de"/></g></g><g><path d="m37.9207306 39.0624161c-.3300781-.3994141-1.2792969-1.5488281-5.6757813-9.6162109-4.5283184-8.3173828-4.5576153-8.7084961-4.6152325-9.487793-.0751953-1.8754883 1.3613281-3.4487305 3.1992188-3.5219727 1.5410137-.0654297 2.8906231.8569336 3.3427715 2.2910156.3085938.6386719 1.4238281 2.7709961 2.9160156 5.5678711 1.5898438-1.1186523 3.5625-2.2421875 6.0039063-3.4223633-.8564453-1.6005859-2.2490234-4.078125-2.6640625-4.7919922-1.4279251-1.7593498-.6576118-4.609396 1.7490234-5.3232412 2.4384766-.6777344 3.6865234 1.3251953 4.2207031 2.1816406.0628395.1007452 1.0874977 1.9723158 1.0224609 1.871582 3.5046196 6.1199675 5.41082 10.808568 8.1855469 14.3393545.5585938.7138672.8066406 1.5981445.6972656 2.4902344-.3593559 2.9310074-4.1089058 4.0662231-6.0146484 1.671875-1.5683594-2.0078125-2.8300781-4.2099609-4.0761719-6.4814453-3.3886719 1.6733398-5.1992188 2.8930664-5.7880859 3.3955078l-.0371094.0727539c1.2041016 2.1318359 2.2910156 3.9228516 2.6650391 4.3891602 1.1918716 1.3801155 1.051651 3.4947739-.3681641 4.71875-1.4109534 1.2140007-3.5501174 1.0628701-4.7626952-.3447265zm-7.060545-21.8642578c-1.4189453.0566406-2.5263672 1.2744141-2.4697266 2.7143555.0449219.5952148.0742188.9956055 4.5244122 9.1689453 2.8935547 5.3100586 4.7695313 8.4975586 5.5761719 9.4736328.4599609.5351563 1.09375.8515625 1.7919922.9013672 2.294754.1666336 3.6994286-2.524826 2.1826172-4.2802734-.4228516-.5268555-1.5634766-2.4042969-2.8447266-4.6826172-.1512833-.2676563.0758896-.4692745.1591797-.6826172.0214844-.0410156.0507813-.078125.0849609-.1088867.7138672-.6362305 2.8017578-1.9916992 6.3388672-3.7167969.1796875-.090332.4033203-.0195313.5019531.159668 1.2880859 2.3564453 2.5771484 4.6411133 4.1806641 6.6948242.7705078.9677734 2.0791016 1.2788086 3.1845703.7504883 1.5093956-.7165375 1.9734726-2.6411991.9345703-3.9697266-2.8947449-3.6830997-4.6614647-8.1685581-8.2519531-14.4384756-.9104576-1.5396099-1.8761902-4.3862505-4.3662109-3.6914063-1.7902641.5313234-2.527401 2.6713009-1.3320313 4.1606445.4804688.819335 2.0683594 3.6450186 2.8964844 5.2158194.1007652.1894379.0251312.4271069-.1728516.5219727-2.7167969 1.2944336-4.9365234 2.5654297-6.5986328 3.7773438-.1845131.1338253-.450325.0785065-.5605469-.128418-1.6240234-3.0390625-2.8037109-5.2939453-3.1552734-6.0317383-.3581543-1.1212083-1.3690376-1.854435-2.6044903-1.8081055z" fill="#2a3134"/></g></g><g><path d="m96.6110764 34.8174858c-2.4339523-.996479-1.5295944-3.4666996-.6738358-5.2109222 2.5746918-5.2022762 4.6303177-15.4411764 11.9040146-14.9388819 1.276123.0960226 2.3802872.6897392 3.1615295 1.6485128 2.3564529 3.0267944.9444275 9.0234413.0469894 15.145298.4651489-.4564056 2.0867233-2.4029617 3.174614-4.0256348 1.5806808-2.3002968 2.682457-4.2994003 3.3920593-6.0326309.5727463-1.3989658 2.16008-2.0630894 3.5590439-1.4903412s2.062355 2.1583347 1.4896088 3.5573006c-1.2077255 2.949934-3.7290649 7.2025452-6.9475708 10.8968487-2.6300659 3.0415573-5.4209137 5.8756218-8.218399 4.5525055-2.9485321-1.3849487-2.3440933-5.2905045-1.4387589-10.7077732.3163452-2.072031.9885101-6.0582733.7786865-7.883152-2.1514359 1.2846603-4.8112183 9.0479546-6.3801651 12.370863-.7018661 1.4530716-1.7847519 2.7140121-3.5754547 2.2295151z" fill="#fc5d59"/><path d="m107.3357697 39.2640762c-3.2539063-1.5283203-2.546875-5.7587891-1.6513672-11.1152344.2978363-1.9179459.8177948-5.1157646.8125-7.0307617-1.9923782 2.1595745-4.1422958 8.4620495-5.6933594 11.7441406-1 2.0698242-2.3535156 2.8833008-4.0195313 2.4350586-.1493988-.0871239-1.4654312-.4035759-1.9482422-1.6743164-.5-1.315918.1425781-2.9277344.7587891-4.1845703 2.5766754-5.2044926 4.6778259-15.6662025 12.2734375-15.150878 1.3564453.1015625 2.5742188.7368164 3.4306641 1.788085 2.4814072 3.1875267.9791565 9.6337013.3261719 14.1577148 2.1117935-2.5377922 4.4117432-5.9773674 5.6386719-8.9746094.6494141-1.5849609 2.46875-2.3476563 4.0566406-1.6987305 1.5968552.6547298 2.3507004 2.4634514 1.6972656 4.0546875-1.2153015 2.9689178-3.7482834 7.2560463-7.0126953 11.0029297-2.3722763 2.7440836-5.4723282 6.1591684-8.6689453 4.6464845zm-.1855469-19.5654297.0673828.5864258c.2164154 1.8844147-.4649277 5.9532681-.7802734 7.984375-.9355469 5.5957031-1.3759766 9.0839844 1.2236328 10.3046875 2.5664063 1.2148438 5.2431641-1.5366211 7.7685547-4.456543 3.187149-3.6591015 5.690033-7.881052 6.8828125-10.7919922.2382813-.5825195.2373047-1.2202148-.0048828-1.7963867-.7984924-1.9073353-3.543663-1.9196606-4.3388672.0185547-.7460938 1.824707-1.9003906 3.878418-3.4296875 6.1040039-1.1231842 1.6743755-2.7507248 3.6195507-3.2226563 4.081543l-.8183594.8037109c1.0114136-6.8819561 2.4853516-13.0563831.2041016-15.9863281-.7177734-.8808584-1.7451172-1.4169912-2.8886719-1.5024405-6.9663239-.4880543-8.897049 9.395627-11.5341797 14.7270498-.9511185 1.9408741-1.5029678 3.8785934.4765625 4.6889648v.0004883l.2724609.1118164c1.2578125.3354492 2.25-.3085938 3.0869141-2.0429688 1.6363144-3.4660378 4.2359238-11.1634655 6.5283203-12.5322266z" fill="#2a3134"/></g><g><path d="m132.532486 40.480072c-2.7202148 4.7528038-7.7618027 7.2245636-12.1430664 6.0641479-12.3041-3.2588577-4.1218567-26.354208 9.0761566-21.6964951 6.0054626 2.0805494 6.2006988 10.1012574 3.0669098 15.6323472zm-3.7196045-9.3120193c-.2931824-.826334-.7665405-1.087328-1.1407471-1.2210388-.2456741-.026638-1.7566528-.7119312-3.6283569.2291412-4.0868301 2.2050743-5.79953 9.6897392-2.6096954 11.0026436 1.7769318.7418785 4.6441574-.333744 6.3693695-3.3780403 1.2167358-2.1590462 1.6473846-4.9345398 1.0094299-6.6327057z" fill="#fc5d59"/><path d="m120.2918243 46.913002c-12.8589783-3.4218559-4.3403931-27.2400398 9.3007813-22.4248047 6.2439117 2.1648903 6.5300446 10.4299774 3.2714844 16.1796875l-.0009766.0014648c-2.6236114 4.5850106-7.695404 7.5357934-12.5712891 6.2436524zm.1953125-.7373047c4.2646484 1.1323242 9.0839844-1.2900391 11.7128906-5.8837891 3.0340424-5.3540459 2.880188-13.0944767-2.859375-15.0839844-12.7174377-4.4891738-20.6105346 17.8618165-8.8535156 20.9677735zm2.1298829-4.3935547c-6.4509201 0-2.3006134-14.1746845 4.7412109-12.3125l.4111328.1088867c.4501953.1586914 1.0498047.4716797 1.4023438 1.4584961.6767578 1.8085938.2509766 4.6665039-1.0361328 6.9506836-1.4550782 2.5673829-3.694336 3.7944336-5.5185547 3.7944336zm3.4482421-11.7236328c-2.6483307 0-4.7975311 2.8973961-5.4970703 5.3569336-.7753906 2.8071289-.3974609 4.8310547 1.0117188 5.4106445 1.6162109.6762695 4.2646484-.3427734 5.8916016-3.2133789 1.1660156-2.0693359 1.5810547-4.7236328.984375-6.3105469-.0675812-.1001987-.1747742-.7338982-.9121094-.9956055-.2764435-.0612716-.7732697-.2480468-1.4785157-.2480468z" fill="#2a3134"/></g><g><g><path d="m85.1564026 102.1140289-6.2831879 8.423111c-.0502853-.1009598-3.7710648-7.5719986-3.7194443-7.4689713 2.9007721.1354065 6.4754792-.143692 10.0026322-.9541397z" fill="#fff"/></g><g><path d="m85.1564026 102.1140289-6.2831879 8.423111-.9682693-1.9618454c.885643-1.1137009 1.6016617-2.3690262 2.0804825-3.6830215.1213608-.3432693.2086029-.7929611-.0832138-.9817047-.1194458-.0707397-.2938614-.0703964-.4580154-.0582352-1.2043915.0614853-2.4123459.2531586-3.610817.5630112l-.6796112-1.3471756c2.900772.1354064 6.4754791-.1436921 10.0026321-.9541398z" fill="#dde4ee"/></g><g><path d="m78.5310822 110.7054825-3.7177734-7.465332c-.1260147-.2520218.0558243-.5669479.3583984-.5527344 2.9487991.1351318 6.4739609-.1582413 9.8994141-.9448242.343605-.0798798.6022339.3156662.390625.5996094l-6.2832031 8.4228516c-.1681443.2260894-.5207063.1981582-.647461-.0595704zm-2.7480469-7.2382813 3.15625 6.3427734 5.3027344-7.1083984c-3.0560608.6187439-5.6930695.8024063-8.4589844.765625z" fill="#2a3134"/></g><g><path d="m70.5265503 102.5803223c-.6067505.8914337 2.1979675-3.229248-5.9339752 8.7181702l-5.0078201-12.5649643c.2674751.1662445.7233505.3907242.7525444.4243698 2.6596184 1.2760239 4.3474464 2.1490555 8.2468452 3.0359039.384201.0938339.7697678.1758957 1.1568604.246109.0437851.0235977.1018295.0234833.1483765.0233917.2153014.046875.4204864.0819931.6371688.1170197z" fill="#fff"/></g><g><path d="m63.3458443 102.0620956c-.3107643.2726669-.2845421.7458267-.2126312 1.1241608.3931313 1.8868179 1.8659248 4.3430862 3.7753258 4.7008057l-2.3159637 3.4114304-5.0078201-12.5649643c.2674751.1662445.7233505.3907242.7525444.4243698 2.6596184 1.2760239 4.3474464 2.1490555 8.2468452 3.0359039l-.126236.2841415c-1.3226395.179985-2.6649704.0288925-3.8563919-.4182968-.4007035-.1530075-.8928338-.3176804-1.2556725.002449z" fill="#dde4ee"/></g><g><path d="m64.2429962 111.4398575-5.0078125-12.5649414c-.1338577-.337883.2381439-.6591263.5556641-.465332.1855469.1152344.3769531.2177734.5664063.3188477 3.2030792 1.6741714 6.4090805 2.8502579 10.2265625 3.4775391.2762985.046051.4098892.3620529.2539063.5908203l-5.9248047 8.7163086c-.1703416.2508467-.5554429.2118834-.669922-.0732423zm-3.9033203-11.8549805 4.3457031 10.9052734 5.1904297-7.6357422c-.0205078-.0043945-.0410156-.0087891-.0615234-.0126953-.0214844.0053711-.1123047-.0078125-.203125-.0400391-3.7455445-.6977004-6.5613175-1.856552-9.2714844-3.2167968z" fill="#2a3134"/></g><g><path d="m77.0486984 106.8499146-3.0026245 3.5191956-5.0224152.009819-1.4971924-3.4039688c.0686111-.1004944 3.1989365-4.6859283 3.0000839-4.3946381 1.5537491.276413 3.024353.4324341 4.6272202.4878464z" fill="#3acc81"/></g><g><g><path d="m77.0486984 106.8499146-3.0026245 3.5191956-3.441185.0067291c1.5157547-.9374695 2.8385086-2.3123169 3.5070038-3.9579391.1159821-.2959671.2258453-.6392136.1309738-.9229202-.3023224-.9605637-1.9542465-.3574448-4.2490997-2.1328278l.5327835-.7818298c1.5537491.276413 3.024353.4324341 4.6272202.4878464z" fill="#1ebc66"/></g></g><g><path d="m69.029129 110.7596817c-.1513672 0-.2880859-.0893555-.3486328-.2275391l-1.5-3.3979492c-.0537109-.1201172-.0410156-.2597656.0332031-.3681641l2.9931641-4.3979492c.0849609-.1240234.234375-.1875.3818359-.1611328 4.1189346.7299576 4.6756668.2213058 4.9072266.6918945l1.8896484 3.7866211c.0683594.137207.0488281.3012695-.0507813.4179688-3.1034241 3.5673141-2.9569016 3.64505-3.2832031 3.6464844l-5.0214844.0097656zm-1.0654297-3.7397461 1.3134766 2.9765625 4.5966797-.0087891 2.7167969-3.1870117-1.6777344-3.3623047c-.2519836-.0201187-1.918251-.0493088-4.2138672-.4384766z" fill="#2a3134"/></g><g><path d="m75.2961273 130.8316803c-.1000443.098526-3.6821136 3.6266022-3.4538803 3.4018097l-4.0136185 4.765152-5.7648048-8.7207184c.7149315-2.0448914-2.0916672 5.9826965 6.961216-19.9108353l5.0224152-.009819z" fill="#3acc81"/></g><g><path d="m75.2961273 130.8316803-3.3887939 3.3425446-4.0787048 4.8244171s3.0743408-6.9754333 3.6261978-8.2185822c1.982666-4.4399414 1.5140915-9.289093.8310547-13.7947922-.1756897-1.1826019-.3720398-2.3888474-.8768387-3.4407043-.5063248-1.0400085-1.3534012-1.9491806-2.4958496-2.2190704l-.2194366-.0114136.3312836-.946991 5.0224152-.009819z" fill="#1ebc66"/></g><g><path d="m67.8289337 139.3798065c-.0097656 0-.0195313-.0004883-.0302734-.0009766-.1171875-.0092773-.2226563-.0722656-.2880859-.1699219l-5.765625-8.7231445c-.0654297-.0996094-.0810547-.2241211-.0419922-.3364258l6.9609375-19.9028397c.0537109-.152832.1982422-.2548828.359375-.2553711.1000748-.0001907 5.1333694-.0099792 5.0234375-.0097656.2011719 0 .3681641.1567383.3808594.3579102 1.2783279 21.7069016 1.3571472 20.5255966 1.1484375 20.7548904l-7.4658203 8.1616211c-.0722657.0791016-.1748048.1240235-.2812501.1240235zm-5.34375-9.1572265 5.3925781 8.1577148 7.0263672-7.6816406-1.2158203-19.9541092-4.3935547.0087891z" fill="#2a3134"/></g></g><g><g><path d="m82.671669 89.0817032c-1.3727722-.4982224-2.4708633-1.5150146-3.711319-2.2776108-2.8774872-1.7997437-6.4769745-2.2064285-9.8426208-1.6675568-1.1285019.1728363-2.2674332.4575653-3.3960571.3559113-2.0335884-.1728973-2.7656517-.9456711-2.7758293-1.9624634-.0146294-1.6660843 2.006916-3.9223785 3.2943993-4.931427 2.6843567-2.1149521 6.1718903-3.2639313 9.5884247-2.9283752 4.0671768.3762131 7.8394394 2.8368988 10.0458069 6.2533112.5287476.8134232 1.1389236 1.8200378 1.454071 2.8571854v.0101776c.9157104 3.0548705-2.011818 5.266838-4.6568757 4.2908477z" fill="#2a3134"/></g><g><path d="m85.9660721 85.7161179c-.449585 1.7404175-2.4323578 2.5948029-4.0773544 1.9827576-1.1693344-.4169235-2.1048355-1.2811737-3.1521606-1.9319305 0 0-.0100555-.0101776-.0202332-.0101776-.0101776-.0101166-.0305328-.0202942-.0407104-.0304718-2.4910965-1.5557251-5.6125946-1.9115829-8.5309143-1.4438324-.9760818.1524811-1.9623413.3964996-2.9384232.3050232-1.118576-.0915375-1.7793884-.3863831-2.1150131-.8236008-.3152695-.3965607-.2541962-.9659653.0814209-1.3523483.66082-.7625961 1.504837-1.4438324 2.3690872-1.9725876h.0100555c1.5587616-1.0381165 3.6744232-1.5418701 5.5721359-1.0472641 1.3726425.3660278 2.5622101 1.2201004 3.8942719 1.7488556 2.3884201.9553452 5.0976639.809288 7.4022903 2.0641251 1.1368942.5982664 1.8540573 1.2426527 1.5455475 2.5114516z" fill="#e4403d"/></g><g><path d="m82.3462296 85.7161179c-.3355026.5592194-1.0980988.6405792-1.738678.5592194-.6405869-.0914764-1.2608185-.284668-1.8709946-.5083923 0 0-.0100555-.0101776-.0202332-.0101776-.0101776-.0101166-.0305328-.0202942-.0407104-.0304718-2.4910965-1.5557251-5.6125946-1.9115829-8.5309143-1.4438324-.9760818.1524811-1.9623413.3964996-2.9384232.3050232-1.118576-.0915375-1.7793884-.3863831-2.1150131-.8236008-.3152695-.3965607-.2541962-.9659653.0814209-1.3523483.66082-.7625961 1.504837-1.4438324 2.3690872-1.9725876h.0100555c1.3015213-.2236633 2.4912186-.5795746 3.8638611-.3558502 2.9863739.4908981 5.4751358 2.517746 8.4190903 3.2333984.6711197.1524811 1.3727646.2541962 1.9421082.6405792.5591659.376213.9253158 1.1794585.5693436 1.7590408z" fill="#fc5d59"/></g></g><g><path d="m87.9851837 59.997963c-.1083984-.1806641-.0498047-.4150391.1308594-.5234375 2.7177734-1.6303711 5.8300781-2.5419922 9-2.6362305.2099609-.0009766.3867188.159668.3925781.3701172.0068359.2104492-.1591797.3862305-.3691406.3925781-3.0400391.0898438-6.0244141.9638672-8.6308594 2.527832-.1821518.1084252-.4160004.0486985-.5234375-.1308593z" fill="#2a3134"/></g><g><path d="m66.7722931 56.909584c-1.9746094-2.3115234-4.5263672-4.0893555-7.3789063-5.1416016-.1972656-.0732422-.2988281-.2924805-.2255859-.4897461.0732422-.1977539.2939453-.2978516.4892578-.2260742 2.9755859 1.0976563 5.6367188 2.9516602 7.6953125 5.3623047.1367188.1601563.1181641.4008789-.0419922.5375977-.1629028.1375885-.4027023.1166344-.5380859-.0424805z" fill="#2a3134"/></g><g><path d="m104.7141876 108.1229782c-1.0115891 8.1958771-7.5416183 18.6837158-13.1267166 24.7385635l-6.5787506-16.7669296c2.8165359-5.6737289 3.8435059-12.2218246 2.9080124-18.4954834-.6665878-4.4393692-2.859993-10.6427689-.1220093-15.302742 1.3116989-2.2572479 3.9349899-3.8841553 6.5075073-3.42659 2.6843491.4880447 4.5246811 2.9385529 5.8363876 5.3279953 3.9553376 7.239563 5.5821839 15.7399521 4.5755692 23.9251862z" fill="#fff"/></g><g><path d="m104.7141876 108.1229782c-.2033081 1.6472015-.6304092 3.3757629-1.230278 5.155159-.6720963-3.5461578 1.8913879-16.2405548-5.490715-24.5454254-2.6363831-2.9734344-6.3682022-4.8651352-10.1679382-3.7011414-.3863907.1220093-.7727737.335556-1.1591568.4677429.8267212-4.8314896 4.5959091-7.1702728 7.6361313-6.6295166 2.6843491.4880447 4.5246811 2.9385529 5.8363876 5.3279953 3.9553375 7.239563 5.5821838 15.7399521 4.5755691 23.9251862z" fill="#dde4ee"/></g><g><path d="m91.3240509 133.1395721c-.1542969-.1430664-.1640625-.3842773-.0214844-.5390625 5.7470703-6.2265701 12.0703125-16.6489334 13.0371094-24.5205154.9970703-8.1147461-.6162109-16.5322266-4.5400391-23.7016602-1.6875-3.0834961-3.5078125-4.7612305-5.5654297-5.128418-2.2548828-.4038086-4.7695313.9282227-6.1113281 3.2368164-2.6627731 4.5716476-.507782 10.4902191.1748047 15.0615234.9453125 6.3320313-.1015625 12.9780273-2.9472656 18.7138672-.0947266.1894531-.3251953.2641602-.5117188.1723633-.1884766-.09375-.265625-.3227539-.171875-.5112305 2.7773438-5.5976563 3.7988281-12.0830078 2.8769531-18.2626953-.6950073-4.6507187-2.907814-10.7014465-.0800781-15.5576172 1.5009766-2.5810547 4.34375-4.0605469 6.9052734-3.6040039 2.2988281.4106445 4.2939453 2.2138672 6.0996094 5.5131836 4 7.3081055 5.6435547 15.8886719 4.6289063 24.1606445-.9873047 8.0322266-7.4052734 18.6289063-13.234375 24.9453201-.143631.1548158-.3841629.1639864-.5390625.0214845z" fill="#2a3134"/></g><g><path d="m90.5281525 88.1390762c-.0068359 0-.0146484-.0004883-.0224609-.0004883-.2099609-.0126953-.3701172-.1928711-.3583984-.4033203.1123047-1.90625-.7353516-3.8452148-2.2109375-5.0600586-.1630859-.1337891-.1865234-.3740234-.0517578-.5366211.1337891-.1635742.375-.1860352.5361328-.0522461 1.6611328 1.3666992 2.6142578 3.5488281 2.4882813 5.6938477-.0117189.2026367-.1796877.3588867-.3808595.3588867z" fill="#2a3134"/></g><g><path d="m94.9793243 84.463295c-.3271484-1.9819336-1.6552734-3.753418-3.4648438-4.6240234-.1904297-.0913086-.2695313-.3193359-.1787109-.5087891.0917969-.190918.3212891-.269043.5087891-.1787109 2.03125.9765625 3.5205078 2.9643555 3.8867188 5.1875.0341797.2075195-.1064453.4038086-.3134766.4379883-.1980743.0360107-.403801-.0997544-.4384766-.3139649z" fill="#2a3134"/></g><g><path d="m39.7291374 96.8547134c-.9534836 8.2028351 2.9137039 19.9365921 6.910099 27.1395874l10.3540077-14.7378464c-1.3962669-6.1785507-.8470459-12.7838974 1.544239-18.658905 1.521122-3.7263107 3.874218-7.4123993 4.0740471-11.4617538.3382187-4.8900223-2.7716713-8.0531387-5.8535805-8.2460022-2.7236595-.1600037-5.0908661 1.7863083-6.929985 3.7981796-5.553852 6.1000672-9.1430205 13.9754105-10.0988273 22.1667404z" fill="#fff"/></g><g><path d="m39.7291374 96.8547134c-.1916313 1.6486053-.1850319 3.4291306-.0225563 5.2998734 1.4909134-3.2869568 1.9993095-16.2276154 11.134594-22.5531845 2.1655235-1.5035019 4.7928581-2.4970703 7.41819-2.2773056 1.1771889.1083603 2.3213539.4807129 3.336338 1.0833206.3466225.2098465.6716118.5086441 1.0158272.7283783.3382187-4.8900223-2.7716713-8.0531387-5.8535805-8.2460022-2.7236595-.1600037-5.0908661 1.7863083-6.929985 3.7981796-5.5538521 6.1000672-9.1430206 13.9754105-10.0988274 22.1667404z" fill="#dde4ee"/></g><g><path d="m46.3113556 124.178627c-4.1728516-7.515625-7.9042969-19.3286133-6.9658203-27.3662109.9667969-8.2758789 4.5917969-16.2250977 10.2050781-22.3828125 2.5332031-2.777832 4.8984375-4.0581055 7.2294922-3.9155273 2.6005859.1606445 5.0097656 2.2714844 5.859375 5.1333008 1.5991669 5.386734-1.9947586 10.7765198-3.7529297 15.0976563-2.3574219 5.7871094-2.8974609 12.3305664-1.5205078 18.4257813.0458984.2055664-.0830078.409668-.2880859.4560547-.2089844.0463867-.4091797-.0830078-.4560547-.2880859-1.4111328-6.2456055-.8574219-12.9511719 1.5576172-18.8813477.9879837-2.4211273 2.2831116-4.7402115 3.1445313-7.1518555 1.0126953-2.8325195 1.2099609-5.3364258.5849609-7.4414063-.7607422-2.5605469-2.8886719-4.4477539-5.1757813-4.5893555-2.0703125-.1166992-4.2490234 1.0708008-6.6191406 3.668457-5.5068359 6.0405273-9.0625 13.8388672-10.0107422 21.9580078-.9208984 7.8769531 2.7617188 19.4985352 6.8740234 26.9072266.1025391.184082.0361328.4160156-.1474609.5185547-.1929665.1043929-.419796.0303039-.5185547-.1484376z" fill="#2a3134"/></g><g><path d="m58.2566681 80.7928848c-.2070313-.0375977-.3447266-.2358398-.3066406-.4433594.3847656-2.1147461 1.8261719-4.0092773 3.7626953-4.9443359.1904297-.0917969.4169922-.012207.5097656.1772461.0908203.1899414.0117188.4179688-.1777344.5092773-1.7216797.8310547-3.0029297 2.5151367-3.3447266 4.3945313-.0381507.2115097-.2415122.3444901-.4433593.3066406z" fill="#2a3134"/></g><g><path d="m54.2781525 76.3666153c-.1933594-.0825195-.2841797-.3066406-.2011719-.5004883.8818359-2.0737305 2.7988281-3.652832 5.0029297-4.121582.203125-.0400391.4091797.0874023.4521484.2939453.0439453.2055664-.0878906.4082031-.2939453.4521484-1.9648438.4174805-3.6738281 1.8256836-4.4599609 3.6743164-.0820275.1933518-.3047638.2836609-.5.2016602z" fill="#2a3134"/></g><g><g><path d="m103.8625488 73.3766632c-.906929.4668579-2.0554886-.0672607-2.6365738-.9045029-.6532059-.9877548-.8314362-2.40448-.7284927-3.6184845-.0080185-.1092911.1227951-.7520294.2468796-1.4143219 1.0889511.2064667 2.8766022 1.79599 3.3251495 2.3689957 1.1223679 1.2603378.8269272 3.0155792-.2069626 3.5683136z" fill="#4cb1f7"/></g><g><path d="m104.668663 70.8473434c-.5496521 1.697731-2.5188904 1.5210571-3.4554901.1426544-.3976669-.5832214-.5837021-1.265831-.6943665-1.9799194-.0434341-.2165833-.0423203-.1409302.2255554-1.5707245 1.0227814.193924 3.5242234 2.0478898 3.9243012 3.4079895z" fill="#71cfff"/></g></g><g><g><path d="m108.9862442 89.399498c-.9069366.4668655-2.0554962-.0672531-2.6365738-.9045029-.7327042-1.1079636-.9250107-2.9465866-.6320114-4.2316971l.1503906-.8011017c1.0889587.2064667 2.8766022 1.79599 3.3251572 2.368988 1.1223678 1.2603455.8269195 3.0155793-.2069626 3.5683137z" fill="#4cb1f7"/></g><g><path d="m109.7923508 86.8701859c-.5496521 1.697731-2.5188828 1.5210571-3.4554825.1426544-.3976669-.5832214-.5837021-1.2658386-.6943741-1.9799271-.0434341-.2165833-.0423126-.1409225.2255554-1.5707169 1.022789.1939164 3.524231 2.0478898 3.9243012 3.4079896z" fill="#71cfff"/></g></g><g><g><path d="m47.1316986 67.57798c-.8585091-.5508652-.9718895-1.8124619-.5385666-2.7348938.3135071-.6302414.8110924-1.1332359 1.3653755-1.5931015 1.1371803-.9114914 2.2491112-1.1384468 2.7484818-1.3458099.3670502 1.0458107-.112606 3.3893585-.3836746 4.0646744-.5281945 1.6028671-2.1951752 2.2268143-3.1916161 1.6091308z" fill="#4cb1f7"/></g><g><path d="m49.7244568 67.0080109c-1.7446098.3751526-2.5785866-1.4174957-1.8551292-2.9187698.3054085-.6364021.8028946-1.1394768 1.3653793-1.5931015.1817665-.1603355.1851311-.1395111 1.4722824-.5919647.3670502 1.0458107-.112606 3.3893585-.3836746 4.0646744-.1404648.4262542-.3942719.8238219-.5988579 1.0391616z" fill="#71cfff"/></g></g><g><g><path d="m40.5151138 79.8625336c-.8585091-.5508652-.9718933-1.8124542-.5385704-2.7348862.52742-1.0602646 1.6640854-1.9244766 2.7662354-2.4437866.100193-.0682602 1.0385895-.3864975 1.3476257-.4951248.3670502 1.0458069-.1126099 3.3893585-.3836784 4.0646744-.5281945 1.6028594-2.1951714 2.2268142-3.1916123 1.6091232z" fill="#4cb1f7"/></g><g><path d="m43.107872 79.292572c-1.7446136.3751526-2.5785866-1.4174957-1.8551292-2.9187698.3054047-.6364059.8028908-1.1394806 1.3653755-1.5931015.2076797-.183197.1946983-.1306305 1.4722862-.5919647.3447456.9822616-.0060425 4.0760192-.9825325 5.103836z" fill="#71cfff"/></g></g></g></svg>