<svg id="Layer_1" enable-background="new 0 0 150 150" viewBox="0 0 150 150" xmlns="http://www.w3.org/2000/svg"><g id="_x39_6"><g><path d="m42.8160477 136.2373199c-3.2783966-15.1136398-1.2230492-30.9112854 5.1465797-43.9573441 3.2315598 2.792717 8.1576576.3117599 12.2110939 1.9475327.2553406.1037369 1.6446152.1213837 1.8999062.2171326 3.9337807 1.5000916 5.8130455 7.2428284 10.2334938 7.4183426 4.5495834.2009125 9.4631653-.418457 14.1630478-1.9628983l-.2732086-3.3927765c.1835022-.0558624 3.5738602-4.5643005 3.749382-4.6281433 4.3885498-1.5160141 4.8233337-8.6673889 9.0032806 1.1987305 6.5485458 13.9375076 8.0763474 30.3281479 4.2129822 45.4973145" fill="#fff"/></g><g><g><path d="m84.3265228 96.4101181-5.3771362 9.3130569c-.0653915-.100502-2.4470978-3.7614288-2.2958527-3.5289536-.0658875-.100174-2.5351486-3.8544083-2.3787231-3.6165848 2.9549179-.2090682 6.5681839-.9229583 10.051712-2.1675185z" fill="#fff"/></g><g><path d="m84.3265228 96.4101181-5.3771362 9.3130569-1.2190094-1.8779297c.7667389-1.2379456 1.3441315-2.5995102 1.6734238-3.9922943.0822372-.3634033.1170502-.8308945-.2021408-.9877701-.1298599-.0575943-.3070831-.0363617-.4724655-.0043411-1.2166901.2067108-2.4214172.5461655-3.6023483 1.0045929l-.8520355-1.287796c2.9643477-.2097397 6.5640029-.921463 10.0517119-2.1675186z" fill="#dde4ee"/></g><g><path d="m78.9495468 106.1083374c-.1298828 0-.2519531-.065918-.3232422-.1757813l-4.6728516-7.1425781c-.1632538-.2480545.0023117-.5758438.2939453-.5966797 2.9967041-.2119141 6.5820313-.9432297 9.9492188-2.1459961.3408051-.1182175.641861.2468262.4628906.5551758l-5.3769531 9.3129883c-.0664063.1162109-.1894531.1889648-.3232422.1923828-.0029296 0-.0068359.0004883-.0097656.0004883zm-3.9970703-7.2045898 3.9775391 6.0825195 4.5488281-7.8789063c-3.1146774 1.0231705-5.8093491 1.5146943-8.5263672 1.7963868z" fill="#2a3134"/></g><g><path d="m69.5136108 98.6359329c-.0521088.100029-5.039978 9.673378-4.9868774 9.5711136l-6.5942307-12.1704559c.291748.1369247.7819519.3104782.8156509.3411865.4318886.1479568.8971558.3464279 1.4302177.5114136 2.3185806.804451 5.5290947 1.5119476 8.5200615 1.6981049.0473251.0187378.1063004.011673.153595.006012.224434.0218505.4371644.0329741.661583.0426253z" fill="#fff"/></g><g><path d="m62.1535988 98.9691238c-.2831879.3143311-.1998749.7920761-.0814857 1.1679764.4743233 1.4184799 1.3499527 2.6547012 2.4850616 3.5306931.8136215.6124115 1.341423.7557831 1.9148178.7947845l-1.9452591 3.7444687-6.5942307-12.1704559c.291748.1369247.7819519.3104782.8156509.3411865.4318886.1479568.8971558.3464279 1.4302177.5114136 1.9394188.6728973 4.4315681 1.2787247 7.3148384 1.5865097l-.0942688.3039017c-1.3226929.3413086-2.7050323.3484879-3.9694595.0366592-.4255675-.1075211-.9454535-.2159424-1.2758826.1528625z" fill="#dde4ee"/></g><g><path d="m64.5315781 108.5922241c-.1416016 0-.2714844-.0776367-.3388672-.2016602l-6.59375-12.1708984c-.1760521-.3260269.1662216-.6902161.5019531-.5322266.5236244.245369 2.063221.8321075 3.7041016 1.3085938 2.7381897.7718582 5.3903351 1.1523209 7.7216797 1.2578125.283699.0136642.4529114.3154907.3242188.5625l-4.9775391 9.5678711c-.0654297.1264648-.1962891.206543-.3388672.2080078-.0009766 0-.0019532 0-.0029297 0zm-5.741211-11.790039 5.734375 10.5830078 4.3681641-8.3974609c-.0234375-.0019531-.0478516-.0039063-.0722656-.0058594-.0185547.0097656-.1171875.0043945-.2119141-.0170898-3.4187164-.2272797-6.5557632-.9550247-9.7363281-2.1323242z" fill="#2a3134"/></g><g><path d="m76.6535339 102.1942215-2.6302338 3.9362259-5.1032486.6114044-1.9292526-3.2802658c.0542374-.1037598 2.6838379-5.133667 2.5228119-4.8256531 1.6122208.0948639 3.1255264.0773315 4.7612-.0582962z" fill="#3acc81"/></g><g><g><path d="m76.6535339 102.1942215-2.6302338 3.9362259-3.4965668.4189148c1.4282455-1.134285 2.6079636-2.6899796 3.0903091-4.4425278.0824356-.3146896.1529846-.6766891.0225983-.9536743-.422287-.9400482-2.0289612-.1292648-4.5738907-1.6588287l.4478607-.8583984c1.6122208.0948639 3.1255264.0773315 4.7612-.0582962z" fill="#1ebc66"/></g></g><g><path d="m68.5931015 106.9364624-1.9316406-3.2739258c-.0673828-.1147461-.0712891-.2558594-.0097656-.3735352l2.515625-4.828125c.2299423-.4423065.4722595-.003479 4.0791016-.2006836l1.0039063-.065918c.1396484-.012207.2714844.0566406.3476563.1733398l2.375 3.6220703c.0839844.1289063.0839844.2963867-.0019531.4248047-2.7028351 3.9618835-2.5656509 4.0578766-2.8974609 4.097168l-5.1025391.6113281c-.1501848.0187761-.2994463-.0546263-.3779299-.1865233zm-1.1591797-3.4814453 1.6953125 2.8735352 4.6767578-.5605469 2.3828125-3.5693359-2.1123047-3.2211914c-.2644348.0099258-1.9556046.1795273-4.3408203.059082z" fill="#2a3134"/></g><g><path d="m77.7441254 126.7774506-3.0438614 3.8029327c-1.6707687 2.5249939-3.6350632 5.4935913-3.5675888 5.3916016l-6.9032288-8.1727905c.4817352-2.163887-1.4094048 6.3308716 4.6905899-21.0695419l5.1032486-.611412z" fill="#3acc81"/></g><g><path d="m77.7441254 126.7774506-3.0438614 3.8029327-3.5675888 5.3916016s2.2892456-7.4574585 2.7012482-8.7870102c1.4833679-4.7498627.4264603-9.6220779-.8072739-14.1195526-.3201828-1.1808777-.6641846-2.3833084-1.3031845-3.3918915-.6391296-.9963608-1.6089096-1.8189392-2.80233-1.9564285l-.2243881.014679.2232895-1.0021286 5.1032486-.611412z" fill="#1ebc66"/></g><g><path d="m71.1331406 136.3563843c-.1132813 0-.2207031-.0498047-.2939453-.1367188-7.1276512-8.5271759-7.0657196-8.1539917-6.9863281-8.5068359l4.6904297-21.0610352c.0361328-.159668.1679688-.2792969.3300781-.2988281l5.1035156-.6113281c.2148438-.0224609.3886719.1142578.4248047.3139648 3.9139481 21.985611 3.8354416 20.6979599 3.6542969 20.9521484-6.9323349 9.5409393-6.5500336 9.3339539-6.9082031 9.3486328-.0048829.0000001-.0097657.0000001-.0146485.0000001zm-6.4873047-8.6625977 6.4628906 7.6518555 6.2265625-8.6552734-3.6269531-20.1411133-4.4726563.5361328z" fill="#2a3134"/></g></g><g><path d="m103.0677109 138.9481812c-.2060547-.0527344-.3310547-.2617188-.2783203-.4677734 3.4365234-13.4951172 2.3779297-31.2060547-2.4628906-41.1972656-1.1778564-2.4318619-3.03582-8.261879-4.7148438-8.6308594-1.2601547-.275032-2.7288284 2.5784454-5.4658203 3.5649414-.3792038.4056778-3.0466156 3.8920898-3.5507813 4.4418945l.2587891 3.2104492c.0146484.1772461-.0947266.3408203-.2636719.3964844-4.7392273 1.5575485-9.6845474 2.1834946-14.2998047 1.9819336-4.6389313-.1848679-6.5279388-5.9844742-10.3535156-7.4433594-.2590942-.0777283-1.5629044-.0798035-1.9082031-.2207031-3.8122749-1.5389023-8.5415306.7326584-11.9287109-1.7045898-6.2341843 13.0286407-8.085392 28.625267-4.9082031 43.2758789.0449219.2080078-.0869141.4130859-.2939453.4580078-.2197266.0429688-.4130859-.0878906-.4580078-.2939453-3.2709351-15.0792694-1.2555656-31.0385742 5.1767578-44.2080078.1083679-.2249146.4031868-.288063.5976563-.1225586 3.0763512 2.6559601 7.9611473.2107849 12.1044922 1.8818359.2655296.0850754 1.5376587.0815048 1.890625.2138672 4.0192795 1.5332718 5.9230118 7.2277374 10.1132813 7.394043 4.6367188.2075195 9.3232422-.4370117 13.7392578-1.8505859l-.2490234-3.0898438c-.0117188-.1420898.0566406-.2753906.1708984-.3515625.1962891-.190918 1.1542969-1.4165039 1.8574219-2.3168945 1.7851563-2.2836914 1.8134766-2.2944336 1.9746094-2.3525391 4.1207428-1.4230423 5.5225067-8.2332687 9.4902344 1.4145508.6138382 1.3069763 1.0871582 2.7211685 1.7138672 4.015625 4.9101563 10.1357422 5.9921875 28.0727539 2.515625 41.7226563-.0517352.2058104-.2610019.3300169-.4677737.2783202z" fill="#2a3134"/></g><g><path d="m79.1145782 124.291214c-2.6640701 2.5725784-6.993988 4.1415863-10.5303802 4.9631348-12.4315414 2.888031-23.6639633-3.443779-27.8108826-14.0970001-1.9639854-5.0462952-2.4808197-11.9344635.1221657-16.9619446 3.7717781-7.3172531 12.7852898-7.934494 15.8180161-2.3154373.4601822.8526306.3563538 1.5113907.4445648 2.4348297.1164665 1.2192154.298481 2.4359436.4474144 3.6516876.2253494 1.8395462.4551086 3.6978683 1.0909767 5.4386673.6358719 1.7407913 1.7239761 3.3792419 3.3177299 4.3251038 1.661232.9859009 3.6691437 1.1249008 5.5452271 1.5853424 2.7422714.6730194 5.2701187 2.126564 7.2943878 4.0872879 2.0929718 2.027275 3.0462952 4.3254318 4.2607803 6.8883285z" fill="#fff"/></g><g><path d="m79.1327209 124.3102188c-6.2491608 4.7455826-14.5937729 6.803566-22.2244186 4.9899216-7.3391571-1.7478714-13.4097748-7.141861-16.1349869-14.1427917-1.9639854-5.0462952-2.4808197-11.9344635.1221657-16.9619446.1785507 2.2177277.1879578 4.5294571.5356483 5.8638458 1.0807037 4.097168 2.9695511 7.9970322 5.7135773 11.2296753 5.4222069 6.3712769 14.4622002 9.8576584 22.5062637 7.5834961 2.2083206-.6201935 4.4166412-1.663269 6.6344833-1.9922028z" fill="#dde4ee"/></g><g><path d="m62.5979843 130.340271c-10.4347954 0-18.7774429-6.3011322-22.1845703-15.046875-2.9140625-7.4799805-2.3603516-17.7255859 4.4052734-21.980957 2.4511719-1.5419922 5.4033203-1.9868164 7.8935547-1.1899414 2.6838837.8533325 5.0807686 1.5449142 5.3583984 4.3813477.0214844.2119141-.1337891.3999023-.3457031.4208984-.2265625.0131836-.3994141-.1352539-.4199219-.3457031-.2357521-2.4021759-2.40485-2.9529495-4.8271484-3.7231445-2.2792969-.7285156-4.9882813-.3149414-7.2490234 1.1083984-6.4160156 4.0356445-6.9003906 13.8569336-4.0986328 21.0498047 2.7265625 6.9960938 8.65625 12.1953125 15.8623047 13.9082031 7.3642578 1.7485352 15.5517578-.090332 21.9082031-4.9204102.1699219-.1293945.4101563-.0957031.5400391.0737305.1289063.1694336.0957031.4106445-.0732422.5395508-4.9101563 3.7299804-10.8867188 5.7250976-16.7695313 5.7250976z" fill="#2a3134"/></g><g><path d="m106.1849213 65.1221313c.4160995 24.7469711-25.1316299 41.5913391-48.2046776 32.6649246-12.8782272-4.9573975-22.0814438-17.1166992-22.322937-31.4791336-.3751297-22.3132171 24.4867515-42.5220126 49.0500526-32.3330077 12.2455597 5.0795326 21.2521668 17.7424163 21.477562 31.1472167z" fill="#fff"/></g><g><path d="m105.4672928 70.4775314c-1.7272491 14.4359589-12.9125824 25.5553894-27.0150452 28.4828262-.1628723.0365067-.3257141.0730515-.4948349.1018448l-.0079346.0060577c-8.2272034 1.5830688-16.9678497.2973709-24.4013481-3.7179108-14.692543-7.9051056-21.7349415-24.6733322-16.3175201-40.0329399-2.4959068 22.983593 19.4027634 40.9985161 42.3398705 36.58498l.0079346-.0060577c.1691208-.0287933.331955-.0653381.4948349-.1018448 11.7902451-2.4477844 21.542717-10.6225052 25.4299316-21.6767731-.0069809.1182023-.0218506.2424623-.0358887.3598176z" fill="#dde4ee"/></g><g><g><g><path d="m59.9768867 51.1445808c-.0314217 3.3261108-2.6780472 4.9180908-4.3813896 2.7772293-1.9215469-2.4465561-.7217216-6.9479485 1.753315-6.8178596 1.4619064.078289 2.6410675 1.8881378 2.6280746 4.0406303z" fill="#2a3134"/></g></g><g><g><path d="m58.6727715 50.2012215c-.0058861.7393799-.4214783 1.3177032-.9250145 1.2909851-.5060463-.0268478-.9120827-.6487694-.9061966-1.3881493.0058861-.7393341.4214821-1.3176537.9275246-1.2908058.5035362.0267181.9095725.6486359.9036865 1.38797z" fill="#fff"/></g></g></g><g><g><g><path d="m82.7960587 50.6842575c.2382584 3.2584038 2.9580994 4.7766418 4.548912 2.4933968 1.7623062-2.5636406.2790527-6.9797554-2.182724-6.6927605-1.4539871.1709671-2.5158386 2.0520401-2.366188 4.1993637z" fill="#2a3134"/></g></g><g><g><path d="m84.0376358 49.6599922c.0528259.7375107.5043106 1.2882767 1.0051346 1.2296371.5033112-.0589294.8690414-.7053757.8162155-1.4428902-.0528259-.7374687-.504303-1.2882347-1.0076218-1.2293015-.5008239.0586397-.8665466.7050859-.8137283 1.4425546z" fill="#fff"/></g></g></g><g><g><path d="m71.2698593 67.3900757c-.2128906 0-.3847656-.1723633-.3847656-.3852539v-4.7382813c0-.2128906.171875-.3852539.3847656-.3852539s.3847656.1723633.3847656.3852539v4.7382813c0 .2128906-.171875.3852539-.3847656.3852539z" fill="#2a3134"/></g><g><path d="m65.4235458 58.7268295c.0801544-.4489098.4779663-.7812347 1.0997162-1.0626297 2.8172913-1.2750702 6.0450439-1.508213 9.0819016-1.0955238.3857651.0524216.783432.1212997 1.1070099.3377686.985321.6591644.5355911 1.9191895-.0028076 2.7045021-1.2304764 1.7947884-4.3138657 5.7140961-6.8198929 4.0072098-.9485321-.6460571-1.8889465-1.3158188-2.7218094-2.1089478-.6531678-.6220017-1.9268341-1.7590943-1.7441178-2.7823792z" fill="#2a3134"/></g><g><path d="m71.4187393 58.9915543c-.7645721.4899826-1.6966324.8145065-2.6101151.8277702-.4073715.0059166-1.325676-.0591698-1.1578522-.6844368.1520233-.5663834.8896255-.885025 1.3809967-1.070858 2.4965058-.944149 3.8098527.0156441 2.3869706.9275246z" fill="#fff"/></g></g><g><path d="m57.8411484 98.1464233c-13.4716797-5.1865234-22.3310547-17.6811523-22.5683594-31.8320312-.3127708-18.5676651 16.6172943-35.1310692 35.0654297-35.4409161 4.9619141-.0927734 9.9853516.8657227 14.5166016 2.7460918 12.5615234 5.2104492 21.4902344 18.1621094 21.7148438 31.4960938.4164885 24.7558212-25.113907 42.1322251-48.7285157 33.0307617zm-21.7988281-31.8447265c.3174553 18.897171 16.1766319 33.7751083 35.4550781 33.4853516 19.4340057-.3285446 34.6150284-16.0696182 34.3027344-34.6586914-.2197266-13.0366211-8.9541016-25.7006836-21.2402344-30.7978516-24.5135918-10.1694546-48.8837548 10.1725464-48.5175781 31.9711914z" fill="#2a3134"/></g><g><path d="m106.5245285 59.4446526h-.009697c-.1550446.1162529-.3100357.2131119-.4747162.290638-.0969162.0678253-.203476.1356468-.3100357.1937752-.1453476-.5328445-.3100281-1.075386-.5038071-1.6276245 0-.0193939-.009697-.0290947-.009697-.0387917-.9857635-2.8259277-2.5164108-5.7012482-3.2843475-7.2371216-.0096359-.009697-.0193329-.0290947-.0290298-.0387306-.3873901-.7922974-.6022797-1.1561279-.8622742-1.6761169l-14.0964431-13.8736344c4.5384827-6.3365231 16.0217972-8.1177177 22.7674713-1.1044197 7.0854187 7.2968711 5.4138336 19.6865196-3.1874237 25.1120262z" fill="#fff"/></g><g><path d="m106.5245285 59.4446526h-.009697c-.3110733.1646919-.5365677.3490295-.7847519.4844131.0774689-.0387306-.4069443-1.3563843-.5038071-1.6276245 0-.0193939-.009697-.0290947-.009697-.0387917-.9989777-2.8637924-3.2133484-7.1764297-3.3133774-7.2758522-.1550446-.2713013-.5231476-.8525772-.6587982-1.278862-.0872192-.2422066-.0969162-.4456825.0484314-.5038109.4650192-.203476 1.1335144 1.1238747 1.3078918 1.3854179 1.704689 2.3931656 2.3728561 3.6877861 3.6137772 4.0884895 1.8310394.6006699 3.5168533-.5716362 4.5728378-1.9861488 1.2304306-1.6469612 1.7245483-3.6718369 1.8892288-5.6870193.3298798-4.0135727-.4913788-6.3950005-1.6760559-9.4363823-.4165878-1.085083-.8525696-2.170166-1.288559-3.2358551 7.0854189 7.2968712 5.4138338 19.6865197-3.1874235 25.1120263z" fill="#dde4ee"/></g><g><path d="m105.3577499 60.0287476c-.9339447-3.4800758-2.9766312-7.3025665-4.6582031-10.5410156-.0976563-.1889648-.0244141-.4213867.1650391-.519043.1875-.0991211.4199219-.0244141.5185547.1645508l.3564453.6870117c1.546875 2.9794922 3.2910156 6.3374023 4.2265625 9.5263672 10.6924057-6.4257584 10.2630997-22.5470161-.7792969-27.7958965-5.3994141-2.5615234-13.8925781-1.5229492-17.9287109 4.1103497-.1240234.1733398-.3632813.2133789-.5380859.0888672-.1728516-.1240234-.2119141-.3642578-.0888672-.5371094 4.2617188-5.9472637 13.2089844-7.0532207 18.8857422-4.35742 6.0566406 2.8784161 9.640625 9.4545879 8.9179688 16.3637676-.5460434 5.2109375-3.4718094 10.2098122-8.5166016 13.0454102-.2193375.1242904-.4949723.0059546-.560547-.2358399z" fill="#2a3134"/></g><g><path d="m105.2112656 48.8395691c-.3923569.2945366-.8228149.5665474-1.2992096.6320114-.4764175.065464-1.0072556-.1258736-1.2140732-.5630875-.1505051-.3181686-.1082001-.7004051-.0311203-1.052021.3671265-1.6748161 1.4462357-3.2404404 1.3126297-4.9360886-.0551605-.7000542-.3918839-.8737144-1.1062698-.7693672-.7428131.1085014-1.478775.2798691-2.1979141.5117836-.4821472.1554832-1.1319504.2774162-1.3666-.1699905-.3393326-.6470261.7255096-1.2439499.8024826-1.9866142-.547554-.502346-1.5841522-.4562721-1.8108521-1.1786461-.196022-.6246147.4197235-1.2078362.964798-1.5785751 1.1682434-.7945824 2.3853302-1.5545235 3.7261734-1.9388847 1.3408432-.3843651 2.8364792-.3548927 4.0029297.3686447 1.226326.7606812 2.5789185 2.6525116 2.6384048 4.1881142.0625992 1.6160698-.984787 3.2477875-1.4945526 4.7326355-.5040742 1.4682616-1.7057343 2.8234176-2.9268265 3.7400855z" fill="#dde4ee"/></g><g><path d="m107.6448593 46.656189c-.1875-.1015625-.2558594-.3354492-.1542969-.5224609 1.1513672-2.1181641 1.6933594-3.8510742 1.7050781-5.4536133.0136719-1.9946289-.9462891-3.8115234-2.3896484-4.5209961-1.5527344-.7651367-3.7119141-.3569336-5.7705078 1.0908203-.1748047.1206055-.4140625.0810547-.5371094-.09375-.1220703-.1738281-.0800781-.4140625.09375-.5361328 2.2949219-1.612793 4.7451172-2.0415039 6.5537109-1.1523438 1.7285156.8500977 2.8359375 2.8984375 2.8193359 5.2177734-.0166016 2.2783203-1.0341797 4.4106445-1.7988281 5.8164063-.0988006.1829948-.3306426.2576713-.5214843.1542969z" fill="#2a3134"/></g><g><path d="m57.8893089 34.3810539c-6.1019821 4.9967537-9.1004143 7.4520912-15.2977829 12.5269508-1.9764519 3.0808678-4.3888245 6.7042809-5.6483498 10.1339722-6.7927704-4.6822662-8.8838882-13.5623283-5.5804634-20.6361008 0-.0096397.0096989-.0096397.0096989-.0096397 1.685751-3.5749817 4.6601238-6.4814682 8.5742283-7.9153748 5.9679032-2.1895618 14.4258156-.1162547 17.9426689 5.9001923z" fill="#fff"/></g><g><path d="m42.7464523 46.0554314c-.009697.2519035-.0290947.5135078-.0483704.7653542l-.1065559.0872192c-1.9764519 3.0808678-4.3888245 6.7042809-5.6483498 10.1339722-6.7927704-4.6822662-8.8838882-13.5623283-5.5804634-20.6361008-.5424824 3.1002617-.7266216 6.2780495.1938381 9.271698 1.1134434 3.6390228 3.6323032 5.333519 7.1790524 3.8462791 1.6469651-.707283 3.0711136-1.9376564 4.010849-3.4684219z" fill="#dde4ee"/></g><g><path d="m36.7268906 57.3612671c-11.0196819-7.5914574-9.1318512-24.7698135 3.0888672-29.2431622 5.9160156-2.1640625 14.7177734-.2412109 18.4091797 6.0668926.1074219.1835938.0458984.4194336-.1376953.5268555-.1806641.1069336-.4189453.0458984-.5263672-.1381836-3.4980469-5.9770489-11.8632813-7.7871075-17.4794922-5.73242-11.5078621 4.211668-13.3506069 20.2535915-3.3183594 27.6010723 1.2990189-3.2950172 3.5559235-6.7218628 5.5009766-9.7456055.1142578-.1796875.3544922-.2294922.5322266-.1162109.1787109.1147461.2304688.3530273.1162109.5322266l-.4296875.6679688c-5.8681793 9.1216888-4.8264084 9.4428596-5.4208984 9.6308594-.038086.0117187-.2405549.0145225-.334961-.050293z" fill="#2a3134"/></g><g><path d="m38.4752083 46.0513535c.3637009.3292809.7673988.6396141 1.2357826.7484894.4684067.1088791 1.0145531-.0329742 1.2605934-.4493828.6710663-1.1357269-1.0869598-3.989193-.7269897-6.0803947.1191254-.6920433.4703484-.8340988 1.1721573-.6646767.7297287.1761589 1.4468765.4142952 2.1417236.711174.4658585.1990433 1.1017418.3800545 1.3764267-.0439529.3972397-.6131821-.6083794-1.3052368-.6169243-2.0518341.5913124-.450016 1.6193161-.309082 1.9113045-1.0076218.2524757-.6040077-.3071899-1.2412376-.8159752-1.6603966-1.0904541-.898365-2.2327309-1.7667122-3.5326729-2.2724113-1.2999458-.5056992-2.7919807-.6135025-4.0198669.0000191-1.2909164.6450233-2.8112984 2.4048462-3.0113449 3.928524-.2105331 1.6035194.6828117 3.3244095 1.0542679 4.8497467.3673095 1.5083007 1.4396324 2.9679412 2.5715179 3.9927177z" fill="#dde4ee"/></g><g><path d="m35.7473984 43.4525757c-.6328125-1.4702148-1.4511719-3.6875-1.2587891-5.956543.1972656-2.3115234 1.4873047-4.2495117 3.2861328-4.9375 1.8857422-.7197247 4.2832031-.0678711 6.4199219 1.7485352.1621094.1376953.1816406.3808594.0439453.5429688s-.3808594.1816406-.5419922.0439453c-1.9189453-1.6308594-4.0283203-2.2348633-5.6464844-1.6162109-1.5019531.5742188-2.625 2.2958984-2.7939453 4.2836914-.1777344 2.0966797.5986328 4.1923828 1.1982422 5.5864258.0839844.1953125-.0058594.421875-.2011719.5058594-.196659.0848349-.4222984-.0066339-.5058593-.201172z" fill="#2a3134"/></g><g><path d="m84.9501724 26.3260117c-2.1459961 2.9686089-4.3037796 5.9371452-6.4378433 8.9056778-.0833893.1072578-.1669235.2145882-.2383804.3219147-4.083252-.7541008-15.580265-2.8773766-16.3330536-3.0162697 2.9804688-1.0967903 5.6867599-2.8612785 8.3095093-4.6614208 2.5636597-1.7474346 5.3789978-3.7815819 7.2724609-6.3424473-.7272186 3.1473198-2.217453 6.1159286-4.3037796 8.5718327 4.1249237-.3815099 8.1545258-1.6810247 11.7310867-3.7792874z" fill="#fff"/></g><g><path d="m74.9220123 24.9900227c-.876709 1.4518242-1.7539825 2.9045315-2.709938 4.3054447-.6876907 1.0077858-1.4378586 2.0095558-2.4568787 2.6804829 1.4569626.235918 2.9476318.1119595 4.410965-.0805702 5.8294373-.7669716 6.9468765-2.351656 7.4720612-2.5112553.0297394.1758766-.2447433.4200897-.34198.5515556-1.2164078 1.6445503-2.3106689 3.3816757-3.2697144 5.1924629 1.9121017-1.7906303 3.2980576-3.743124 7.2864609-8.955759-.0120621.0157661-.2797394.0225925-.3217697.0337753-.3269043.0869789-.6596832.3415279-.9829102.4610996-3.2733307 1.2109108-6.2553177 3.0030136-10.2425308 3.1188316 1.4964142-2.7157269 1.4419556-1.1951733 3.3465118-5.6654377.2347946-.5510979.4602737-1.1188698.5022888-1.716423.0077057-.1095772-.0348282-.171793-.1409912-.1144867-1.1630325.6278019-1.3911819.4602528-1.5780106.8226929-.3251571.6308002-.603836 1.2653236-.9735641 1.8775864z" fill="#dde4ee"/></g><g><path d="m78.0452499 35.8612671c-.1728516-.125-.2109375-.3657227-.0859375-.5380859l5.6757813-7.8374004c-3.2275391 1.6386719-6.7841797 2.6723633-10.3808594 3.0083008-.3522568.0302238-.5480804-.3741093-.3300781-.6323242 1.6660156-1.9638672 2.9423828-4.2529297 3.7441406-6.7001953-1.7871094 1.9428711-3.953125 3.4970703-6.1982422 5.0356445-2.5693359 1.7602539-5.3339844 3.5722656-8.4013672 4.6967754-.2011719.0732422-.421875-.0292969-.4941406-.2290039-.0732422-.1992188.0292969-.4204102.2285156-.4936523 2.984375-1.0942364 5.703125-2.8769512 8.2314453-4.6093731 2.7021484-1.8515625 5.2841797-3.7231445 7.1777344-6.2558594.2507782-.3340034.7767029-.0854797.6835938.3168945-.6689453 2.8999023-1.9726563 5.6479492-3.7890625 8.0024414 3.7363281-.4775391 7.3994141-1.7231445 10.6464844-3.6269531.3564301-.2105179.7503357.2213955.5058594.5581055l-6.6767578 9.2187481c-.1247331.1717109-.3637772.2109832-.5371095.0859374z" fill="#2a3134"/></g><g><path d="m90.9729843 48.3788452c-3.2021484-1.6381836-7.1308594-1.8798828-10.5136719-.644043-.1953125.0722656-.4208984-.0302734-.4931641-.2294922-.0732422-.199707.0292969-.4208984.2294922-.4941406 3.578125-1.3061523 7.7382813-1.0517578 11.1289063.6821289.1884766.0966797.2636719.3286133.1669922.5180664-.0957184.1866532-.3250656.2658959-.5185547.1674805z" fill="#2a3134"/></g><g><path d="m51.5579453 48.9467163c-.0966797-.1894531-.0214844-.4213867.1669922-.5180664 3.3935547-1.7348633 7.5517578-1.9882813 11.1289063-.6821289.2001953.0732422.3027344.2944336.2294922.4941406-.0722656.1992188-.296875.3017578-.4931641.2294922-3.3828125-1.2348633-7.3115234-.9941406-10.5136719.644043-.1936303.0984878-.4228936.0190582-.5185547-.1674805z" fill="#2a3134"/></g><g><path d="m67.5638046 71.3300171h-.0009766c-1.0819397-.0024796-.0035477-3.9784088 3.0625-4.625 1.9267578-.4091797 4.0634766.6860352 4.8623047 2.487793.0869141.1943359-.0009766.421875-.1953125.5083008-.1943359.0839844-.421875-.0009766-.5078125-.1958008-.6582031-1.4824219-2.4111328-2.3847656-4.0009766-2.0463867-1.5859375.3339844-2.8310547 1.8657227-2.8349609 3.4868164.0000001.2124023-.1728515.3842773-.3847656.3842773z" fill="#2a3134"/></g><g><g><path d="m101.3830261 123.0108948c-4.8102646 6.0085602-15.6945114 8.5119629-22.7819901 2.8408203-4.0982208-3.1215973-7.9476852-9.049942-9.6347275-14.0281448-3.3768921-9.6226959-1.5769196-20.1050873-.4735336-30.258522.4526978-4.1411438 1.1536331-7.8194962 5.1422348-9.3704681 2.7678375-1.0544891 4.5487976-.2339783 5.8138351-.5505524 1.1206207-.2102814 1.7754059-1.2010269 2.1912003-2.2682877.3193665-.8698578.5395966-1.7837982 1.0460663-2.5545883 1.2584686-1.8731384 2.6941299-1.4315338 2.9069519.5726013 1.0280228 10.2281876-7.5797806 21.1314316 3.0611191 33.0994034.850975.9870529 2.3222351 2.3088303 3.8979111 3.3363342l9.7118149-1.2552185c.2972488.5174866.5835495 1.0570221.8258286 1.6185989 1.3020324 5.4696503 1.8533401 14.2592316-1.7067109 18.8180237z" fill="#fff"/></g></g><g><path d="m101.3830261 123.0108948c-4.5515137 5.6853485-13.8363113 7.6765137-20.1393661 4.5255508-4.9580002-2.5537338-8.8212128-7.9806671-11.1101761-12.8499527-3.4681625-7.351799-3.531105-15.6937561-2.6647339-23.8390808.7886963 7.8798065 2.7035217 17.3514633 7.3224106 23.7399521.957962 1.8608856 2.1251373 3.6116791 3.5786133 5.1201935 2.8519135 2.961998 6.9700546 4.9109192 11.0441132 4.3824081 5.515831-.7429123 10.0938721-6.1630173 11.1652832-10.4936295 1.2669525-3.4108582 1.2707291-6.1240005 2.8188477-7.9389648.9910201 5.4284668 1.3213424 13.0812073-2.0149919 17.3535233z" fill="#dde4ee"/></g><g><g><path d="m83.1116562 128.7157593c-6.5116959-1.9338379-12.3230209-10.3276596-14.5097656-16.7680664-3.3711472-9.6091461-1.6552582-20.1149216-.4921875-30.4243164.4729462-4.3246689 1.2526779-8.0810013 5.3857422-9.6875 2.8665237-1.0918961 4.6932907-.2687912 5.859375-.5654297 2.183609-.5640945 1.2230377-4.0404129 2.9873047-5.7294922 1.4031067-1.3213348 3.7263947-.9269867 4.7109375.8398438.9423828 1.7124023.1894531 3.8144531-.3603516 5.3491211-1.8173828 5.137207-2.8525391 10.6894531-2.9941406 16.0556641.0165024.1026459-.4855652 4.7121124 3.7158203 10.5556641 1.5538864 2.1716995 3.3672256 3.8733063 5.3476563 5.1660156.1787109.1157227.2285156.3544922.1123047.5327148s-.3564453.2275391-.5322266.1118164c-5.9571609-3.881073-9.545433-10.9844513-9.4238281-16.2421875 0-.0493164 0-.1367188.0214844-.2255859.1318359-5.3647461 1.1826172-10.9990234 3.0273438-16.2124023.5292969-1.4760742 1.1865234-3.3110352.4121094-4.7182617-.7145767-1.2839432-2.4417877-1.659111-3.5058594-.6538086-1.4099045 1.348465-.6674805 4.2044373-2.4707031 5.5249023-1.6240082 1.1627197-3.3712997-.3106461-6.6308594.9301758-3.8104172 1.4816208-4.4568939 5.0416031-4.8964844 9.0522461-1.1163177 9.9862366-2.86129 20.6362457.4541016 30.0893555 1.7731552 5.2075958 6.1847153 11.8595505 10.5107422 14.5664063 5.931366 4.3107758 16.4013519 2.5593567 21.2421875-3.4916992 3.6933594-4.7299805 2.5849609-13.4956055 1.9365234-17.0444336-.2558365-1.3153458-.6172867-2.9525604-1.0234375-4.2241211-.0644531-.2026367.0478516-.4194336.25-.4838867.203125-.0649414.4189453.0463867.484375.2495117.4197388 1.3189545.7811432 2.9565964 1.0458984 4.3154297.6679688 3.6557617 1.7988281 12.6860352-2.0888672 17.6640625-1.0924454 1.371376-2.6113205 2.6035004-4.0996094 3.5166016-1.057518.6561737-2.031044 1.0552292-2.1328125 1.1054688-1.4747543.6487885-2.6907959.9181824-2.9130859.9848633v.0009766c-3.2511369.8694912-7.1445695.648193-9.4296876-.1396488z" fill="#2a3134"/></g></g><g><path d="m73.8138046 76.2040405c-.2041016-.0610352-.3193359-.2758789-.2587891-.4794922.3105469-1.0385742.0839844-2.2109375-.5917969-3.0600586-.1318359-.1665039-.1044922-.4086914.0625-.5410156.1650391-.1323242.4082031-.1049805.5410156.0615234.8291016 1.043457 1.1074219 2.484375.7265625 3.7602539-.0589827.1977692-.2673644.3201981-.4794921.2587891z" fill="#2a3134"/></g><g><path d="m78.8538437 77.762146c-.2001953-.0708008-.3046875-.2910156-.234375-.4912109.6171875-1.7436523.2382813-3.7773438-.9667969-5.1811523-.1386719-.1616211-.1201172-.4047852.0410156-.5429688.1630859-.1381836.4042969-.1191406.5429688.0410156 1.3818359 1.6098633 1.8164063 3.940918 1.109375 5.9399414-.0704651.1968307-.2866058.3068008-.4921875.234375z" fill="#2a3134"/></g><g><path d="m69.4456406 114.2040405c-.1616745-.0314941-4.8503799.1203537-9.1318359-3.3745117-.1650391-.1342773-.1894531-.3769531-.0546875-.5419922.1328125-.1655273.3769531-.1879883.5410156-.0546875 2.4365234 1.9882813 5.5097656 3.125 8.6552734 3.2011719.2119141.0048828.3798828.1816406.375.394043-.0048828.2094726-.1757813.3759765-.3847656.3759765z" fill="#2a3134"/></g><g><g><path d="m26.6816578 30.2436256c.5119495 1.887085-.5675678 3.8520012-2.4477615 4.4021606l-.3687916.0665283c-1.7941227.3236504-3.538063-.7099648-4.0754986-2.5101204-1.3498383-4.5169334 2.6882-9.4176292 2.9770336-12.4599953.0672016-.5592995.0126476-.6335087-.277565-.8350163-.6742516-.466711-1.8867111-.4178028-2.8476677.0934601-1.0335026.5655174-1.540884 1.4992523-1.4753304 2.7944756.0600986 1.9685993-1.4909859 3.6395054-3.4629078 3.700201-1.9685993.0600967-3.6381435-1.4929485-3.6982412-3.4615479-.127986-3.9803886 1.8157158-7.4494143 5.2265921-9.3271723 3.3745766-1.8317575 7.4497032-1.6818047 10.3439445.3655853 7.5122357 5.2141297-.0232086 14.6818173.1061936 17.1714413zm1.2803478 9.4175148c.3458271 1.9170532-.9186649 3.7884064-2.8755894 4.1414299-1.9602451.3536186-3.795599-.9585381-4.141428-2.8755913-.3533192-1.9585838.9078522-3.8293381 2.8680973-4.1829567 1.9569245-.3530196 3.795599.9585343 4.1489201 2.9171181z" fill="#fc5d59"/><path d="m22.1888046 43.5316772c-2.8623104-2.006218-1.8938446-6.5446777 1.5556641-7.1665039 2.1464844-.3847656 4.2050781 1.0615234 4.5966797 3.2275391.623064 3.453598-3.2772618 5.9519424-6.1523438 3.9389648zm2.2509766-6.4589843c-1.9845772 0-3.4692822 1.8228493-3.1162109 3.7861328.3119373 1.7247658 1.9607925 2.8804092 3.6943359 2.5649414 1.7255859-.3115234 2.8769531-1.96875 2.5654297-3.6943359-.28125-1.5581055-1.6308594-2.6567383-3.1435547-2.6567383zm-5.0195313-4.7602539c-1.3919392-4.660471 2.6886101-9.7141666 2.9628906-12.6064434.0341797-.2822266.0253906-.3603516.0175781-.3828125-.0087891-.0107422-.0537109-.0458984-.1318359-.0996094-.5419922-.3745117-1.6162109-.3237305-2.4472656.1166992-.9111328.4995117-1.328125 1.296875-1.2705078 2.4355469.1063614 3.5224304-4.0909271 5.4463291-6.6757803 3.0307617-.7773438-.7260742-1.2226563-1.7070313-1.2548828-2.7612305-.1328125-4.1152344 1.8955078-7.7329111 5.4257803-9.6762705 3.5068359-1.9047852 7.7265625-1.7504883 10.7519531.3886719 5.8652344 4.07129 2.9033203 10.7797861 1.4804688 14.0034189-.3417969.784668-1.2441406 2.8603516-1.2119141 3.4624023.5517578 2.0029278-.6650391 4.1889629-2.7246094 4.7919903l-.4082031.0756836c-2.014143.364769-3.9201641-.7948646-4.5136719-2.7788085zm3.288086-13.7216778c.4335938.3007813.5205078.5361328.4404297 1.1972656-.2938442 3.1209927-4.2896194 7.9553986-2.9902344 12.303709.4765625 1.5932617 2.0078125 2.5361328 3.6386719 2.2416992l.3681641-.0664063c1.6210938-.4765625 2.6005859-2.2407227 2.1445313-3.9228497-.0590305-.9297371.9000244-3.0278625 1.2636719-3.8935547 1.4433594-3.2680664 4.1289063-9.3510742-1.2177734-13.0620127-5.8651772-4.1474895-15.2394085.1374388-14.9658194 8.6328135.053216 1.7776318 1.5711203 3.1466408 3.3017578 3.0893555 1.756835-.0546875 3.1435537-1.5366211 3.0898428-3.3037109-.0712891-1.4150391.5068359-2.5048828 1.6748047-3.1445313.9603556-.511156 2.3737677-.6801051 3.251953-.0717772z" fill="#2a3134"/></g></g><g><g><g><g><path d="m127.2611923 49.4576149c-.6666489 2.3045349-3.0511398 3.6758614-5.372818 3.0536575l-.4289932-.1654205c-2.0870209-.8047523-3.2559891-3.0002251-2.6714859-5.2298851 1.4652634-5.5954819 8.822937-8.1576881 11.0656357-11.1625977.4270782-.5434227.4172211-.6559944.2415009-1.0522728-.4091797-.9191513-1.7112885-1.6410027-3.0445938-1.7178268-1.4439468-.0662193-2.5711823.589016-3.3283539 1.9885025-1.1922684 2.1018562-3.8835983 2.8643036-5.9893188 1.6705437-2.10186-1.1922684-2.8616257-3.8847847-1.6693573-5.9866409 2.4039078-4.2539539 6.6533508-6.6508846 11.4260559-6.4442749 4.7053299.2316818 8.8813553 2.9873447 10.6096725 6.9789639 4.5497589 10.2557086-9.3860932 15.3750514-10.8379441 18.0672511zm-4.6629257 10.6880836c-.8598938 2.2300186-3.378624 3.3853226-5.6550217 2.5075493-2.2802582-.8792648-3.3674393-3.4249992-2.5075455-5.6550217.8785172-2.2783279 3.3933868-3.4351234 5.673645-2.5558586 2.2763978.8777772 3.3674394 3.4249993 2.4889222 5.703331z" fill="#8c71de"/></g></g><g><g><path d="m116.8050156 63.0126343c-3.9897003-1.5393982-4.0339584-7.0973434-.2167969-8.8271484 3.8212433-1.7343063 7.9291382 2.0559731 6.3691406 6.0991211-.9331055 2.4230651-3.6672439 3.6850089-6.1523437 2.7280273zm.1005859-8.1259766c-3.234024 1.4658775-3.1364746 6.1304207.1767578 7.4072266 2.0642929.795826 4.3667221-.2378883 5.15625-2.2866211 1.3061066-3.3847389-2.11483-6.5790291-5.3330078-5.1206055zm4.8828125-2.003418-.4677734-.1782227c-2.3134766-.8920898-3.5351563-3.2836914-2.9052734-5.6865234 1.5043259-5.7458038 8.9674377-8.397789 11.1298904-11.2954102.3154297-.4013672.3154297-.4013672.1982422-.6655273-.3476563-.7797852-1.5146484-1.4208984-2.7158279-1.4902344-1.3085938-.0527344-2.2841797.5249023-2.9667969 1.7875977-1.3085938 2.3056641-4.234375 3.1186523-6.5175781 1.8222656-2.2708817-1.287632-3.1221542-4.2064514-1.8144531-6.5112286 2.4677734-4.3696289 6.8818359-6.8554688 11.7773438-6.6391602 4.8574295.2387695 9.1523514 3.0693359 10.9462967 7.2109375 3.5244141 7.9423809-3.8183594 13.0576153-7.3476563 15.5161114-.8603516.6064453-3.1416092 2.2138672-3.5048904 2.8862305-.6953813 2.4326554-3.3231889 3.9101106-5.8115236 3.2431641zm5.2792969-20.0849609c1.4961014.0864258 2.9160233.9052734 3.3789139 1.9462891.2519531.5664063.2001953.8227539-.2900391 1.4467773-2.2672958 3.0377541-9.5818176 5.6215172-10.9970779 11.0224609-.5283203 2.0170898.4970703 4.0239258 2.4384766 4.7724609l.4287109.1655273c2.0517578.5473633 4.2568359-.7016602 4.8642578-2.8012695.5163651-.9794273 2.8602676-2.5676308 3.7744217-3.2285156 3.6171875-2.5200195 10.3496094-7.2104492 7.0820313-14.5751934-3.5440063-8.1810627-16.1913757-9.6291084-21.3486404-.5014648-1.0878906 1.9179668-.4042969 4.3681622 1.5244141 5.4619122 1.9179688 1.0864258 4.3691406.402832 5.4638672-1.5253906.7964933-1.4721108 2.0460814-2.2517014 3.6806639-2.1835938z" fill="#2a3134"/></g></g></g></g></g></svg>